<?xml version="1.0" encoding="UTF-8" standalone="no"?>
<!-- Creator: CorelDRAW -->

<svg
   xmlns:dc="http://purl.org/dc/elements/1.1/"
   xmlns:cc="http://creativecommons.org/ns#"
   xmlns:rdf="http://www.w3.org/1999/02/22-rdf-syntax-ns#"
   xmlns:svg="http://www.w3.org/2000/svg"
   xmlns="http://www.w3.org/2000/svg"
   xmlns:sodipodi="http://sodipodi.sourceforge.net/DTD/sodipodi-0.dtd"
   xmlns:inkscape="http://www.inkscape.org/namespaces/inkscape"
   xml:space="preserve"
   viewBox="0 0 39.653597 18.865702"
   id="svg2"
   version="1.1"
   inkscape:version="0.91 r13725"
   sodipodi:docname="logo-eye.svg"
   width="39.653599"
   height="18.865702"
   style="clip-rule:evenodd;fill-rule:evenodd;image-rendering:optimizeQuality;shape-rendering:geometricPrecision;text-rendering:geometricPrecision"><defs
     id="defs30" /><sodipodi:namedview
     pagecolor="#ffffff"
     bordercolor="#666666"
     borderopacity="1"
     objecttolerance="10"
     gridtolerance="10"
     guidetolerance="10"
     inkscape:pageopacity="0"
     inkscape:pageshadow="2"
     inkscape:window-width="1441"
     inkscape:window-height="915"
     id="namedview28"
     showgrid="false"
     fit-margin-top="0"
     fit-margin-left="0"
     fit-margin-right="0"
     fit-margin-bottom="0"
     inkscape:zoom="5.1410758"
     inkscape:cx="38.707651"
     inkscape:cy="9.433051"
     inkscape:window-x="0"
     inkscape:window-y="0"
     inkscape:window-maximized="0"
     inkscape:current-layer="svg2" /><g
     id="g11"
     transform="translate(-2e-4,6.3270985e-7)"><path
       id="_157776520"
       d="m 10.42,6.7358 c 0.7503,0 1.4314,0.306 1.9249,0.79952 l -1.9354,1.9144 1.9354,1.9355 c -0.49359,0.49352 -1.1746,0.79952 -1.9249,0.79952 -1.5006,0 -2.7244,-1.2239 -2.7244,-2.7244 0,-1.5005 1.2239,-2.7244 2.7244,-2.7244 z"
       inkscape:connector-curvature="0"
       style="fill:#009038" /><path
       id="_157776448"
       d="M 13.25,6.6097 17.0405,2.8192 C 15.3043,1.0713 12.8121,0.001 10.4106,0 8.0078,-9.7054e-4 5.473,1.1147 3.774,2.8137 L 2e-4,6.5875 3.7671,10.3543 7.5409,6.5805 c 0.73415,-0.73415 1.8317,-1.216 2.8698,-1.2107 1.0327,0.00527 2.1716,0.54787 2.8394,1.2398 z"
       inkscape:connector-curvature="0"
       style="fill:#e10079" /><path
       id="_157776376"
       d="M 7.5475,12.256 3.757,16.0465 c 1.7362,1.7479 4.2284,2.8182 6.6299,2.8192 2.4028,9.71e-4 4.9376,-1.1147 6.6366,-2.8137 l 3.7738,-3.7738 -3.7669,-3.7668 -3.7738,3.7738 c -0.73415,0.73415 -1.8317,1.216 -2.8698,1.2107 C 9.3541,13.4906 8.2152,12.94803 7.5474,12.256 Z"
       inkscape:connector-curvature="0"
       style="fill:#009ddd" /></g><g
     id="g21"
     transform="translate(-2e-4,6.3270985e-7)"><path
       id="_157776040"
       d="m 29.277,6.7358 c 0.7503,0 1.4314,0.306 1.9249,0.79952 l -1.9354,1.9144 1.9354,1.9355 c -0.49359,0.49352 -1.1746,0.79952 -1.9249,0.79952 -1.5006,0 -2.7244,-1.2239 -2.7244,-2.7244 0,-1.5005 1.2239,-2.7244 2.7244,-2.7244 z"
       inkscape:connector-curvature="0"
       style="fill:#009038" /><path
       id="_157775968"
       d="M 32.106,6.6097 35.8965,2.8192 C 34.1603,1.0713 31.6681,0.001 29.2666,0 26.8638,-9.7054e-4 24.329,1.1147 22.63,2.8137 l -3.7738,3.7738 3.7669,3.7668 3.7738,-3.7738 c 0.73415,-0.73415 1.8317,-1.216 2.8698,-1.2107 1.0327,0.00527 2.1716,0.54787 2.8394,1.2398 z"
       inkscape:connector-curvature="0"
       style="fill:#e10079" /><path
       id="_157775896"
       d="m 26.404,12.256 -3.7905,3.7905 c 1.7362,1.7479 4.2284,2.8182 6.6299,2.8192 2.4028,9.71e-4 4.9376,-1.1147 6.6366,-2.8137 l 3.7738,-3.7738 -3.7669,-3.7668 -3.7738,3.7738 c -0.73415,0.73415 -1.8317,1.216 -2.8698,1.2107 -1.0327,-0.0053 -2.1716,-0.54787 -2.8394,-1.2399 z"
       inkscape:connector-curvature="0"
       style="fill:#009ddd" /></g><metadata
     id="metadata26"><rdf:RDF><cc:Work><dc:format>image/svg+xml</dc:format><dc:type
           rdf:resource="http://purl.org/dc/dcmitype/StillImage" /><cc:license
           rdf:resource="http://creativecommons.org/publicdomain/zero/1.0/" /><dc:publisher><cc:Agent
             rdf:about="http://openclipart.org/"><dc:title>Openclipart</dc:title></cc:Agent></dc:publisher><dc:title>logo eye</dc:title><dc:date>2010-05-08T12:08:55</dc:date><dc:description /><dc:source>https://openclipart.org/detail/59239/logo-eye-by-jantonalcor</dc:source><dc:creator><cc:Agent><dc:title>jantonalcor</dc:title></cc:Agent></dc:creator><dc:subject><rdf:Bag><rdf:li>border</rdf:li><rdf:li>chain</rdf:li><rdf:li>eye</rdf:li><rdf:li>ornament</rdf:li></rdf:Bag></dc:subject></cc:Work><cc:License
         rdf:about="http://creativecommons.org/publicdomain/zero/1.0/"><cc:permits
           rdf:resource="http://creativecommons.org/ns#Reproduction" /><cc:permits
           rdf:resource="http://creativecommons.org/ns#Distribution" /><cc:permits
           rdf:resource="http://creativecommons.org/ns#DerivativeWorks" /></cc:License></rdf:RDF></metadata></svg>