<?xml version="1.0" encoding="UTF-8" standalone="no"?>
<!-- Generated by graphviz version 2.36.0 (20140111.2315)
 -->

<!-- Title: b Pages: 1 -->

<svg
   xmlns:dc="http://purl.org/dc/elements/1.1/"
   xmlns:cc="http://creativecommons.org/ns#"
   xmlns:rdf="http://www.w3.org/1999/02/22-rdf-syntax-ns#"
   xmlns:svg="http://www.w3.org/2000/svg"
   xmlns="http://www.w3.org/2000/svg"
   xmlns:sodipodi="http://sodipodi.sourceforge.net/DTD/sodipodi-0.dtd"
   xmlns:inkscape="http://www.inkscape.org/namespaces/inkscape"
   width="273.17331"
   height="296.00882"
   viewBox="0 0 218.71671 236.80705"
   id="svg2"
   version="1.1"
   inkscape:version="0.48.2 r9819"
   sodipodi:docname="security-er.svg">
  <metadata
     id="metadata107">
    <rdf:RDF>
      <cc:Work
         rdf:about="">
        <dc:format>image/svg+xml</dc:format>
        <dc:type
           rdf:resource="http://purl.org/dc/dcmitype/StillImage" />
      </cc:Work>
    </rdf:RDF>
  </metadata>
  <defs
     id="defs105" />
  <sodipodi:namedview
     pagecolor="#ffffff"
     bordercolor="#666666"
     borderopacity="1"
     objecttolerance="10"
     gridtolerance="10"
     guidetolerance="10"
     inkscape:pageopacity="0"
     inkscape:pageshadow="2"
     inkscape:window-width="1267"
     inkscape:window-height="927"
     id="namedview103"
     showgrid="false"
     fit-margin-top="0"
     fit-margin-left="0"
     fit-margin-right="0"
     fit-margin-bottom="0"
     inkscape:zoom="2.3264843"
     inkscape:cx="143.37206"
     inkscape:cy="148.00441"
     inkscape:window-x="0"
     inkscape:window-y="0"
     inkscape:window-maximized="0"
     inkscape:current-layer="graph0" />
  <g
     id="graph0"
     class="graph"
     transform="translate(-16.319899,236.40067)">
    <title
       id="title5">b</title>
    <!-- Usecase -->
    <g
       id="node1"
       class="node">
      <title
         id="title10">Usecase</title>
      <ellipse
         cx="163.242"
         cy="-118"
         rx="39.9464"
         ry="18"
         id="ellipse12"
         d="m 203.1884,-118 c 0,9.94113 -17.88461,18 -39.9464,18 -22.06178,0 -39.9464,-8.05887 -39.9464,-18 0,-9.94113 17.88462,-18 39.9464,-18 22.06179,0 39.9464,8.05887 39.9464,18 z"
         sodipodi:cx="163.242"
         sodipodi:cy="-118"
         sodipodi:rx="39.9464"
         sodipodi:ry="18"
         style="fill:#ef3b2c;stroke:#000000" />
      <text
         x="163.242"
         y="-114.3"
         font-size="14.00"
         id="text14"
         style="font-size:14px;text-anchor:middle;font-family:'Times,serif'">Usecase</text>
    </g>
    <!-- View -->
    <g
       id="node3"
       class="node">
      <title
         id="title17">View</title>
      <ellipse
         cx="86.242203"
         cy="-68"
         rx="30.320601"
         ry="18"
         id="ellipse19"
         d="m 116.5628,-68 c 0,9.941125 -13.57499,18 -30.320597,18 -16.745606,0 -30.320601,-8.058875 -30.320601,-18 0,-9.941125 13.574995,-18 30.320601,-18 16.745607,0 30.320597,8.058875 30.320597,18 z"
         sodipodi:cx="86.242203"
         sodipodi:cy="-68"
         sodipodi:rx="30.320601"
         sodipodi:ry="18"
         style="fill:#ef3b2c;stroke:#000000" />
      <text
         x="86.242203"
         y="-64.300003"
         font-size="14.00"
         id="text21"
         style="font-size:14px;text-anchor:middle;font-family:'Times,serif'">View</text>
    </g>
    <!-- Usecase&#45;&gt;View -->
    <g
       id="edge4"
       class="edge">
      <title
         id="title24">Usecase-&gt;View</title>
      <path
         d="m 140.556,-102.858 c -10.824,6.7475 -23.667,14.7534 -34.146,21.2858"
         id="path26"
         inkscape:connector-curvature="0"
         style="fill:none;stroke:#000000" />
    </g>
    <!-- Action -->
    <g
       id="node4"
       class="node">
      <title
         id="title29">Action</title>
      <ellipse
         cx="86.242203"
         cy="-18"
         rx="35.6194"
         ry="18"
         id="ellipse31"
         d="m 121.8616,-18 c 0,9.9411255 -15.94735,18 -35.619397,18 -19.672052,0 -35.6194,-8.0588745 -35.6194,-18 0,-9.941125 15.947348,-18 35.6194,-18 19.672047,0 35.619397,8.058875 35.619397,18 z"
         sodipodi:cx="86.242203"
         sodipodi:cy="-18"
         sodipodi:rx="35.6194"
         sodipodi:ry="18"
         style="fill:#fb6a4a;stroke:#000000" />
      <text
         x="86.242203"
         y="-14.3"
         font-size="14.00"
         id="text33"
         style="font-size:14px;text-anchor:middle;font-family:'Times,serif'">Action</text>
    </g>
    <!-- Usecase&#45;&gt;Action -->
    <g
       id="edge3"
       class="edge">
      <title
         id="title36">Usecase-&gt;Action</title>
      <path
         d="m 155.932,-100.177 c -6.703,14.2786 -17.565,34.8316 -30.69,50.177 -5.397,6.3101 -12.23,12.247 -18.664,17.2032"
         id="path38"
         inkscape:connector-curvature="0"
         style="fill:none;stroke:#000000" />
    </g>
    <!-- Role -->
    <g
       id="node2"
       class="node">
      <title
         id="title41">Role</title>
      <ellipse
         cx="52.242199"
         cy="-168"
         rx="27.4223"
         ry="18"
         id="ellipse43"
         d="m 79.664499,-168 c 0,9.94113 -12.277382,18 -27.4223,18 -15.144918,0 -27.4223,-8.05887 -27.4223,-18 0,-9.94113 12.277382,-18 27.4223,-18 15.144918,0 27.4223,8.05887 27.4223,18 z"
         sodipodi:cx="52.242199"
         sodipodi:cy="-168"
         sodipodi:rx="27.4223"
         sodipodi:ry="18"
         style="fill:#ef3b2c;stroke:#000000" />
      <text
         x="52.242199"
         y="-164.3"
         font-size="14.00"
         id="text45"
         style="font-size:14px;text-anchor:middle;font-family:'Times,serif'">Role</text>
    </g>
    <!-- Role&#45;&gt;Usecase -->
    <g
       id="edge9"
       class="edge">
      <title
         id="title48">Role-&gt;Usecase</title>
      <path
         d="m 74.7047,-157.286 c 17.4843,7.56 41.8463,18.095 60.5903,26.201"
         id="path50"
         inkscape:connector-curvature="0"
         style="fill:none;stroke:#000000" />
    </g>
    <!-- Role&#45;&gt;View -->
    <g
       id="edge7"
       class="edge">
      <title
         id="title53">Role-&gt;View</title>
      <path
         d="m 58.0099,-150.376 c 6.2522,18.021 16.1732,46.617 22.4364,64.6701"
         id="path55"
         inkscape:connector-curvature="0"
         style="fill:none;stroke:#000000" />
    </g>
    <!-- Role&#45;&gt;Action -->
    <g
       id="edge6"
       class="edge">
      <title
         id="title58">Role-&gt;Action</title>
      <path
         d="m 46.4729,-150.088 c -7.0399,23.713 -16.165,67.5794 -0.2307,100.088 3.6349,7.4157 9.9935,13.5652 16.5855,18.3784"
         id="path60"
         inkscape:connector-curvature="0"
         style="fill:none;stroke:#000000" />
    </g>
    <!-- View&#45;&gt;Action -->
    <g
       id="edge10"
       class="edge">
      <title
         id="title63">View-&gt;Action</title>
      <path
         d="m 86.2422,-49.9418 c 0,1.2732 0,2.5749 0,3.8891"
         id="path65"
         inkscape:connector-curvature="0"
         style="fill:none;stroke:#000000" />
      <polygon
         points="86.2422,-36.0032 82.7423,-46.0033 89.7423,-46.0032 89.7423,-46.0032 "
         id="polygon67"
         style="fill:#000000;stroke:#000000" />
    </g>
    <!-- User -->
    <g
       id="node5"
       class="node">
      <title
         id="title70">User</title>
      <ellipse
         cx="44.242199"
         cy="-218"
         rx="27.4223"
         ry="18"
         id="ellipse72"
         d="m 71.664499,-218 c 0,9.94113 -12.277382,18 -27.4223,18 -15.144918,0 -27.4223,-8.05887 -27.4223,-18 0,-9.94113 12.277382,-18 27.4223,-18 15.144918,0 27.4223,8.05887 27.4223,18 z"
         sodipodi:cx="44.242199"
         sodipodi:cy="-218"
         sodipodi:rx="27.4223"
         sodipodi:ry="18"
         style="fill:#41ab5d;stroke:#000000" />
      <text
         x="44.242199"
         y="-214.3"
         font-size="14.00"
         id="text74"
         style="font-size:14px;text-anchor:middle;font-family:'Times,serif'">User</text>
    </g>
    <!-- User&#45;&gt;Role -->
    <g
       id="edge2"
       class="edge">
      <title
         id="title77">User-&gt;Role</title>
      <path
         d="m 47.0853,-199.942 c 0.7545,4.527 1.5691,9.415 2.3231,13.939"
         id="path79"
         inkscape:connector-curvature="0"
         style="fill:none;stroke:#000000" />
    </g>
    <!-- Category -->
    <g
       id="node6"
       class="node">
      <title
         id="title82">Category</title>
      <ellipse
         cx="190.242"
         cy="-218"
         rx="44.294601"
         ry="18"
         id="ellipse84"
         d="m 234.53661,-218 c 0,9.94113 -19.83137,18 -44.29461,18 -24.46323,0 -44.2946,-8.05887 -44.2946,-18 0,-9.94113 19.83137,-18 44.2946,-18 24.46324,0 44.29461,8.05887 44.29461,18 z"
         sodipodi:cx="190.242"
         sodipodi:cy="-218"
         sodipodi:rx="44.294601"
         sodipodi:ry="18"
         style="fill:#fb6a4a;stroke:#000000" />
      <text
         x="190.242"
         y="-214.3"
         font-size="14.00"
         id="text86"
         style="font-size:14px;text-anchor:middle;font-family:'Times,serif'">Category</text>
    </g>
    <!-- Category&#45;&gt;Usecase -->
    <g
       id="edge1"
       class="edge">
      <title
         id="title89">Category-&gt;Usecase</title>
      <path
         d="m 185.539,-199.93 c -4.925,17.878 -12.618,45.799 -17.557,63.727"
         id="path91"
         inkscape:connector-curvature="0"
         style="fill:none;stroke:#000000" />
    </g>
    <!-- Category&#45;&gt;Role -->
    <g
       id="edge5"
       class="edge">
      <title
         id="title94">Category-&gt;Role</title>
      <path
         d="m 157.887,-205.746 c -25.015,8.701 -59.0817,20.55 -81.6895,28.414"
         id="path96"
         inkscape:connector-curvature="0"
         style="fill:none;stroke:#000000" />
    </g>
    <!-- Category&#45;&gt;View -->
    <g
       id="edge8"
       class="edge">
      <title
         id="title99">Category-&gt;View</title>
      <path
         d="m 200.743,-200.339 c 14.024,24.599 34.577,70.895 11.499,100.339 -11.743,14.982 -62.893,23.6931 -96.303,27.8836"
         id="path101"
         inkscape:connector-curvature="0"
         style="fill:none;stroke:#000000" />
    </g>
  </g>
</svg>
