<?xml version="1.0" encoding="UTF-8" standalone="no"?>
<!DOCTYPE svg PUBLIC "-//W3C//DTD SVG 1.1//EN"
 "http://www.w3.org/Graphics/SVG/1.1/DTD/svg11.dtd">
<!-- Generated by graphviz version 2.38.0 (20140413.2041)
 -->
<!-- Title: b Pages: 1 -->
<svg width="270pt" height="244pt"
 viewBox="0.00 0.00 270.45 244.00" xmlns="http://www.w3.org/2000/svg" xmlns:xlink="http://www.w3.org/1999/xlink">
<g id="graph0" class="graph" transform="scale(1 1) rotate(0) translate(4 240)">
<title>b</title>
<polygon fill="white" stroke="none" points="-4,4 -4,-240 266.455,-240 266.455,4 -4,4"/>
<!-- 0 -->
<g id="node1" class="node"><title>0</title>
<ellipse fill="#ef3b2c" stroke="black" cx="163.781" cy="-118" rx="40.0939" ry="18"/>
<text text-anchor="middle" x="163.781" y="-114.3" font-family="Times,serif" font-size="14.00">Usecase</text>
</g>
<!-- 2 -->
<g id="node3" class="node"><title>2</title>
<ellipse fill="#ef3b2c" stroke="black" cx="87.7806" cy="-68" rx="30.5947" ry="18"/>
<text text-anchor="middle" x="87.7806" y="-64.3" font-family="Times,serif" font-size="14.00">View</text>
</g>
<!-- 0&#45;&gt;2 -->
<g id="edge4" class="edge"><title>0&#45;&gt;2</title>
<path fill="none" stroke="black" d="M141.389,-102.858C130.793,-96.1658 118.237,-88.2358 107.941,-81.7332"/>
</g>
<!-- 3 -->
<g id="node4" class="node"><title>3</title>
<ellipse fill="#fb6a4a" stroke="black" cx="87.7806" cy="-18" rx="35.9954" ry="18"/>
<text text-anchor="middle" x="87.7806" y="-14.3" font-family="Times,serif" font-size="14.00">Action</text>
</g>
<!-- 0&#45;&gt;3 -->
<g id="edge3" class="edge"><title>0&#45;&gt;3</title>
<path fill="none" stroke="black" d="M157.08,-100.114C150.871,-85.7964 140.66,-65.2211 127.781,-50 122.332,-43.5614 115.345,-37.5923 108.74,-32.6461"/>
</g>
<!-- 1 -->
<g id="node2" class="node"><title>1</title>
<ellipse fill="#ef3b2c" stroke="black" cx="53.7806" cy="-168" rx="27.8951" ry="18"/>
<text text-anchor="middle" x="53.7806" y="-164.3" font-family="Times,serif" font-size="14.00">Role</text>
</g>
<!-- 1&#45;&gt;0 -->
<g id="edge9" class="edge"><title>1&#45;&gt;0</title>
<path fill="none" stroke="black" d="M76.3062,-157.171C93.5286,-149.655 117.37,-139.252 135.813,-131.204"/>
</g>
<!-- 1&#45;&gt;2 -->
<g id="edge7" class="edge"><title>1&#45;&gt;2</title>
<path fill="none" stroke="black" d="M59.5483,-150.376C65.8004,-132.355 75.7215,-103.759 81.9847,-85.7059"/>
</g>
<!-- 1&#45;&gt;3 -->
<g id="edge6" class="edge"><title>1&#45;&gt;3</title>
<path fill="none" stroke="black" d="M48.0113,-150.088C40.9714,-126.375 31.8463,-82.5086 47.7806,-50 51.4155,-42.5843 57.7741,-36.4348 64.3661,-31.6216"/>
</g>
<!-- 2&#45;&gt;3 -->
<g id="edge10" class="edge"><title>2&#45;&gt;3</title>
<path fill="none" stroke="black" d="M87.7806,-49.9418C87.7806,-48.6686 87.7806,-47.3669 87.7806,-46.0527"/>
<polygon fill="black" stroke="black" points="91.2807,-46.0032 87.7806,-36.0032 84.2807,-46.0033 91.2807,-46.0032"/>
</g>
<!-- 4 -->
<g id="node5" class="node"><title>4</title>
<ellipse fill="#41ab5d" stroke="black" cx="44.7806" cy="-218" rx="27.8951" ry="18"/>
<text text-anchor="middle" x="44.7806" y="-214.3" font-family="Times,serif" font-size="14.00">User</text>
</g>
<!-- 4&#45;&gt;1 -->
<g id="edge2" class="edge"><title>4&#45;&gt;1</title>
<path fill="none" stroke="black" d="M47.979,-199.942C48.8278,-195.415 49.7443,-190.527 50.5925,-186.003"/>
</g>
<!-- 5 -->
<g id="node6" class="node"><title>5</title>
<ellipse fill="#fb6a4a" stroke="black" cx="190.781" cy="-218" rx="44.393" ry="18"/>
<text text-anchor="middle" x="190.781" y="-214.3" font-family="Times,serif" font-size="14.00">Category</text>
</g>
<!-- 5&#45;&gt;0 -->
<g id="edge1" class="edge"><title>5&#45;&gt;0</title>
<path fill="none" stroke="black" d="M186.078,-199.93C181.152,-182.052 173.46,-154.131 168.52,-136.203"/>
</g>
<!-- 5&#45;&gt;1 -->
<g id="edge5" class="edge"><title>5&#45;&gt;1</title>
<path fill="none" stroke="black" d="M158.314,-205.625C133.626,-196.975 100.209,-185.267 77.8697,-177.44"/>
</g>
<!-- 5&#45;&gt;2 -->
<g id="edge8" class="edge"><title>5&#45;&gt;2</title>
<path fill="none" stroke="black" d="M201.274,-200.345C215.289,-175.752 235.831,-129.465 212.781,-100 201.174,-85.1633 150.692,-76.4275 117.54,-72.1891"/>
</g>
</g>
</svg>
