<?xml version="1.0" encoding="UTF-8" standalone="no"?>
<!DOCTYPE svg PUBLIC "-//W3C//DTD SVG 1.1//EN"
 "http://www.w3.org/Graphics/SVG/1.1/DTD/svg11.dtd">
<!-- Generated by graphviz version 2.36.0 (20140111.2315)
 -->
<!-- Title: b Pages: 1 -->
<svg width="270pt" height="244pt"
 viewBox="0.00 0.00 270.22 244.00" xmlns="http://www.w3.org/2000/svg" xmlns:xlink="http://www.w3.org/1999/xlink">
<g id="graph0" class="graph" transform="scale(1 1) rotate(0) translate(4 240)">
<title>b</title>
<polygon fill="white" stroke="none" points="-4,4 -4,-240 266.222,-240 266.222,4 -4,4"/>
<!-- Usecase -->
<g id="node1" class="node"><title>Usecase</title>
<ellipse fill="#ef3b2c" stroke="black" cx="163.242" cy="-118" rx="39.9464" ry="18"/>
<text text-anchor="middle" x="163.242" y="-114.3" font-family="Times,serif" font-size="14.00">Usecase</text>
</g>
<!-- View -->
<g id="node3" class="node"><title>View</title>
<ellipse fill="#ef3b2c" stroke="black" cx="86.2422" cy="-68" rx="30.3206" ry="18"/>
<text text-anchor="middle" x="86.2422" y="-64.3" font-family="Times,serif" font-size="14.00">View</text>
</g>
<!-- Usecase&#45;&gt;View -->
<g id="edge4" class="edge"><title>Usecase&#45;&gt;View</title>
<path fill="none" stroke="black" d="M140.556,-102.858C129.732,-96.1105 116.889,-88.1046 106.41,-81.5722"/>
</g>
<!-- Action -->
<g id="node4" class="node"><title>Action</title>
<ellipse fill="#fb6a4a" stroke="black" cx="86.2422" cy="-18" rx="35.6194" ry="18"/>
<text text-anchor="middle" x="86.2422" y="-14.3" font-family="Times,serif" font-size="14.00">Action</text>
</g>
<!-- Usecase&#45;&gt;Action -->
<g id="edge3" class="edge"><title>Usecase&#45;&gt;Action</title>
<path fill="none" stroke="black" d="M155.932,-100.177C149.229,-85.8984 138.367,-65.3454 125.242,-50 119.845,-43.6899 113.012,-37.753 106.578,-32.7968"/>
</g>
<!-- Role -->
<g id="node2" class="node"><title>Role</title>
<ellipse fill="#ef3b2c" stroke="black" cx="52.2422" cy="-168" rx="27.4223" ry="18"/>
<text text-anchor="middle" x="52.2422" y="-164.3" font-family="Times,serif" font-size="14.00">Role</text>
</g>
<!-- Role&#45;&gt;Usecase -->
<g id="edge9" class="edge"><title>Role&#45;&gt;Usecase</title>
<path fill="none" stroke="black" d="M74.7047,-157.286C92.189,-149.726 116.551,-139.191 135.295,-131.085"/>
</g>
<!-- Role&#45;&gt;View -->
<g id="edge7" class="edge"><title>Role&#45;&gt;View</title>
<path fill="none" stroke="black" d="M58.0099,-150.376C64.2621,-132.355 74.1831,-103.759 80.4463,-85.7059"/>
</g>
<!-- Role&#45;&gt;Action -->
<g id="edge6" class="edge"><title>Role&#45;&gt;Action</title>
<path fill="none" stroke="black" d="M46.4729,-150.088C39.433,-126.375 30.3079,-82.5086 46.2422,-50 49.8771,-42.5843 56.2357,-36.4348 62.8277,-31.6216"/>
</g>
<!-- View&#45;&gt;Action -->
<g id="edge10" class="edge"><title>View&#45;&gt;Action</title>
<path fill="none" stroke="black" d="M86.2422,-49.9418C86.2422,-48.6686 86.2422,-47.3669 86.2422,-46.0527"/>
<polygon fill="black" stroke="black" points="89.7423,-46.0032 86.2422,-36.0032 82.7423,-46.0033 89.7423,-46.0032"/>
</g>
<!-- User -->
<g id="node5" class="node"><title>User</title>
<ellipse fill="#41ab5d" stroke="black" cx="44.2422" cy="-218" rx="27.4223" ry="18"/>
<text text-anchor="middle" x="44.2422" y="-214.3" font-family="Times,serif" font-size="14.00">User</text>
</g>
<!-- User&#45;&gt;Role -->
<g id="edge2" class="edge"><title>User&#45;&gt;Role</title>
<path fill="none" stroke="black" d="M47.0853,-199.942C47.8398,-195.415 48.6544,-190.527 49.4084,-186.003"/>
</g>
<!-- Category -->
<g id="node6" class="node"><title>Category</title>
<ellipse fill="#fb6a4a" stroke="black" cx="190.242" cy="-218" rx="44.2946" ry="18"/>
<text text-anchor="middle" x="190.242" y="-214.3" font-family="Times,serif" font-size="14.00">Category</text>
</g>
<!-- Category&#45;&gt;Usecase -->
<g id="edge1" class="edge"><title>Category&#45;&gt;Usecase</title>
<path fill="none" stroke="black" d="M185.539,-199.93C180.614,-182.052 172.921,-154.131 167.982,-136.203"/>
</g>
<!-- Category&#45;&gt;Role -->
<g id="edge5" class="edge"><title>Category&#45;&gt;Role</title>
<path fill="none" stroke="black" d="M157.887,-205.746C132.872,-197.045 98.8053,-185.196 76.1975,-177.332"/>
</g>
<!-- Category&#45;&gt;View -->
<g id="edge8" class="edge"><title>Category&#45;&gt;View</title>
<path fill="none" stroke="black" d="M200.743,-200.339C214.767,-175.74 235.32,-129.444 212.242,-100 200.499,-85.018 149.349,-76.3069 115.939,-72.1164"/>
</g>
</g>
</svg>
