<?xml version="1.0" encoding="UTF-8" standalone="no"?>
<!-- Created with Inkscape (http://www.inkscape.org/) -->

<svg
   xmlns:dc="http://purl.org/dc/elements/1.1/"
   xmlns:cc="http://creativecommons.org/ns#"
   xmlns:rdf="http://www.w3.org/1999/02/22-rdf-syntax-ns#"
   xmlns:svg="http://www.w3.org/2000/svg"
   xmlns="http://www.w3.org/2000/svg"
   xmlns:xlink="http://www.w3.org/1999/xlink"
   xmlns:sodipodi="http://sodipodi.sourceforge.net/DTD/sodipodi-0.dtd"
   xmlns:inkscape="http://www.inkscape.org/namespaces/inkscape"
   id="svg1256"
   sodipodi:docname="address-book.svg"
   viewBox="0 0 43.364538 42.218954"
   sodipodi:version="0.32"
   inkscape:output_extension="org.inkscape.output.svg.inkscape"
   inkscape:version="0.48.5 r10040"
   version="1.1"
   width="100%"
   height="100%">
  <defs
     id="defs3">
    <radialGradient
       id="radialGradient6719"
       xlink:href="#linearGradient5060"
       gradientUnits="userSpaceOnUse"
       cy="486.64999"
       cx="605.71002"
       gradientTransform="matrix(-2.7744,0,0,1.9697,112.76,-872.89)"
       r="117.14"
       inkscape:collect="always" />
    <linearGradient
       id="linearGradient5060"
       inkscape:collect="always">
      <stop
         id="stop5062"
         style="stop-color:black"
         offset="0" />
      <stop
         id="stop5064"
         style="stop-color:black;stop-opacity:0"
         offset="1" />
    </linearGradient>
    <radialGradient
       id="radialGradient6717"
       xlink:href="#linearGradient5060"
       gradientUnits="userSpaceOnUse"
       cy="486.64999"
       cx="605.71002"
       gradientTransform="matrix(2.7744,0,0,1.9697,-1891.6,-872.89)"
       r="117.14"
       inkscape:collect="always" />
    <linearGradient
       id="linearGradient6715"
       y2="609.51001"
       gradientUnits="userSpaceOnUse"
       x2="302.85999"
       gradientTransform="matrix(2.7744,0,0,1.9697,-1892.2,-872.89)"
       y1="366.64999"
       x1="302.85999"
       inkscape:collect="always">
      <stop
         id="stop5050"
         style="stop-color:black;stop-opacity:0"
         offset="0" />
      <stop
         id="stop5056"
         style="stop-color:black"
         offset=".5" />
      <stop
         id="stop5052"
         style="stop-color:black;stop-opacity:0"
         offset="1" />
    </linearGradient>
    <linearGradient
       id="linearGradient2801"
       y2="4.9530001"
       gradientUnits="userSpaceOnUse"
       y1="4.9530001"
       gradientTransform="matrix(0.254,0,0,3.7598,0.78863,0.14857)"
       x2="41.219002"
       x1="35.432999"
       inkscape:collect="always">
      <stop
         id="stop2797"
         style="stop-color:#000000;stop-opacity:.068627"
         offset="0" />
      <stop
         id="stop2799"
         style="stop-color:#ffffff"
         offset="1" />
    </linearGradient>
    <linearGradient
       id="linearGradient2813"
       y2="84.287003"
       gradientUnits="userSpaceOnUse"
       y1="93.337997"
       gradientTransform="matrix(2.2627,0,0,0.44194,1,-0.875)"
       x2="10.22"
       x1="10.496"
       inkscape:collect="always">
      <stop
         id="stop2805"
         style="stop-color:#ffffff"
         offset="0" />
      <stop
         id="stop2807"
         style="stop-color:#cbcbcb"
         offset="1" />
    </linearGradient>
    <linearGradient
       id="linearGradient2100"
       y2="22.132999"
       gradientUnits="userSpaceOnUse"
       x2="14.511"
       gradientTransform="matrix(0.95775,0,0,1.028,1,-0.57191)"
       y1="22.132999"
       x1="6.5872002"
       inkscape:collect="always">
      <stop
         id="stop2096"
         style="stop-color:#d6e3f0"
         offset="0" />
      <stop
         id="stop2098"
         style="stop-color:#95b1cf"
         offset="1" />
    </linearGradient>
    <linearGradient
       id="linearGradient2112"
       y2="21.27"
       gradientUnits="userSpaceOnUse"
       x2="-2.7583001"
       gradientTransform="matrix(1.0254,0,0,0.9573,0,-0.80676)"
       y1="26.652"
       x1="73.362"
       inkscape:collect="always">
      <stop
         id="stop2118"
         style="stop-color:#ffffff"
         offset="0" />
      <stop
         id="stop2120"
         style="stop-color:#ffffff;stop-opacity:0"
         offset="1" />
    </linearGradient>
  </defs>
  <sodipodi:namedview
     id="base"
     bordercolor="#666666"
     inkscape:pageshadow="2"
     inkscape:window-y="30"
     pagecolor="#ffffff"
     inkscape:window-height="688"
     inkscape:grid-bbox="true"
     inkscape:zoom="11.031559"
     inkscape:window-x="80"
     stroke="#cc0000"
     showgrid="false"
     borderopacity="0.27843137"
     inkscape:current-layer="layer1"
     inkscape:cx="20.920707"
     inkscape:cy="19.556698"
     inkscape:showpageshadow="false"
     inkscape:window-width="872"
     inkscape:pageopacity="0.0"
     inkscape:document-units="px"
     fill="#ef2929"
     fit-margin-top="0"
     fit-margin-left="0"
     fit-margin-right="0"
     fit-margin-bottom="0"
     inkscape:window-maximized="0" />
  <g
     id="layer1"
     inkscape:label="Layer 1"
     inkscape:groupmode="layer"
     transform="translate(-4.2716649,-1.9590976)">
    <path
       id="path21630"
       sodipodi:nodetypes="ccccccc"
       style="color:#000000;fill:#edd400;fill-rule:evenodd;stroke:#c4a000;stroke-linecap:round;stroke-linejoin:round"
       d="m 33.096,4.652 h 7.425 c 0.707,0 1.238,0.1768 1.414,1.0607 l 0.884,6.8943 c 0.089,1.061 -0.375,1.414 -1.326,1.414 H 32.92 l 0.176,-9.369 z"
       inkscape:connector-curvature="0" />
    <path
       id="path21632"
       sodipodi:nodetypes="ccccccc"
       style="opacity:0.48537999;color:#000000;fill:none;stroke:#ffffff;stroke-linecap:round;stroke-linejoin:round"
       d="m 34.103,5.6389 h 6.361 c 0.308,0 0.476,0.0301 0.522,0.3216 l 0.791,6.3835 c 0.07,0.431 0.183,0.676 -0.14,0.69 h -7.674 l 0.14,-7.3951 z"
       inkscape:connector-curvature="0" />
    <path
       id="path21634"
       sodipodi:nodetypes="ccccccc"
       style="color:#000000;fill:#9db029;fill-rule:evenodd;stroke:#727e0a;stroke-linecap:round;stroke-linejoin:round"
       d="m 35.596,12.402 h 7.425 c 0.707,0 1.238,0.177 1.414,1.061 l 0.884,6.894 c 0.089,1.061 -0.375,1.414 -1.326,1.414 H 35.42 l 0.176,-9.369 z"
       inkscape:connector-curvature="0" />
    <path
       id="path21636"
       sodipodi:nodetypes="ccccccc"
       style="opacity:0.48537999;color:#000000;fill:none;stroke:#ffffff;stroke-linecap:round;stroke-linejoin:round"
       d="m 36.603,13.389 h 6.361 c 0.308,0 0.476,0.03 0.522,0.321 l 0.791,6.384 c 0.07,0.431 0.183,0.676 -0.14,0.69 h -7.674 l 0.14,-7.395 z"
       inkscape:connector-curvature="0" />
    <path
       id="path21638"
       sodipodi:nodetypes="ccccccc"
       style="color:#000000;fill:#ef2929;fill-rule:evenodd;stroke:#cc0000;stroke-linecap:round;stroke-linejoin:round"
       d="m 36.065,20.776 h 8.445 c 0.804,0 1.407,0.22 1.609,1.317 l 1.005,8.556 c 0.101,1.317 -0.427,1.756 -1.508,1.756 h -9.753 l 0.202,-11.629 z"
       inkscape:connector-curvature="0" />
    <path
       id="path21640"
       sodipodi:nodetypes="ccccccc"
       style="opacity:0.48537999;color:#000000;fill:none;stroke:#ffffff;stroke-linecap:round;stroke-linejoin:round"
       d="m 37.209,21.764 h 7.235 c 0.351,0 0.543,0.038 0.595,0.409 l 0.9,8.117 c 0.079,0.548 0.208,0.859 -0.159,0.878 h -8.729 l 0.158,-9.404 z"
       inkscape:connector-curvature="0" />
    <path
       id="rect1408"
       sodipodi:nodetypes="csssccsssss"
       style="color:#000000;fill:#5b6b94;stroke:#364878;stroke-linecap:round;stroke-linejoin:round"
       d="M 6.3643,5.5186 C 6.4551,3.6036 7.372,2.5543 9.0789,2.549 l 29.327,-0.0899 c 0.246,-8e-4 0.568,0.2001 0.593,0.4499 l 3.258,32.958 -1.315,0.057 0.629,6.446 c 0.061,0.624 -0.181,1.159 -1.071,1.163 L 9.7889,43.678 C 7.2567,43.69 4.6537,41.6 4.7758,39.024 L 6.3642,5.519 z"
       inkscape:connector-curvature="0" />
    <path
       id="path2489"
       style="color:#000000;fill:url(#linearGradient2813)"
       d="M 40.125,34.875 10.938,35 c -1.557,0.178 -2.813,1.396 -2.813,3 0,1.604 1.256,2.822 2.813,3 l 29.187,0.125 v -0.063 c -1.656,-0.078 -3,-1.387 -3,-3.062 0,-1.675 1.344,-2.984 3,-3.062 v -0.063 z"
       inkscape:connector-curvature="0" />
    <path
       id="path2784"
       sodipodi:nodetypes="ccccccssc"
       style="color:#000000;fill:url(#linearGradient2100)"
       d="m 9.6875,2.8125 c -1.7069,0 -2.6374,1.009 -2.7187,2.8614 l -1.6563,32.152 c -0.092,3.078 1.8269,4.828 3.8125,5.33 -4.25,-1.63 -3.6875,-8.992 1.625,-8.961 H 41.648 L 38.336,3.2429 C 38.31,3.0024 37.988,2.8124 37.742,2.8124 H 9.688 z"
       inkscape:connector-curvature="0" />
    <rect
       id="rect2793"
       style="opacity:0.48045002;color:#000000;fill:url(#linearGradient2801)"
       transform="matrix(1,0,-0.035827,0.99936,0,0)"
       height="29.605"
       width="2"
       y="3.9684999"
       x="9.7886" />
    <path
       id="path2104"
       sodipodi:nodetypes="cccscssc"
       style="color:#000000;fill:none;stroke:url(#linearGradient2112);stroke-linecap:round;stroke-miterlimit:20"
       d="m 9.8751,3.3337 c -1.6839,0 -2.3367,0.7321 -2.4169,2.5541 l -1.2989,29.889 c 0.9333,-1.607 2.4396,-2.183 4.8527,-2.183 H 40.963 L 38.137,3.7568 C 38.115,3.5201 37.794,3.3335 37.551,3.3335 H 9.875 z"
       inkscape:connector-curvature="0" />
    <path
       id="text21625"
       style="fill:#ad7fa8"
       d="m 21.126,18.381 c -0.076,1.121 0.143,2.003 0.657,2.646 0.514,0.635 1.257,0.952 2.229,0.952 0.964,0 1.742,-0.321 2.334,-0.964 0.6,-0.643 0.937,-1.521 1.012,-2.634 0.073,-1.097 -0.151,-1.967 -0.672,-2.61 -0.521,-0.651 -1.259,-0.976 -2.216,-0.976 -0.948,0 -1.726,0.321 -2.334,0.964 -0.599,0.643 -0.936,1.517 -1.01,2.622 m 6.172,3.516 c -0.511,0.604 -1.082,1.051 -1.713,1.341 -0.622,0.282 -1.337,0.423 -2.145,0.423 -1.348,0 -2.413,-0.486 -3.194,-1.458 -0.773,-0.98 -1.107,-2.254 -1.002,-3.822 0.105,-1.568 0.614,-2.841 1.527,-3.821 0.912,-0.98 2.038,-1.47 3.379,-1.47 0.807,0 1.507,0.149 2.098,0.447 0.592,0.29 1.099,0.733 1.522,1.329 l 0.103,-1.541 h 1.682 l -0.581,8.654 c 1.156,-0.172 2.085,-0.693 2.786,-1.563 0.709,-0.878 1.111,-2.011 1.204,-3.399 0.056,-0.838 -0.016,-1.626 -0.218,-2.363 -0.193,-0.737 -0.52,-1.419 -0.98,-2.046 -0.746,-1.027 -1.689,-1.811 -2.828,-2.352 -1.132,-0.5485 -2.387,-0.8229 -3.767,-0.8229 -0.964,0 -1.898,0.1293 -2.801,0.388 -0.902,0.2509 -1.747,0.6269 -2.533,1.1289 -1.284,0.8 -2.319,1.85 -3.104,3.151 -0.777,1.294 -1.216,2.697 -1.317,4.21 -0.084,1.246 0.061,2.414 0.435,3.504 0.381,1.089 0.971,2.05 1.77,2.881 0.768,0.815 1.679,1.434 2.733,1.857 1.052,0.432 2.194,0.647 3.425,0.647 1.011,0 2.014,-0.172 3.01,-0.517 1.002,-0.337 1.932,-0.823 2.79,-1.458 l 0.971,1.305 c -1.031,0.76 -2.14,1.34 -3.327,1.74 -1.18,0.408 -2.365,0.612 -3.557,0.612 -1.45,0 -2.801,-0.259 -4.052,-0.776 -1.251,-0.51 -2.345,-1.255 -3.283,-2.235 -0.938,-0.979 -1.626,-2.112 -2.065,-3.398 -0.438,-1.293 -0.608,-2.681 -0.508,-4.162 0.095,-1.427 0.453,-2.787 1.073,-4.08 0.62,-1.294 1.457,-2.431 2.51,-3.41 1.078,-0.996 2.297,-1.7563 3.657,-2.2816 1.361,-0.533 2.782,-0.7995 4.263,-0.7995 1.662,0 3.18,0.341 4.553,1.0229 1.381,0.6821 2.511,1.6502 3.391,2.9042 0.537,0.768 0.927,1.603 1.173,2.505 0.253,0.901 0.347,1.834 0.282,2.798 -0.138,2.062 -0.871,3.689 -2.197,4.88 -1.326,1.192 -3.089,1.811 -5.287,1.858 l 0.122,-1.811"
       inkscape:connector-curvature="0" />
  </g>
  <metadata
     id="metadata43">
    <rdf:RDF>
      <cc:Work>
        <dc:format>image/svg+xml</dc:format>
        <dc:type
           rdf:resource="http://purl.org/dc/dcmitype/StillImage" />
        <cc:license
           rdf:resource="http://creativecommons.org/licenses/publicdomain/" />
        <dc:publisher>
          <cc:Agent
             rdf:about="http://openclipart.org/">
            <dc:title>Openclipart</dc:title>
          </cc:Agent>
        </dc:publisher>
        <dc:title>tango x office address book</dc:title>
        <dc:date>2010-04-03T11:46:29</dc:date>
        <dc:description>An icon from Tango Project. Since version 0.8.90 Tango Project icons are Public Domain.</dc:description>
        <dc:source>https://openclipart.org/detail/36469/tango-x-office-address-book-by-warszawianka</dc:source>
        <dc:creator>
          <cc:Agent>
            <dc:title>warszawianka</dc:title>
          </cc:Agent>
        </dc:creator>
        <dc:subject>
          <rdf:Bag>
            <rdf:li>externalsource</rdf:li>
            <rdf:li>icon</rdf:li>
            <rdf:li>tango</rdf:li>
          </rdf:Bag>
        </dc:subject>
      </cc:Work>
      <cc:License
         rdf:about="http://creativecommons.org/licenses/publicdomain/">
        <cc:permits
           rdf:resource="http://creativecommons.org/ns#Reproduction" />
        <cc:permits
           rdf:resource="http://creativecommons.org/ns#Distribution" />
        <cc:permits
           rdf:resource="http://creativecommons.org/ns#DerivativeWorks" />
      </cc:License>
    </rdf:RDF>
  </metadata>
</svg>
