<?xml version="1.0" encoding="UTF-8" standalone="no"?>
<!-- Created with Inkscape (http://www.inkscape.org/) -->

<svg
   xmlns:dc="http://purl.org/dc/elements/1.1/"
   xmlns:cc="http://creativecommons.org/ns#"
   xmlns:rdf="http://www.w3.org/1999/02/22-rdf-syntax-ns#"
   xmlns:svg="http://www.w3.org/2000/svg"
   xmlns="http://www.w3.org/2000/svg"
   xmlns:xlink="http://www.w3.org/1999/xlink"
   xmlns:sodipodi="http://sodipodi.sourceforge.net/DTD/sodipodi-0.dtd"
   xmlns:inkscape="http://www.inkscape.org/namespaces/inkscape"
   id="svg2"
   sodipodi:docname="new.svg"
   inkscape:export-filename="new.png"
   viewBox="0 0 38.723987 37.984699"
   inkscape:export-xdpi="28.432501"
   version="1.1"
   inkscape:export-ydpi="28.432501"
   inkscape:version="0.48.2 r9819"
   width="100%"
   height="100%">
  <defs
     id="defs4">
    <linearGradient
       id="linearGradient3669">
      <stop
         id="stop3671"
         style="stop-color:#ffd73b"
         offset="0" />
      <stop
         id="stop3673"
         style="stop-color:#ee8400"
         offset="1" />
    </linearGradient>
    <linearGradient
       id="linearGradient3613-4-2">
      <stop
         id="stop3615-96-7"
         style="stop-color:#ff5959"
         offset="0" />
      <stop
         id="stop3617-6-3"
         style="stop-color:#d90000"
         offset="1" />
    </linearGradient>
    <linearGradient
       id="linearGradient2868">
      <stop
         id="stop2870"
         style="stop-color:#d700d7"
         offset="0" />
      <stop
         id="stop2872"
         style="stop-color:#6e006e"
         offset="1" />
    </linearGradient>
    <linearGradient
       id="linearGradient3138"
       y2="1017.5"
       xlink:href="#linearGradient2868"
       gradientUnits="userSpaceOnUse"
       x2="29.745001"
       gradientTransform="matrix(1.2138938,0,0,1.41,-4.5785298,-423.89)"
       y1="1021.5"
       x1="31.031"
       inkscape:collect="always" />
    <linearGradient
       id="linearGradient3140"
       y2="1022.7"
       xlink:href="#linearGradient2868"
       gradientUnits="userSpaceOnUse"
       x2="31.85"
       gradientTransform="matrix(1.1595673,0,0,1.41,-3.1210258,-423.89)"
       y1="1028.3"
       x1="34.042999"
       inkscape:collect="always" />
    <linearGradient
       id="linearGradient3142"
       y2="1032.7"
       xlink:href="#linearGradient2868"
       gradientUnits="userSpaceOnUse"
       x2="28.896"
       gradientTransform="matrix(1.41,0,0,1.41,-9.4077,-423.89)"
       y1="1031.5"
       x1="24.716999"
       inkscape:collect="always" />
    <linearGradient
       id="linearGradient3144"
       y2="1038.9"
       xlink:href="#linearGradient2868"
       gradientUnits="userSpaceOnUse"
       x2="27.853001"
       gradientTransform="matrix(1.41,0,0,1.41,-9.4077,-423.89)"
       y1="1038.8"
       x1="30.259001"
       inkscape:collect="always" />
    <linearGradient
       id="linearGradient3146"
       y2="1031.3"
       xlink:href="#linearGradient2868"
       gradientUnits="userSpaceOnUse"
       x2="19.42"
       gradientTransform="matrix(1.41,0,0,1.41,-9.4077,-423.89)"
       y1="1035.3"
       x1="21.495001"
       inkscape:collect="always" />
    <linearGradient
       id="linearGradient3148"
       y2="1027.9"
       xlink:href="#linearGradient2868"
       gradientUnits="userSpaceOnUse"
       x2="13.7"
       gradientTransform="matrix(1.41,0,0,1.41,-9.4077,-423.89)"
       y1="1034.4"
       x1="14.662"
       inkscape:collect="always" />
    <linearGradient
       id="linearGradient3150"
       y2="1023.2"
       xlink:href="#linearGradient2868"
       gradientUnits="userSpaceOnUse"
       x2="14.359"
       gradientTransform="matrix(1.41,0,0,1.41,-9.4077,-423.89)"
       y1="1025.9"
       x1="14.359"
       inkscape:collect="always" />
    <linearGradient
       id="linearGradient3152"
       y2="1017.6"
       xlink:href="#linearGradient2868"
       gradientUnits="userSpaceOnUse"
       x2="14.845"
       gradientTransform="matrix(1.41,0,0,1.41,-9.4077,-423.89)"
       y1="1021.2"
       x1="14.845"
       inkscape:collect="always" />
    <linearGradient
       id="linearGradient3154"
       y2="1016.1"
       xlink:href="#linearGradient2868"
       gradientUnits="userSpaceOnUse"
       x2="22.115"
       gradientTransform="matrix(1.41,0,0,1.41,-9.4077,-423.89)"
       y1="1018.5"
       x1="23.763"
       inkscape:collect="always" />
    <linearGradient
       id="linearGradient3156"
       y2="1016"
       xlink:href="#linearGradient3669"
       gradientUnits="userSpaceOnUse"
       x2="9.4013004"
       gradientTransform="matrix(0.9478,0.40163,-0.40163,0.9478,405.37,41.419)"
       y1="1020.1"
       x1="11.904"
       inkscape:collect="always" />
    <linearGradient
       id="linearGradient3158"
       y2="1024.9"
       xlink:href="#linearGradient3669"
       gradientUnits="userSpaceOnUse"
       x2="8.7776003"
       gradientTransform="matrix(1.3271,-0.12629,0.12629,1.3271,-138.71,-337.27)"
       y1="1029.7"
       x1="11.281"
       inkscape:collect="always" />
    <linearGradient
       id="linearGradient3160"
       y2="1035.5"
       xlink:href="#linearGradient3669"
       gradientUnits="userSpaceOnUse"
       x2="9.1058998"
       gradientTransform="matrix(1.5666,0.48534,-0.48534,1.5666,492.78,-593.26)"
       y1="1039"
       x1="12.944"
       inkscape:collect="always" />
    <linearGradient
       id="linearGradient3162"
       y2="1035.9"
       xlink:href="#linearGradient3669"
       gradientUnits="userSpaceOnUse"
       x2="18.913"
       gradientTransform="matrix(1.0332,-0.42625,0.42625,1.0332,-444.42,-25.704)"
       y1="1039.6"
       x1="21.416"
       inkscape:collect="always" />
    <linearGradient
       id="linearGradient3164"
       y2="1031.3"
       gradientUnits="userSpaceOnUse"
       x2="26.086"
       gradientTransform="matrix(1.0916,0.24019,-0.24019,1.0916,247.63,-100.39)"
       y1="1035.3"
       x1="27.437"
       inkscape:collect="always">
      <stop
         id="stop3671-3"
         style="stop-color:#ffd73b"
         offset="0" />
      <stop
         id="stop3673-7"
         style="stop-color:#ee8400"
         offset="1" />
    </linearGradient>
    <linearGradient
       id="linearGradient3166"
       y2="1023.7"
       xlink:href="#linearGradient3669"
       gradientUnits="userSpaceOnUse"
       x2="28.061001"
       gradientTransform="matrix(1.1373,-0.24736,0.24736,1.1373,-255.93,-135.74)"
       y1="1031.1"
       x1="30.563999"
       inkscape:collect="always" />
    <linearGradient
       id="linearGradient3168"
       y2="1020.1"
       xlink:href="#linearGradient3669"
       gradientUnits="userSpaceOnUse"
       x2="30.868"
       gradientTransform="matrix(1.3987,0.17792,-0.17792,1.3987,173.09,-418.29)"
       y1="1023.6"
       x1="33.370998"
       inkscape:collect="always" />
    <linearGradient
       id="linearGradient3170"
       y2="1011.8"
       xlink:href="#linearGradient3669"
       gradientUnits="userSpaceOnUse"
       x2="23.296"
       gradientTransform="matrix(0.68939,0.13405,-0.13405,0.68939,145.83,306)"
       y1="1016.6"
       x1="27.393999"
       inkscape:collect="always" />
    <linearGradient
       id="linearGradient3172"
       y2="1013.5"
       xlink:href="#linearGradient3669"
       gradientUnits="userSpaceOnUse"
       x2="16.330999"
       gradientTransform="matrix(1.2309,-0.15652,0.15652,1.2309,-165.41,-238.48)"
       y1="1020.9"
       x1="20.160999"
       inkscape:collect="always" />
    <linearGradient
       id="linearGradient3174"
       y2="1020.8"
       xlink:href="#linearGradient3613-4-2"
       gradientUnits="userSpaceOnUse"
       x2="14.046"
       gradientTransform="matrix(1.41,0,0,1.41,-9.4077,-423.89)"
       y1="1024.6"
       x1="14.046"
       inkscape:collect="always" />
    <linearGradient
       id="linearGradient3176"
       y2="1025.1"
       xlink:href="#linearGradient3613-4-2"
       gradientUnits="userSpaceOnUse"
       x2="17.257"
       gradientTransform="matrix(1.41,0,0,1.41,-9.4077,-423.89)"
       y1="1027.2"
       x1="17.257"
       inkscape:collect="always" />
    <linearGradient
       id="linearGradient3178"
       y2="1029.1"
       xlink:href="#linearGradient3613-4-2"
       gradientUnits="userSpaceOnUse"
       x2="18.051001"
       gradientTransform="matrix(1.41,0,0,1.41,-9.4077,-423.89)"
       y1="1030.7"
       x1="19.525999"
       inkscape:collect="always" />
    <linearGradient
       id="linearGradient3180"
       y2="1029.6"
       xlink:href="#linearGradient3613-4-2"
       gradientUnits="userSpaceOnUse"
       x2="24.023001"
       gradientTransform="matrix(1.41,0,0,1.41,-9.4077,-423.89)"
       y1="1033.1"
       x1="24.023001"
       inkscape:collect="always" />
    <linearGradient
       id="linearGradient3182"
       y2="1025.5"
       xlink:href="#linearGradient3613-4-2"
       gradientUnits="userSpaceOnUse"
       x2="25.768"
       gradientTransform="matrix(1.41,0,0,1.41,-9.4077,-423.89)"
       y1="1027.8"
       x1="27.736"
       inkscape:collect="always" />
    <linearGradient
       id="linearGradient3184"
       y2="1021.1"
       xlink:href="#linearGradient3613-4-2"
       gradientUnits="userSpaceOnUse"
       x2="27.1"
       gradientTransform="matrix(1.41,0,0,1.41,-9.4077,-423.89)"
       y1="1025.4"
       x1="28.287001"
       inkscape:collect="always" />
    <linearGradient
       id="linearGradient3186"
       y2="1019.3"
       xlink:href="#linearGradient3613-4-2"
       gradientUnits="userSpaceOnUse"
       x2="25.159"
       gradientTransform="matrix(1.41,0,0,1.41,-9.4077,-423.89)"
       y1="1020.6"
       x1="25.159"
       inkscape:collect="always" />
    <linearGradient
       id="linearGradient3188"
       y2="1019.3"
       xlink:href="#linearGradient3613-4-2"
       gradientUnits="userSpaceOnUse"
       x2="20.839001"
       gradientTransform="matrix(1.41,0,0,1.41,-9.4077,-423.89)"
       y1="1021.3"
       x1="20.046"
       inkscape:collect="always" />
    <filter
       id="filter4178"
       height="1.3414"
       width="1.3945"
       y="-0.17069"
       x="-0.19724999"
       inkscape:collect="always"
       color-interpolation-filters="sRGB">
      <feGaussianBlur
         id="feGaussianBlur4180"
         stdDeviation="0.096114893"
         inkscape:collect="always" />
    </filter>
    <filter
       id="filter4182"
       height="1.183"
       width="1.291"
       y="-0.091504999"
       x="-0.14551"
       inkscape:collect="always"
       color-interpolation-filters="sRGB">
      <feGaussianBlur
         id="feGaussianBlur4184"
         stdDeviation="0.096114893"
         inkscape:collect="always" />
    </filter>
    <filter
       id="filter4186"
       height="1.2611001"
       width="1.3763"
       y="-0.13053"
       x="-0.18815"
       inkscape:collect="always"
       color-interpolation-filters="sRGB">
      <feGaussianBlur
         id="feGaussianBlur4188"
         stdDeviation="0.096114893"
         inkscape:collect="always" />
    </filter>
    <filter
       id="filter4190"
       height="1.2744"
       width="1.4035"
       y="-0.13721"
       x="-0.20173"
       inkscape:collect="always"
       color-interpolation-filters="sRGB">
      <feGaussianBlur
         id="feGaussianBlur4192"
         stdDeviation="0.096114893"
         inkscape:collect="always" />
    </filter>
    <filter
       id="filter4194"
       height="1.3623"
       width="1.4227"
       y="-0.18114001"
       x="-0.21133"
       inkscape:collect="always"
       color-interpolation-filters="sRGB">
      <feGaussianBlur
         id="feGaussianBlur4196"
         stdDeviation="0.096114893"
         inkscape:collect="always" />
    </filter>
    <filter
       id="filter4198"
       height="1.3228"
       width="1.3061"
       y="-0.16137999"
       x="-0.15304001"
       inkscape:collect="always"
       color-interpolation-filters="sRGB">
      <feGaussianBlur
         id="feGaussianBlur4200"
         stdDeviation="0.096114893"
         inkscape:collect="always" />
    </filter>
    <filter
       id="filter4202"
       height="1.3859"
       width="1.6339999"
       y="-0.19295999"
       x="-0.317"
       inkscape:collect="always"
       color-interpolation-filters="sRGB">
      <feGaussianBlur
         id="feGaussianBlur4204"
         stdDeviation="0.096114893"
         inkscape:collect="always" />
    </filter>
    <filter
       id="filter4206"
       height="1.1629"
       width="1.2959"
       y="-0.081432"
       x="-0.14793"
       inkscape:collect="always"
       color-interpolation-filters="sRGB">
      <feGaussianBlur
         id="feGaussianBlur4208"
         stdDeviation="0.096114893"
         inkscape:collect="always" />
    </filter>
    <filter
       id="filter4210"
       height="1.2466"
       width="1.4128"
       y="-0.12328"
       x="-0.20642"
       inkscape:collect="always"
       color-interpolation-filters="sRGB">
      <feGaussianBlur
         id="feGaussianBlur4212"
         stdDeviation="0.096114893"
         inkscape:collect="always" />
    </filter>
    <filter
       id="filter4378"
       height="1.0944"
       width="1.45"
       y="-0.047192"
       x="-0.22500999"
       inkscape:collect="always"
       color-interpolation-filters="sRGB">
      <feGaussianBlur
         id="feGaussianBlur4380"
         stdDeviation="0.18284234"
         inkscape:collect="always" />
    </filter>
    <filter
       id="filter4382"
       height="1.3731"
       width="1.6633"
       y="-0.18656"
       x="-0.33166"
       inkscape:collect="always"
       color-interpolation-filters="sRGB">
      <feGaussianBlur
         id="feGaussianBlur4384"
         stdDeviation="0.18284234"
         inkscape:collect="always" />
    </filter>
    <filter
       id="filter4386"
       height="1.2253"
       width="1.8748"
       y="-0.11264"
       x="-0.43739"
       inkscape:collect="always"
       color-interpolation-filters="sRGB">
      <feGaussianBlur
         id="feGaussianBlur4388"
         stdDeviation="0.18284234"
         inkscape:collect="always" />
    </filter>
    <filter
       id="filter4390"
       height="1.1926"
       width="1.2041"
       y="-0.096322"
       x="-0.10205"
       inkscape:collect="always"
       color-interpolation-filters="sRGB">
      <feGaussianBlur
         id="feGaussianBlur4392"
         stdDeviation="0.18284234"
         inkscape:collect="always" />
    </filter>
    <filter
       id="filter4394"
       height="1.6125"
       width="1.1681"
       y="-0.30625999"
       x="-0.084073"
       inkscape:collect="always"
       color-interpolation-filters="sRGB">
      <feGaussianBlur
         id="feGaussianBlur4396"
         stdDeviation="0.18284234"
         inkscape:collect="always" />
    </filter>
    <filter
       id="filter4398"
       height="1.6123"
       width="1.2132"
       y="-0.30614001"
       x="-0.1066"
       inkscape:collect="always"
       color-interpolation-filters="sRGB">
      <feGaussianBlur
         id="feGaussianBlur4400"
         stdDeviation="0.18284234"
         inkscape:collect="always" />
    </filter>
    <filter
       id="filter4402"
       height="1.1511"
       width="1.7915"
       y="-0.075567"
       x="-0.39574"
       inkscape:collect="always"
       color-interpolation-filters="sRGB">
      <feGaussianBlur
         id="feGaussianBlur4404"
         stdDeviation="0.18284234"
         inkscape:collect="always" />
    </filter>
    <filter
       id="filter4406"
       height="1.2539999"
       width="1.1769"
       y="-0.12702"
       x="-0.088441998"
       inkscape:collect="always"
       color-interpolation-filters="sRGB">
      <feGaussianBlur
         id="feGaussianBlur4408"
         stdDeviation="0.18284234"
         inkscape:collect="always" />
    </filter>
    <filter
       id="filter4410"
       height="1.4989001"
       width="1.1695"
       y="-0.24946"
       x="-0.084729999"
       inkscape:collect="always"
       color-interpolation-filters="sRGB">
      <feGaussianBlur
         id="feGaussianBlur4412"
         stdDeviation="0.18284234"
         inkscape:collect="always" />
    </filter>
    <filter
       id="filter4464"
       height="1.3078001"
       width="1.2877001"
       y="-0.15389"
       x="-0.14385"
       inkscape:collect="always"
       color-interpolation-filters="sRGB">
      <feGaussianBlur
         id="feGaussianBlur4466"
         stdDeviation="0.13313786"
         inkscape:collect="always" />
    </filter>
    <filter
       id="filter4468"
       height="1.9188"
       width="1.3049999"
       y="-0.45941001"
       x="-0.15252"
       inkscape:collect="always"
       color-interpolation-filters="sRGB">
      <feGaussianBlur
         id="feGaussianBlur4470"
         stdDeviation="0.13313786"
         inkscape:collect="always" />
    </filter>
    <filter
       id="filter4472"
       height="1.3272001"
       width="2.3842001"
       y="-0.16358"
       x="-0.69211"
       inkscape:collect="always"
       color-interpolation-filters="sRGB">
      <feGaussianBlur
         id="feGaussianBlur4474"
         stdDeviation="0.13313786"
         inkscape:collect="always" />
    </filter>
    <filter
       id="filter4476"
       height="1.3211"
       width="1.4576"
       y="-0.16054"
       x="-0.22879"
       inkscape:collect="always"
       color-interpolation-filters="sRGB">
      <feGaussianBlur
         id="feGaussianBlur4478"
         stdDeviation="0.13313786"
         inkscape:collect="always" />
    </filter>
    <filter
       id="filter4480"
       height="1.6677999"
       width="1.414"
       y="-0.3339"
       x="-0.207"
       inkscape:collect="always"
       color-interpolation-filters="sRGB">
      <feGaussianBlur
         id="feGaussianBlur4482"
         stdDeviation="0.13313786"
         inkscape:collect="always" />
    </filter>
    <filter
       id="filter4484"
       height="1.7836"
       width="1.3105"
       y="-0.39179999"
       x="-0.15525"
       inkscape:collect="always"
       color-interpolation-filters="sRGB">
      <feGaussianBlur
         id="feGaussianBlur4486"
         stdDeviation="0.13313786"
         inkscape:collect="always" />
    </filter>
    <filter
       id="filter4488"
       height="1.3864"
       width="1.756"
       y="-0.19320001"
       x="-0.37799999"
       inkscape:collect="always"
       color-interpolation-filters="sRGB">
      <feGaussianBlur
         id="feGaussianBlur4490"
         stdDeviation="0.13313786"
         inkscape:collect="always" />
    </filter>
    <filter
       id="filter4492"
       height="1.4015"
       width="1.8171"
       y="-0.20074999"
       x="-0.40856999"
       inkscape:collect="always"
       color-interpolation-filters="sRGB">
      <feGaussianBlur
         id="feGaussianBlur4494"
         stdDeviation="0.13313786"
         inkscape:collect="always" />
    </filter>
    <filter
       id="filter3759"
       height="3.194"
       width="1.4559"
       y="-1.097"
       x="-0.22795001"
       inkscape:collect="always"
       color-interpolation-filters="sRGB">
      <feGaussianBlur
         id="feGaussianBlur3761"
         stdDeviation="1.6127366"
         inkscape:collect="always" />
    </filter>
  </defs>
  <sodipodi:namedview
     id="base"
     bordercolor="#666666"
     inkscape:pageshadow="2"
     inkscape:window-y="11"
     pagecolor="#ffffff"
     inkscape:window-height="756"
     inkscape:window-maximized="0"
     inkscape:zoom="11.541667"
     inkscape:window-x="119"
     showgrid="false"
     borderopacity="1.0"
     inkscape:current-layer="layer1"
     inkscape:cx="21.090187"
     inkscape:cy="14.900699"
     inkscape:window-width="1182"
     inkscape:pageopacity="0.0"
     inkscape:document-units="px"
     fit-margin-top="0"
     fit-margin-left="0"
     fit-margin-right="0"
     fit-margin-bottom="0">
    <inkscape:grid
       id="grid2837"
       enabled="true"
       visible="true"
       snapvisiblegridlinesonly="true"
       type="xygrid"
       empspacing="5" />
  </sodipodi:namedview>
  <g
     id="layer1"
     inkscape:label="Layer 1"
     inkscape:groupmode="layer"
     transform="translate(-2.9098127,-1005.316)">
    <path
       id="path4232"
       sodipodi:nodetypes="cccc"
       style="color:#000000;fill:#ffffff;filter:url(#filter4398)"
       transform="matrix(1.41,0,0,1.41,-9.4077,992.28)"
       d="m 14.738,14.187 c -1.1074,-0.75037 -2.5334,-0.68723 -4.1164,-0.77182 1.4723,0.29777 2.5372,0.71794 3.8224,1.4334 -1.7378,-1.0073 -0.62688,-0.94073 0.29403,-0.66156 z"
       inkscape:connector-curvature="0" />
    <path
       id="path2909"
       sodipodi:nodetypes="csccccc"
       style="text-indent:0;text-transform:none;block-progression:tb;color:#000000;fill:url(#linearGradient3140)"
       d="m 25.987979,1023.5 c 3.695565,-2.4874 6.682561,-1.9245 9.19101,-1.076 2.508859,0.8484 4.809984,2.3877 6.379758,6.7781 l 0.06415,-0.1 c 0.220581,-4.6279 -2.945794,-7.9325 -5.862147,-8.9186 -3.722787,-0.9983 -7.735876,-0.1026 -9.755991,3.3408 l -0.01687,-0.014 z"
       inkscape:connector-curvature="0" />
    <path
       id="path2911"
       sodipodi:nodetypes="ccccccc"
       style="text-indent:0;text-transform:none;block-progression:tb;color:#000000;fill:url(#linearGradient3138)"
       d="m 25.313992,1018.6 0.196582,0.1395 c 2.537812,-1.644 4.433122,-3.6354 7.124781,-3.909 3.013728,-0.025 6.422187,2.2693 8.061891,5.3943 l 0.169859,-0.083 c -1.913734,-3.982 -4.320774,-7.4018 -8.421496,-7.4466 -3.999565,0.6615 -5.077003,3.4235 -7.131669,5.905 z"
       inkscape:connector-curvature="0" />
    <path
       id="path2913"
       sodipodi:nodetypes="ccccc"
       style="text-indent:0;text-transform:none;block-progression:tb;color:#000000;fill:url(#linearGradient3154)"
       d="m 23.769,1018.9 -0.04103,0.031 c -0.70669,-5.6869 0.21564,-10.189 2.6878,-13.615 l -0.09561,0.019 c -5.1081,3.6248 -5.2527,8.3967 -2.5512,13.566 z"
       inkscape:connector-curvature="0" />
    <path
       id="path2915"
       sodipodi:nodetypes="ccccc"
       style="text-indent:0;text-transform:none;block-progression:tb;color:#000000;fill:url(#linearGradient3152)"
       d="m 4.7625,1011.2 0.062083,-0.1887 c 7.8316,-0.1723 13.097,3.4612 13.439,9.9141 l 0.02105,-0.052 c -3.1461,-3.8456 -5.1058,-7.575 -13.522,-9.6734 z"
       inkscape:connector-curvature="0" />
    <path
       id="path2917"
       sodipodi:nodetypes="cccccc"
       style="text-indent:0;text-transform:none;block-progression:tb;color:#000000;fill:url(#linearGradient3150)"
       d="m 11.478,1021.3 c -2.2765,0.1396 -4.7678,0.9852 -7.4907,2.8641 h 0.067614 c 5.3366,-1.6737 9.1224,-2.1017 13.434,-1.366 l 0.2023,-0.093 c -1.8966,-0.9653 -3.9363,-1.5489 -6.2129,-1.41 z"
       inkscape:connector-curvature="0" />
    <path
       id="path2919"
       sodipodi:nodetypes="ccccc"
       style="text-indent:0;text-transform:none;block-progression:tb;color:#000000;fill:url(#linearGradient3146)"
       d="m 22.299,1027.8 c -2.6161,1.5606 -3.6678,5.5226 -1.9723,11.353 l 0.06262,-0.3109 c 0.55882,-6.1846 1.261,-8.7187 1.8842,-11.104 l 0.02551,0.062 z"
       inkscape:connector-curvature="0" />
    <path
       id="path2921"
       sodipodi:nodetypes="ccccc"
       style="text-indent:0;text-transform:none;block-progression:tb;color:#000000;fill:url(#linearGradient3148)"
       d="m 18.704,1025.4 c -8.3684,0.5449 -12.159,6.7098 -11.897,11.985 l 0.062619,-0.1026 c 3.3167,-6.0166 4.755,-8.6757 11.7,-11.715 l 0.13469,-0.1662 z"
       inkscape:connector-curvature="0" />
    <path
       id="path2923"
       sodipodi:nodetypes="ccccc"
       style="text-indent:0;text-transform:none;block-progression:tb;color:#000000;fill:url(#linearGradient3174)"
       d="m 10.397,1017.5 0.02577,0.1297 c 1.6492,0.8228 3.5738,1.4076 5.4871,3.1619 l 0.02105,-0.089 c -1.158,-3.2652 -2.4711,-3.532 -5.5339,-3.2035 z"
       inkscape:connector-curvature="0" />
    <path
       id="path2925"
       sodipodi:nodetypes="ccccc"
       style="text-indent:0;text-transform:none;block-progression:tb;color:#000000;fill:url(#linearGradient3188)"
       d="m 18.935,1013.3 -0.07814,0.1142 c 0.14004,1.6026 1.3987,3.5366 1.8842,5.6867 l 0.16627,-0.052 c 0.42064,-1.8591 0.27202,-4.0398 -1.9723,-5.749 z"
       inkscape:connector-curvature="0" />
    <path
       id="path4430"
       sodipodi:nodetypes="cccc"
       style="color:#000000;fill:#ffffff;fill-opacity:0.78570999;filter:url(#filter4488)"
       transform="matrix(1.41,0,0,1.41,-9.4077,992.28)"
       d="m 20.214,15.51 0.66156,1.6539 c -0.15961,-0.50747 -0.1457,-0.87614 0.18377,-0.99234 L 20.214,15.51 z"
       inkscape:connector-curvature="0" />
    <path
       id="path2927"
       sodipodi:nodetypes="ccccc"
       style="text-indent:0;text-transform:none;block-progression:tb;color:#000000;fill:url(#linearGradient3186)"
       d="m 27.05,1013.3 c -1.3301,0.3766 -2.2006,0.9159 -1.9723,3.6259 l 0.12996,0.027 c 0.66679,-1.1164 1.4608,-2.052 1.8842,-3.5689 l -0.04184,-0.083 z"
       inkscape:connector-curvature="0" />
    <path
       id="path2929"
       sodipodi:nodetypes="ccscccc"
       style="text-indent:0;text-transform:none;block-progression:tb;color:#000000;fill:url(#linearGradient3184)"
       d="m 25.64,1021.9 0.09366,-0.056 c 1.212,-1.3876 2.3478,-1.9323 3.2371,-2.3771 0.88936,-0.4447 2.4521,-1.2409 2.9079,-0.7855 l 0.08839,-0.1396 c -1.3971,-0.9949 -1.9526,-1.121 -3.6132,-0.308 -1.6483,1.0976 -2.2475,1.8192 -2.7139,3.6665 z"
       inkscape:connector-curvature="0" />
    <path
       id="path2931"
       sodipodi:nodetypes="cccccc"
       style="text-indent:0;text-transform:none;block-progression:tb;color:#000000;fill:url(#linearGradient3182)"
       d="m 26.925,1024.7 0.02768,0.1171 c 1.8151,0.065 3.8673,0.4308 5.4991,1.7449 l 0.02385,-0.107 c -0.81726,-2.4549 -3.3859,-3.2273 -5.5506,-1.7542 l -2.6e-5,3e-4 z"
       inkscape:connector-curvature="0" />
    <path
       id="path2933"
       sodipodi:nodetypes="ccccc"
       style="text-indent:0;text-transform:none;block-progression:tb;color:#000000;fill:url(#linearGradient3180)"
       d="m 24.141,1027.8 -0.14518,0.1528 c -0.03676,1.8263 -0.18431,3.3051 0.14864,4.8415 l 0.02022,-0.016 c 1.119,-1.5956 1.1125,-3.0446 -0.02365,-4.9782 z"
       inkscape:connector-curvature="0" />
    <path
       id="path2935"
       sodipodi:nodetypes="cccsccc"
       style="text-indent:0;text-transform:none;block-progression:tb;color:#000000;fill:url(#linearGradient3178)"
       d="m 17.206,1027.9 c -0.99404,0.7775 -1.0597,1.999 -1.1614,3.7374 l 0.06262,0.089 c 0.64898,-1.1412 1.1609,-2.5212 1.8842,-3.0869 0.72331,-0.5657 1.6964,-1.3113 2.2109,-1.3113 v -0.1663 c -1.1654,-0.02 -2.0373,0.1722 -2.9963,0.7382 z"
       inkscape:connector-curvature="0" />
    <path
       id="path2937"
       sodipodi:nodetypes="csccccc"
       style="text-indent:0;text-transform:none;block-progression:tb;color:#000000;fill:url(#linearGradient3176)"
       d="m 11.8,1025.6 c 0.59309,-0.4212 2.1614,-0.9293 3.0747,-1.0971 0.91343,-0.1673 1.9127,-0.4159 3.0741,-0.192 l 0.15265,0.1026 c -0.99713,-0.7968 -2.5236,-1.1266 -3.6802,-0.9139 -1.1117,0.3091 -1.8309,1.3295 -2.6739,2.0685 l 0.05266,0.031 z"
       inkscape:connector-curvature="0" />
    <path
       id="path3003"
       sodipodi:nodetypes="ccccc"
       style="text-indent:0;text-transform:none;block-progression:tb;color:#000000;fill:url(#linearGradient3142)"
       d="m 25.444,1026.6 0.03853,0.044 c 2.7364,3.1917 2.7255,7.6098 1.4593,11.272 l 0.02631,-0.1368 c 3.1133,-3.711 3.1049,-7.8094 -1.5242,-11.179 z"
       inkscape:connector-curvature="0" />
    <path
       id="path3012"
       style="fill:url(#linearGradient3156);fill-rule:evenodd"
       d="m 7.4432,1015.9 -1.2209,-1.1969 -1.7096,-0.051 0.76108,-1.5311 -0.4804,-1.6416 1.6913,0.2508 1.4127,-0.9643 0.2842,1.686 1.3535,1.0456 -1.5156,0.7914 -0.57619,1.6103 z"
       inkscape:connector-curvature="0" />
    <path
       id="path4216"
       sodipodi:nodetypes="ccc"
       style="color:#000000;fill:#ffffff;filter:url(#filter4402)"
       transform="matrix(1.41,0,0,1.41,-9.4077,992.28)"
       d="m 23.449,11.798 c -1.066,1.744 -0.788,3.776 -0.515,5.807 -0.281,-0.043 -1.433,-4.625 0.515,-5.807 z"
       inkscape:connector-curvature="0" />
    <path
       id="path3014"
       style="fill:url(#linearGradient3172);fill-rule:evenodd"
       d="m 22.637,1014.5 -1.9977,-0.5062 -1.8113,0.9844 -0.13587,-2.0563 -1.4961,-1.4184 1.9137,-0.7647 0.88674,-1.8613 1.3186,1.5838 2.0441,0.2683 -1.0988,1.7435 0.37659,2.0269 z"
       inkscape:connector-curvature="0" />
    <path
       id="path3016"
       style="fill:url(#linearGradient3168);fill-rule:evenodd"
       d="m 39.379,1023 -2.0539,-1.1251 -2.2729,0.5678 0.43546,-2.3011 -1.2425,-1.9861 2.323,-0.2969 1.505,-1.7956 1.0003,2.1176 2.1726,0.8766 -1.7048,1.6057 L 39.379,1023 z"
       inkscape:connector-curvature="0" />
    <path
       id="path3018"
       style="fill:url(#linearGradient3166);fill-rule:evenodd"
       d="m 35.635,1029 -1.9082,-0.3089 -1.6117,1.0687 -0.29586,-1.9103 -1.5144,-1.2026 1.7254,-0.8717 0.67567,-1.8119 1.3622,1.3716 1.932,0.083 -0.88348,1.7196 0.51835,1.8629 z"
       inkscape:connector-curvature="0" />
    <path
       id="path4230"
       sodipodi:nodetypes="ccc"
       style="color:#000000;fill:#ffffff;filter:url(#filter4378)"
       transform="matrix(1.41,0,0,1.41,-9.4077,992.28)"
       d="m 27.712,26.205 c 1.2807,1.5536 1.9211,8.1731 1.8744,9.2986 0.24554,-1.1147 -0.03693,-7.9388 -1.8744,-9.2986 z"
       inkscape:connector-curvature="0" />
    <path
       id="path3020"
       style="fill:url(#linearGradient3164);fill-rule:evenodd"
       d="m 31.283,1039.5 -1.5413,-1.0346 -1.8349,0.2864 0.50784,-1.7857 -0.83931,-1.6567 1.8551,-0.07 1.3162,-1.3101 0.6387,1.7431 1.6528,0.8469 -1.4604,1.1462 -0.29472,1.8334 z"
       inkscape:connector-curvature="0" />
    <path
       id="path3022"
       style="fill:url(#linearGradient3162);fill-rule:evenodd"
       d="m 22.887,1039.8 -1.8562,0.031 -1.3427,1.2831 -0.60291,-1.7559 -1.6351,-0.8804 1.4835,-1.116 0.33216,-1.8272 1.5198,1.0661 1.8404,-0.2487 -0.54427,1.7748 0.80522,1.6735 z"
       inkscape:connector-curvature="0" />
    <path
       id="path3024"
       style="fill:url(#linearGradient3158);fill-rule:evenodd"
       d="m 8.6533,1030.7 -2.1281,-0.6112 -1.9786,0.9957 -0.076107,-2.2129 -1.5584,-1.5741 2.081,-0.7562 1.0154,-1.9684 1.3623,1.7453 2.186,0.3576 -1.2391,1.8349 0.33557,2.1893 z"
       inkscape:connector-curvature="0" />
    <path
       id="path3026"
       style="fill:url(#linearGradient3160);fill-rule:evenodd"
       d="m 10.615,1043.3 -2.1265,-1.7026 -2.7181,0.193 0.96198,-2.5482 -1.0236,-2.5255 2.721,0.1283 2.0855,-1.754 0.71968,2.6273 2.3125,1.4414 -2.2762,1.4961 -0.65626,2.6449 z"
       inkscape:connector-curvature="0" />
    <path
       id="path3028"
       style="fill:url(#linearGradient3170);fill-rule:evenodd"
       d="m 29.509,1010.7 -0.98413,-0.6262 -1.1482,0.2081 0.29149,-1.1296 -0.55275,-1.0275 1.1643,-0.072 0.80656,-0.8432 0.42809,1.0851 1.0512,0.5066 -0.89969,0.7423 -0.15687,1.1562 z"
       inkscape:connector-curvature="0" />
    <path
       id="path3980"
       sodipodi:nodetypes="cccccc"
       style="color:#000000;fill:#ffffff;fill-opacity:0.86606996;filter:url(#filter4210)"
       transform="matrix(1.41,0,0,1.41,-9.4077,992.28)"
       d="m 11.305,13.929 c -0.10396,0 -1.0915,-0.20791 -1.0915,-0.20791 l 0.28588,0.98757 -0.31186,0.88361 0.52257,-0.77778 c -0.23111,-0.60747 0.06647,-0.83044 0.59494,-0.88549 z"
       inkscape:connector-curvature="0" />
    <path
       id="path3982"
       sodipodi:nodetypes="cccc"
       style="color:#000000;fill:#ffffff;fill-opacity:0.86606996;filter:url(#filter4178)"
       transform="matrix(1.41,0,0,1.41,-9.4077,992.28)"
       d="m 10.136,24.506 -1.1695,0.38983 1.0136,0.96158 c -0.6245,-0.766 -0.2353,-1.059 0.1559,-1.352 z"
       inkscape:connector-curvature="0" />
    <path
       id="path3984"
       sodipodi:nodetypes="cccccscc"
       style="color:#000000;fill:#ffffff;fill-opacity:0.86606996;filter:url(#filter4206)"
       transform="matrix(1.41,0,0,1.41,-9.4077,992.28)"
       d="m 20.739,12.5 -0.33785,0.62373 -1.2215,0.51977 0.88361,0.85762 0.02599,0.83164 c 0,0 0.28595,-0.90989 0.18192,-0.93559 -0.76704,-0.18946 -0.73756,-1.1606 0.31186,-1.0395 l 0.15593,-0.85762 z"
       inkscape:connector-curvature="0" />
    <path
       id="path3986"
       sodipodi:nodetypes="cccccc"
       style="color:#000000;fill:#ffffff;fill-opacity:0.86606996;filter:url(#filter4202)"
       transform="matrix(1.41,0,0,1.41,-9.4077,992.28)"
       d="m 26.794,11.33 -0.72768,0.05198 0.36384,0.49378 -0.2339,0.64972 c 0.11262,-0.24633 0.22524,-0.49661 0.33785,-0.67571 -0.32563,-0.48245 0.07179,-0.42261 0.25988,-0.51977 z"
       inkscape:connector-curvature="0" />
    <path
       id="path3988"
       sodipodi:nodetypes="cccc"
       style="color:#000000;fill:#ffffff;fill-opacity:0.86606996;filter:url(#filter4198)"
       transform="matrix(1.41,0,0,1.41,-9.4077,992.28)"
       d="m 32.642,18.269 -1.5073,0.20791 0.9096,1.2215 c -0.80424,-1.0499 0.006,-1.1772 0.59774,-1.4294 z"
       inkscape:connector-curvature="0" />
    <path
       id="path3990"
       sodipodi:nodetypes="cccc"
       style="color:#000000;fill:#ffffff;fill-opacity:0.86606996;filter:url(#filter4194)"
       transform="matrix(1.41,0,0,1.41,-9.4077,992.28)"
       d="m 29.523,23.857 -1.0915,0.49378 0.96158,0.77966 c -0.71501,-0.5137 -0.3079,-0.89538 0.12994,-1.2734 z"
       inkscape:connector-curvature="0" />
    <path
       id="path3992"
       sodipodi:nodetypes="cccccc"
       style="color:#000000;fill:#ffffff;fill-opacity:0.86606996;filter:url(#filter4182)"
       transform="matrix(1.41,0,0,1.41,-9.4077,992.28)"
       d="m 12.552,31.783 -1.5853,-0.12994 0.59774,1.6893 -0.10396,0.83164 0.38983,-0.85762 c -1.1487,-1.5864 0.11062,-1.3 0.70169,-1.5333 z"
       inkscape:connector-curvature="0" />
    <path
       id="path3994"
       sodipodi:nodetypes="ccccsc"
       style="color:#000000;fill:#ffffff;fill-opacity:0.86606996;filter:url(#filter4186)"
       transform="matrix(1.41,0,0,1.41,-9.4077,992.28)"
       d="m 20.349,31.653 -0.05198,0.28588 -1.0136,0.77966 1.1175,0.70169 c 0,0 -1.1175,-0.93559 0.07797,-1.4034 0.10823,-0.04235 -0.10395,-0.31186 -0.12994,-0.36384 z"
       inkscape:connector-curvature="0" />
    <path
       id="path3996"
       sodipodi:nodetypes="cccccc"
       style="color:#000000;fill:#ffffff;fill-opacity:0.86606996;filter:url(#filter4190)"
       transform="matrix(1.41,0,0,1.41,-9.4077,992.28)"
       d="m 27.574,30.64 c -0.10396,-0.05198 -1.1435,0.02599 -1.1435,0.02599 l 0.57175,1.0655 -0.20791,0.57175 0.36384,-0.62373 c -0.52768,-0.63206 0.01147,-0.80692 0.41582,-1.0395 z"
       inkscape:connector-curvature="0" />
    <path
       id="path4214"
       sodipodi:nodetypes="ccc"
       style="color:#000000;fill:#ffffff;filter:url(#filter4406)"
       transform="matrix(1.41,0,0,1.41,-9.4077,992.28)"
       d="m 25.25,18.119 c 2.0949,-2.5482 3.5651,-3.2956 4.9617,-3.4548 -1.7832,0.56996 -3.3692,2.0268 -4.9617,3.4548 z"
       inkscape:connector-curvature="0" />
    <path
       id="path4218"
       sodipodi:nodetypes="ccc"
       style="color:#000000;fill:#ffffff;filter:url(#filter4410)"
       transform="matrix(1.41,0,0,1.41,-9.4077,992.28)"
       d="m 25.911,21.427 c -0.03206,-0.33936 5.0818,-2.0358 5.1455,-1.6539 0.44212,-0.29475 -3.6173,-0.03867 -5.1455,1.6539 z"
       inkscape:connector-curvature="0" />
    <path
       id="path4222"
       sodipodi:nodetypes="ccc"
       style="color:#000000;fill:#ffffff;filter:url(#filter4394)"
       transform="matrix(1.41,0,0,1.41,-9.4077,992.28)"
       d="m 10.548,22.126 c 1.9788,-0.85952 3.6276,-1.1416 5.219,-1.3231 0.04332,-0.0361 -2.3879,-0.61957 -5.219,1.3231 z"
       inkscape:connector-curvature="0" />
    <path
       id="path4224"
       sodipodi:nodetypes="ccc"
       style="color:#000000;fill:#ffffff;filter:url(#filter4390)"
       transform="matrix(1.41,0,0,1.41,-9.4077,992.28)"
       d="m 12.055,29.109 c 0.12811,-0.77709 4.2582,-4.9033 4.3002,-4.4839 0,-0.49254 -3.4548,1.6064 -4.3002,4.4839 z"
       inkscape:connector-curvature="0" />
    <path
       id="path4226"
       sodipodi:nodetypes="ccc"
       style="color:#000000;fill:#ffffff;filter:url(#filter4386)"
       transform="matrix(1.41,0,0,1.41,-9.4077,992.28)"
       d="m 21.685,26.389 c -0.51248,1.244 -0.76049,2.5541 -0.88208,3.8959 -0.15039,-0.02149 -0.38488,-2.7537 0.88208,-3.8959 z"
       inkscape:connector-curvature="0" />
    <path
       id="path4228"
       sodipodi:nodetypes="cccc"
       style="color:#000000;fill:#ffffff;filter:url(#filter4382)"
       transform="matrix(1.41,0,0,1.41,-9.4077,992.28)"
       d="m 26.793,27.014 c -0.07351,-0.14701 -1.3231,-1.9479 -1.3231,-1.9479 0.3612,0.80646 0.79858,1.6383 0.88208,2.3522 -0.04716,-0.84673 0.2023,-0.60586 0.44104,-0.40429 z"
       inkscape:connector-curvature="0" />
    <path
       id="path4414"
       sodipodi:nodetypes="cccc"
       style="color:#000000;fill:#ffffff;fill-opacity:0.78570999;filter:url(#filter4484)"
       transform="matrix(1.41,0,0,1.41,-9.4077,992.28)"
       d="m 16.355,18.23 c -0.73507,-0.33078 -2.0582,-0.25727 -2.0582,-0.25727 0.69739,0.49444 1.4971,0.39121 1.5804,0.80858 -0.03176,-0.23835 -0.33334,-0.55903 0.47779,-0.5513 z"
       inkscape:connector-curvature="0" />
    <path
       id="path4416"
       sodipodi:nodetypes="cccc"
       style="color:#000000;fill:#ffffff;fill-opacity:0.78570999;filter:url(#filter4480)"
       transform="matrix(1.41,0,0,1.41,-9.4077,992.28)"
       d="m 16.907,22.273 c -0.34979,-0.02874 -0.85234,0.40083 -1.3966,0.95559 0.51455,-0.15926 0.99234,-0.46554 1.5436,-0.4778 -0.81339,0.03183 -0.48189,-0.22256 -0.14701,-0.4778 z"
       inkscape:connector-curvature="0" />
    <path
       id="path4418"
       sodipodi:nodetypes="ccc"
       style="color:#000000;fill:#ffffff;fill-opacity:0.78570999;filter:url(#filter4476)"
       transform="matrix(1.41,0,0,1.41,-9.4077,992.28)"
       d="m 18.119,27.161 c 0.15821,-0.46975 1.3285,-2.2206 1.3966,-1.9479 -0.11124,-0.20023 -1.2334,0.28648 -1.3966,1.9479 z"
       inkscape:connector-curvature="0" />
    <path
       id="path4420"
       sodipodi:nodetypes="cccc"
       style="color:#000000;fill:#ffffff;fill-opacity:0.78570999;filter:url(#filter4472)"
       transform="matrix(1.41,0,0,1.41,-9.4077,992.28)"
       d="m 23.853,27.381 c -0.26608,-0.93424 -0.05282,-2.0404 0,-1.9479 l 0.33078,0.88208 c -0.32718,-0.07857 -0.27719,0.59723 -0.33078,1.0658 z"
       inkscape:connector-curvature="0" />
    <path
       id="path4424"
       sodipodi:nodetypes="cccc"
       style="color:#000000;fill:#ffffff;fill-opacity:0.78570999;filter:url(#filter4468)"
       transform="matrix(1.41,0,0,1.41,-9.4077,992.28)"
       d="m 28.08,22.677 c -0.52944,-0.17583 -1.5302,-0.0035 -2.0949,0.29403 0.80258,-0.05526 1.4987,-0.0041 1.9112,0.33078 -0.463,-0.405 -0.113,-0.505 0.184,-0.625 z"
       inkscape:connector-curvature="0" />
    <path
       id="path4426"
       sodipodi:nodetypes="ccc"
       style="color:#000000;fill:#ffffff;fill-opacity:0.78570999;filter:url(#filter4464)"
       transform="matrix(1.41,0,0,1.41,-9.4077,992.28)"
       d="m 25.029,20.619 c 0.64085,-0.81324 1.1924,-1.8052 2.2052,-1.8744 0.21591,-0.64774 -1.8161,0.33949 -2.2052,1.8744 z"
       inkscape:connector-curvature="0" />
    <path
       id="path4428"
       sodipodi:nodetypes="ccc"
       style="color:#000000;fill:#ffffff;fill-opacity:0.78570999;filter:url(#filter4492)"
       transform="matrix(1.41,0,0,1.41,-9.4077,992.28)"
       d="m 24.625,16.98 c 0.02114,-1.1617 0.40017,-1.2497 0.69832,-1.5804 -0.02542,-0.05084 -1.0818,0.0048 -0.69832,1.5804 z"
       inkscape:connector-curvature="0" />
  </g>
  <metadata
     id="metadata151">
    <rdf:RDF>
      <cc:Work>
        <dc:format>image/svg+xml</dc:format>
        <dc:type
           rdf:resource="http://purl.org/dc/dcmitype/StillImage" />
        <cc:license
           rdf:resource="http://creativecommons.org/licenses/publicdomain/" />
        <dc:publisher>
          <cc:Agent
             rdf:about="http://openclipart.org/">
            <dc:title>Openclipart</dc:title>
          </cc:Agent>
        </dc:publisher>
        <dc:title>New Year Icon</dc:title>
        <dc:date>2010-11-05T11:21:35</dc:date>
        <dc:description>New Year - fireworks\n\nPart of the &quot;Events&quot; set made for WorldLabel.com</dc:description>
        <dc:source>https://openclipart.org/detail/94135/new-year-icon-by-nicubunu</dc:source>
        <dc:creator>
          <cc:Agent>
            <dc:title>nicubunu</dc:title>
          </cc:Agent>
        </dc:creator>
        <dc:subject>
          <rdf:Bag>
            <rdf:li>New Year</rdf:li>
            <rdf:li>color</rdf:li>
            <rdf:li>event</rdf:li>
            <rdf:li>events</rdf:li>
            <rdf:li>fireworks</rdf:li>
            <rdf:li>holiday</rdf:li>
            <rdf:li>holidays</rdf:li>
            <rdf:li>icon</rdf:li>
            <rdf:li>occasion</rdf:li>
            <rdf:li>occasions</rdf:li>
            <rdf:li>worldlabel</rdf:li>
          </rdf:Bag>
        </dc:subject>
      </cc:Work>
      <cc:License
         rdf:about="http://creativecommons.org/licenses/publicdomain/">
        <cc:permits
           rdf:resource="http://creativecommons.org/ns#Reproduction" />
        <cc:permits
           rdf:resource="http://creativecommons.org/ns#Distribution" />
        <cc:permits
           rdf:resource="http://creativecommons.org/ns#DerivativeWorks" />
      </cc:License>
    </rdf:RDF>
  </metadata>
</svg>
