<?xml version="1.0" encoding="UTF-8" standalone="no"?>
<!-- Created by sixsixfive and published under CC0 v1.0(http://creativecommons.org/publicdomain/zero/1.0/deed.en) on openclipart.org -->

<svg
   xmlns:dc="http://purl.org/dc/elements/1.1/"
   xmlns:cc="http://creativecommons.org/ns#"
   xmlns:rdf="http://www.w3.org/1999/02/22-rdf-syntax-ns#"
   xmlns:svg="http://www.w3.org/2000/svg"
   xmlns="http://www.w3.org/2000/svg"
   xmlns:sodipodi="http://sodipodi.sourceforge.net/DTD/sodipodi-0.dtd"
   xmlns:inkscape="http://www.inkscape.org/namespaces/inkscape"
   version="1.0"
   viewBox="0 0 41.466035 41.605089"
   id="svg2"
   inkscape:version="0.48.2 r9819"
   width="100%"
   height="100%"
   sodipodi:docname="gear.svg"
   inkscape:export-filename="gear.png"
   inkscape:export-xdpi="25.968147"
   inkscape:export-ydpi="25.968147">
  <sodipodi:namedview
     pagecolor="#ffffff"
     bordercolor="#666666"
     borderopacity="1"
     objecttolerance="10"
     gridtolerance="10"
     guidetolerance="10"
     inkscape:pageopacity="0"
     inkscape:pageshadow="2"
     inkscape:window-width="640"
     inkscape:window-height="480"
     id="namedview32"
     showgrid="false"
     fit-margin-top="0"
     fit-margin-left="0"
     fit-margin-right="0"
     fit-margin-bottom="0"
     inkscape:zoom="4.9166667"
     inkscape:cx="20.732905"
     inkscape:cy="20.103719"
     inkscape:window-x="0"
     inkscape:window-y="0"
     inkscape:window-maximized="0"
     inkscape:current-layer="svg2" />
  <defs
     id="defs2533">
    <radialGradient
       id="radialGradient2420"
       gradientUnits="userSpaceOnUse"
       cy="46.138"
       cx="26.434"
       gradientTransform="matrix(1.2507,0,0,0.23511,-12.185295,27.480718)"
       r="13.818">
      <stop
         id="stop3252"
         stop-color="#2e3436"
         offset="0" />
      <stop
         id="stop3254"
         stop-color="#2e3436"
         stop-opacity="0"
         offset="1" />
    </radialGradient>
    <radialGradient
       id="radialGradient2428"
       gradientUnits="userSpaceOnUse"
       cy="8.8218002"
       cx="16.791"
       r="20.676001"
       gradientTransform="matrix(0.95763,0,0,0.95763,-2.2502953,-1.29113)">
      <stop
         id="stop3242"
         stop-color="#ffffff"
         stop-opacity=".45"
         offset="0" />
      <stop
         id="stop3244"
         stop-color="#ffffff"
         stop-opacity="0"
         offset="1" />
    </radialGradient>
    <linearGradient
       id="linearGradient2421"
       y2="20.895"
       gradientUnits="userSpaceOnUse"
       x2="84.639"
       gradientTransform="matrix(0.28796,-0.11676,0.11676,0.28796,-5.0524953,10.06537)"
       y1="105.1"
       x1="86.133003">
      <stop
         id="stop3232"
         stop-color="#ffffff"
         stop-opacity=".67949"
         offset="0" />
      <stop
         id="stop3234"
         stop-opacity=".33333"
         offset="1" />
    </linearGradient>
    <radialGradient
       id="radialGradient2424"
       gradientUnits="userSpaceOnUse"
       cy="41.181999"
       cx="25.247"
       gradientTransform="matrix(0.62109,-1.8176,1.6111,0.55051,-53.645095,59.63937)"
       r="22">
      <stop
         id="stop3226"
         stop-color="#888a85"
         offset="0" />
      <stop
         id="stop3228"
         stop-color="#babdb6"
         offset="1" />
    </radialGradient>
    <linearGradient
       id="linearGradient2427"
       y2="44.650002"
       gradientUnits="userSpaceOnUse"
       x2="45.650002"
       gradientTransform="matrix(0.95763,0,0,0.95763,-2.2502953,-1.29113)"
       y1="1.3497"
       x1="2.3497">
      <stop
         id="stop3392"
         stop-color="#888a85"
         offset="0" />
      <stop
         id="stop3394"
         stop-color="#555753"
         offset=".77952" />
      <stop
         id="stop3396"
         stop-color="#2e3436"
         offset="1" />
    </linearGradient>
    <linearGradient
       id="linearGradient3210"
       gradientUnits="userSpaceOnUse"
       x2="0"
       y1="2.3903999"
       y2="43.610001"
       gradientTransform="matrix(0.95763,0,0,0.95763,-2.2502953,-1.29113)">
      <stop
         id="stop3206"
         stop-color="#ffffff"
         stop-opacity=".8"
         offset="0" />
      <stop
         id="stop3208"
         stop-color="#ffffff"
         stop-opacity="0"
         offset="1" />
    </linearGradient>
  </defs>
  <path
     id="path3262"
     d="m 38.157881,38.328693 a 17.282173,3.24875 0 1 1 -34.5630944,0 17.282173,3.24875 0 1 1 34.5630944,0 z"
     inkscape:connector-curvature="0"
     style="opacity:0.628;fill:url(#radialGradient2420)" />
  <path
     id="rect3267"
     d="M 10.361905,2.72237 C 9.6110047,3.02684 9.2556047,3.89627 9.5652247,4.65997 l 1.0908003,2.6901 c -1.1980003,0.9023 -2.2610003,1.9623 -3.1580003,3.1213 l -2.69,-1.138 c -0.3795,-0.16 -0.7609,-0.172 -1.1116,-0.033 -0.3506,0.138 -0.6553,0.408 -0.8132,0.782 l -2.2259,5.262 c -0.31568,0.74626 0.044611,1.5813 0.80363,1.9023 l 2.6895,1.1377 c -0.20674,1.4506 -0.22691,2.9527 -0.040237,4.4404 l -2.6901,1.0908 c -0.76374,0.30967 -1.1401,1.1703 -0.83565,1.9212 l 2.1365,5.2693 c 0.30447,0.7509 1.1739,1.1063 1.9376,0.79667 l 2.6901,-1.0908 c 0.90215,1.1976 1.9627,2.2614 3.1213003,3.1585 l -1.1377003,2.6895 c -0.32107,0.75902 0.0019,1.6091 0.7481603,1.9248 l 5.262,2.2259 c 0.74626,0.31568 1.5813,-0.04461 1.9023,-0.80363 l 1.1377,-2.6895 c 1.4506,0.20674 2.9527,0.22691 4.4404,0.04024 l 1.0908,2.6901 c 0.30967,0.76374 1.1703,1.1401 1.9212,0.83565 l 5.2693,-2.1365 c 0.7509,-0.30447 1.1063,-1.1739 0.79668,-1.9376 l -1.0908,-2.6901 c 1.1976,-0.90215 2.2614,-1.9627 3.1585,-3.1213 l 2.6895,1.1377 c 0.75902,0.32107 1.6091,-0.0019 1.9248,-0.74816 l 2.2259,-5.262 c 0.31568,-0.74626 -0.04461,-1.5813 -0.80363,-1.9023 l -2.6895,-1.1377 c 0.20674,-1.4506 0.22691,-2.9527 0.04024,-4.4404 l 2.6901,-1.0908 c 0.76374,-0.30967 1.1401,-1.1703 0.83565,-1.9212 l -2.1365,-5.2693 c -0.30447,-0.7509 -1.1739,-1.1063 -1.9376,-0.79668 l -2.6901,1.0908 c -0.902,-1.2 -1.962,-2.263 -3.121,-3.1604 l 1.138,-2.6895 c 0.321,-0.759 -0.002,-1.6092 -0.749,-1.9248 l -5.262,-2.22590008 c -0.74626,-0.31568 -1.5813,0.044612 -1.9023,0.80363008 l -1.138,2.6895 c -1.45,-0.2068 -2.952,-0.2269 -4.44,-0.0403 l -1.091,-2.6901 c -0.309,-0.76370008 -1.17,-1.14010008 -1.921,-0.83560008 L 10.361768,2.72099 z m 8.0322,12.244 c 3.1842,-1.2911 6.8163,0.24534 8.1074,3.4295 1.2911,3.18416 -0.24534,6.8163 -3.4295,8.1074 -3.18416,1.2911 -6.8163,-0.24534 -8.1074,-3.4295 -1.2911,-3.18416 0.24534,-6.8163 3.4295,-8.1074 z"
     display="block"
     inkscape:connector-curvature="0"
     style="fill:url(#radialGradient2424);stroke:url(#linearGradient2427);stroke-width:0.95762998;stroke-linejoin:round;display:block" />
  <path
     id="path2432"
     d="m 16.004048,1.5219081 -0.149391,0.059852 -5.147261,2.0648418 c -0.237492,0.096338 -0.33517,0.3170713 -0.209721,0.6284925 a 0.56107542,0.56107542 0 0 1 0,0.029926 0.56107542,0.56107542 0 0 1 0.02993,0.029926 v 0.059852 a 0.56107542,0.56107542 0 0 1 0.03064,0.059852 l 1.017482,2.5436568 a 0.56107542,0.56107542 0 0 1 0.02993,0 c 0.158015,0.4166357 -6.93e-4,0.9023743 -0.359115,1.167159 C 10.122859,9.0118962 9.1594831,9.9759615 8.3138,11.068235 8.0472533,11.450023 7.5454839,11.5728 7.1167625,11.39742 H 7.0865972 L 4.4232366,10.259755 c -0.1884137,-0.0797 -0.238852,-0.0775 -0.3591112,-0.02993 -0.1197516,0.04738 -0.1784544,0.09531 -0.2394075,0.239407 a 0.56107542,0.56107542 0 0 1 -0.059852,0.119704 0.56107542,0.56107542 0 0 1 -0.089778,0.119704 l -2.1247894,5.027557 c -0.055247,0.130602 -0.040866,0.213475 0,0.299259 0.040866,0.08578 0.1269434,0.196449 0.2992593,0.269334 l 2.6933344,1.137185 c 0.4319486,0.173667 0.6744109,0.618017 0.5985188,1.077334 h 0.029926 c -0.1922442,1.348918 -0.2016482,2.769658 -0.029926,4.159753 0.00124,0.01 -0.00125,0.01993 0,0.02993 0.049787,0.452002 -0.2335373,0.888231 -0.6583707,1.047456 -0.013694,0.0057 -0.015801,0.02586 -0.029878,0.03064 L 1.789802,24.834549 c -0.2935327,0.119014 -0.3765688,0.33405 -0.2693334,0.598519 a 0.56107542,0.56107542 0 0 1 0,0.02993 0.56107542,0.56107542 0 0 1 0.029926,0.02993 v 0.02992 a 0.56107542,0.56107542 0 0 1 0.029878,0.05842 v 0.02993 l 2.0648418,5.147261 c 0.096309,0.237521 0.3170521,0.335745 0.6284447,0.209482 a 0.56107542,0.56107542 0 0 1 0.029926,0 0.56107542,0.56107542 0 0 1 0.029926,-0.02993 h 0.059852 a 0.56107542,0.56107542 0 0 1 0.059948,-0.02969 l 2.5436568,-1.017482 a 0.56107542,0.56107542 0 0 1 0,-0.02993 c 0.4166361,-0.158018 0.9023747,6.9e-4 1.1671594,0.359112 0.84643,1.123683 1.8104953,2.087058 2.9027687,2.932741 0.381788,0.266547 0.504565,0.768317 0.329185,1.197038 v 0.02993 l -1.137186,2.66336 c -0.136558,0.322818 -0.07469,0.478308 0.209482,0.598519 a 0.56107542,0.56107542 0 0 1 0.119704,0.05985 0.56107542,0.56107542 0 0 1 0.119704,0.08978 l 5.027557,2.124789 c 0.130602,0.05525 0.213465,0.04087 0.299259,0 0.08579,-0.04087 0.196449,-0.126953 0.269334,-0.299259 l 1.137185,-2.693334 c 0.173667,-0.431949 0.618017,-0.674402 1.077334,-0.598519 v -0.02993 c 1.348918,0.192244 2.769658,0.201648 4.159753,0.02993 0.01,-0.0012 0.01993,0.0012 0.02993,0 0.452002,-0.04979 0.888231,0.233537 1.047456,0.65837 0.0029,0.0078 -0.0027,0.02207 0,0.02993 0.0021,0.0061 0.02792,-0.0061 0.02993,0 l 1.047456,2.663361 c 0.119014,0.293533 0.33405,0.376569 0.598518,0.269333 a 0.56107542,0.56107542 0 0 1 0.02993,0 0.56107542,0.56107542 0 0 1 0.02993,-0.02993 h 0.05985 a 0.56107542,0.56107542 0 0 1 0.06129,-0.02969 l 5.147262,-2.064842 c 0.237521,-0.09631 0.335745,-0.317052 0.209481,-0.628445 a 0.56107542,0.56107542 0 0 1 0,-0.02993 L 30.9385,37.132433 A 0.56107542,0.56107542 0 0 1 30.90881,37.01273 l -1.017482,-2.543657 a 0.56107542,0.56107542 0 0 1 -0.02993,0 c -0.158019,-0.416636 6.89e-4,-0.902375 0.359111,-1.16716 1.123683,-0.84643 2.087059,-1.810495 2.932742,-2.902768 0.266547,-0.381788 0.768316,-0.504565 1.197037,-0.329185 h 0.02993 l 2.663361,1.137186 c 0.322817,0.136558 0.478307,0.07468 0.598519,-0.209482 a 0.56107542,0.56107542 0 0 1 0.05985,-0.119704 0.56107542,0.56107542 0 0 1 0.03064,-0.03064 l 0.02993,-0.02993 a 0.56107542,0.56107542 0 0 1 0.02993,-0.05985 l 2.124789,-5.027557 c 0.05525,-0.130602 0.04087,-0.213465 0,-0.29926 -0.04087,-0.08579 -0.126953,-0.196448 -0.299259,-0.269333 l -2.693335,-1.137186 c -0.431948,-0.173666 -0.674401,-0.618016 -0.598518,-1.077333 h -0.02993 c 0.192244,-1.348918 0.201648,-2.769658 0.02993,-4.159754 -0.0014,-0.0099 0.0011,-0.02003 0,-0.02993 -0.04979,-0.452001 0.233537,-0.88823 0.65837,-1.047455 h 0.02993 v -0.02993 l 2.663361,-1.047456 c 0.293532,-0.119014 0.376568,-0.33405 0.269333,-0.598519 a 0.56107542,0.56107542 0 0 1 0,-0.02993 l -0.02993,-0.02993 a 0.56107542,0.56107542 0 0 1 0,-0.02993 v -0.02993 a 0.56107542,0.56107542 0 0 1 -0.02969,-0.05937 l -2.064842,-5.147262 c -0.09672,-0.237492 -0.316976,-0.33517 -0.628205,-0.209721 a 0.56107542,0.56107542 0 0 1 -0.02993,0 l -0.150348,0.06033 -2.543466,1.017961 a 0.56107542,0.56107542 0 0 1 0,0.02993 C 34.054061,11.76401 33.568323,11.605302 33.303538,11.24688 32.457108,10.123197 31.493043,9.1598213 30.40077,8.3141383 30.018676,8.0468637 29.896099,7.5450656 30.071345,7.1163347 v -0.029926 l 1.137186,-2.6633605 c 0.136558,-0.3228171 0.07468,-0.4783075 -0.209482,-0.5985188 a 0.56107542,0.56107542 0 0 1 -0.119704,-0.059948 0.56107542,0.56107542 0 0 1 -0.03064,-0.029878 l -0.02969,-0.029878 a 0.56107542,0.56107542 0 0 1 -0.05937,-0.029974 l -5.027561,-2.124789 c -0.130601,-0.055247 -0.213465,-0.040866 -0.299259,0 -0.08579,0.040866 -0.196448,0.126953 -0.269334,0.2992594 L 24.026306,4.5426562 C 23.85264,4.9746048 23.40829,5.2170671 22.948972,5.1411749 v 0.029926 C 21.599671,4.9788088 20.178548,4.969424 18.789027,5.1412229 c -0.01053,0.00134 -0.02011,-0.00115 -0.02969,0 -0.452959,0.049701 -0.888681,-0.233566 -1.047647,-0.6584664 -0.0057,-0.013694 -0.02586,-0.015801 -0.03064,-0.029878 L 16.63436,1.7895178 C 16.514656,1.4959084 16.300147,1.4128819 16.035841,1.5201365 a 0.56107542,0.56107542 0 0 1 -0.02993,0 z m 4.818028,11.9703749 c 2.818305,0.04214 5.492008,1.750548 6.61435,4.518099 1.495818,3.689748 -0.292077,7.931091 -3.97991,9.426909 -3.689748,1.495819 -7.931092,-0.292077 -9.42691,-3.97991 -1.495818,-3.689748 0.292077,-7.931091 3.979911,-9.42691 0.927426,-0.376042 1.880881,-0.552772 2.813038,-0.538666 z"
     display="block"
     inkscape:connector-curvature="0"
     style="opacity:0.8;fill:none;stroke:url(#linearGradient3210);stroke-width:0.958013;stroke-linejoin:round;display:block" />
  <path
     id="path28"
     d="m 15.874905,8.75337 c -6.6061003,2.6786 -9.8015003,10.232 -7.1229003,16.838 2.6786003,6.6061 10.2320003,9.8015 16.8380003,7.1229 6.6061,-2.6786 9.8015,-10.232 7.1229,-16.838 -2.678,-6.606 -10.232,-9.8012 -16.838,-7.123 z"
     inkscape:connector-curvature="0"
     style="fill:none;stroke:url(#linearGradient2421);stroke-width:0.95762998" />
  <path
     id="path2450"
     d="m 16.055145,9.19781 c -6.36158,2.579441 -9.4385014,9.853321 -6.8590603,16.2149 2.5794413,6.36158 9.8533203,9.438501 16.2149003,6.85906 6.361579,-2.579442 9.438501,-9.85332 6.85906,-16.2149 -2.579441,-6.3615795 -9.853321,-9.4385011 -16.2149,-6.85906 z m 2.15904,5.32476 c 3.429145,-1.390421 7.340678,0.264195 8.7311,3.69334 1.390421,3.429146 -0.264195,7.340679 -3.69334,8.7311 -3.429146,1.390422 -7.340679,-0.264194 -8.7311,-3.69334 -1.390422,-3.429145 0.264194,-7.340678 3.69334,-8.7311 z"
     inkscape:connector-curvature="0"
     style="opacity:0.23999999;fill:#ffffff" />
  <path
     id="path3238"
     display="block"
     d="m 15.795284,1.0131193 -5.266965,2.1247894 h -0.02993 C 9.9920945,3.3571485 9.7686986,3.9396366 9.9896525,4.484528 a 0.43894886,0.43894886 0 0 1 0,0.029926 L 11.066986,7.2077883 A 0.43894886,0.43894886 0 0 1 10.916638,7.7165772 C 9.7516815,8.594111 8.7386047,9.6096201 7.8641928,10.739049 A 0.43894886,0.43894886 0 0 1 7.3260047,10.889397 L 4.6326703,9.7517324 C 4.3443279,9.6301134 4.0996535,9.6253253 3.8545959,9.7220459 3.6031223,9.8216394 3.4252904,10.001674 3.3159291,10.260234 a 0.43894886,0.43894886 0 0 1 -0.029926,0 l -2.2444932,5.266965 h 0.029926 c -0.22359705,0.528574 0.00947,1.050329 0.5685928,1.286863 l 2.6933344,1.137186 a 0.43894886,0.43894886 0 0 1 0.2693334,0.478815 c -0.2009108,1.409631 -0.211732,2.890127 -0.029878,4.339022 A 0.43894886,0.43894886 0 0 1 4.2735591,23.2479 L 1.6101028,24.325233 H 1.5802248 C 1.045829,24.555179 0.80130771,25.123246 1.011632,25.641975 a 0.43894886,0.43894886 0 0 1 0,0.02993 l 2.1247894,5.266965 v 0.02992 c 0.2192398,0.506299 0.8017279,0.729695 1.3466193,0.508741 a 0.43894886,0.43894886 0 0 1 0.029926,0 L 7.206301,30.400198 a 0.43894886,0.43894886 0 0 1 0.5085973,0.150348 c 0.8775339,1.164956 1.893043,2.178033 3.0224717,3.052445 a 0.43894886,0.43894886 0 0 1 0.150348,0.538188 l -1.1371856,2.693335 c -0.2346289,0.554669 -0.021891,1.092272 0.5087406,1.316741 a 0.43894886,0.43894886 0 0 1 0,0.02993 l 5.266965,2.244493 v -0.02993 c 0.528574,0.223597 1.050329,-0.0095 1.286863,-0.568593 l 1.137186,-2.693334 a 0.43894886,0.43894886 0 0 1 0.478815,-0.269334 c 1.41011,0.200969 2.890127,0.211761 4.339213,0.02993 a 0.43894886,0.43894886 0 0 1 0.478815,0.29926 l 1.077334,2.66336 v 0.02993 c 0.229946,0.534396 0.798012,0.778917 1.316741,0.568593 a 0.43894886,0.43894886 0 0 1 0.02993,0 L 30.9381,38.330771 c 0.0072,-0.003 0.0228,0.0031 0.02993,0 0.506299,-0.21924 0.729695,-0.801728 0.508741,-1.34662 a 0.43894886,0.43894886 0 0 1 0,-0.02993 l -1.077334,-2.693334 a 0.43894886,0.43894886 0 0 1 0.150348,-0.507544 c 1.164957,-0.877534 2.178034,-1.893043 3.052446,-3.022472 a 0.43894886,0.43894886 0 0 1 0.538188,-0.150348 l 2.693334,1.137186 c 0.554669,0.234629 1.092273,0.02189 1.316741,-0.508741 a 0.43894886,0.43894886 0 0 1 0.02993,0 L 40.424906,25.942 h -0.02993 c 0.223597,-0.528573 -0.0095,-1.050328 -0.568593,-1.286863 l -2.693335,-1.137186 a 0.43894886,0.43894886 0 0 1 -0.269333,-0.478815 c 0.20206,-1.409631 0.212594,-2.890127 0.03064,-4.339021 a 0.43894886,0.43894886 0 0 1 0.29926,-0.478815 l 2.66336,-1.077334 c 0.0076,-0.0031 0.02244,0.0033 0.02993,0 0.534396,-0.229946 0.778917,-0.798012 0.568593,-1.316741 a 0.43894886,0.43894886 0 0 1 0,-0.02993 L 38.330708,10.53033 V 10.5004 C 38.111473,9.9941086 37.528985,9.7707127 36.984093,9.9916666 a 0.43894886,0.43894886 0 0 1 -0.02993,0 l -2.69333,1.0773344 A 0.43894886,0.43894886 0 0 1 33.751374,10.918653 C 32.873227,9.7541744 31.858139,8.7410019 30.729093,7.8662068 A 0.43894886,0.43894886 0 0 1 30.578745,7.32754 l 1.137186,-2.6933344 c 0.235577,-0.5546593 0.02298,-1.0922728 -0.507544,-1.3167413 a 0.43894886,0.43894886 0 0 1 0,-0.029926 L 25.941422,1.0430452 v 0.029926 c -0.528612,-0.22341518 -1.05052,0.00958 -1.287055,0.5687364 L 23.517182,4.335042 A 0.43894886,0.43894886 0 0 1 23.038367,4.6043754 C 21.628735,4.4034646 20.148239,4.3926434 18.699345,4.5744974 A 0.43894886,0.43894886 0 0 1 18.22053,4.275238 L 17.143197,1.6117817 V 1.5819036 C 16.913365,1.0475461 16.345491,0.80296732 15.826455,1.0132629 a 0.43894886,0.43894886 0 0 1 -0.02993,0 z m 5.027558,13.0477087 c 2.597954,0.03931 5.069406,1.605946 6.104891,4.159754 1.380711,3.405236 -0.276803,7.328167 -3.680938,8.708495 -3.405237,1.380711 -7.328168,-0.276803 -8.708496,-3.680938 -1.380711,-3.405236 0.276803,-7.328168 3.680938,-8.708496 0.85278,-0.345771 1.740589,-0.491877 2.603605,-0.478815 z"
     inkscape:connector-curvature="0"
     style="fill:url(#radialGradient2428);display:block" />
  <metadata
     id="metadata30">
    <rdf:RDF>
      <cc:Work>
        <dc:format>image/svg+xml</dc:format>
        <dc:type
           rdf:resource="http://purl.org/dc/dcmitype/StillImage" />
        <cc:license
           rdf:resource="http://creativecommons.org/licenses/publicdomain/" />
        <dc:publisher>
          <cc:Agent
             rdf:about="http://openclipart.org/">
            <dc:title>Openclipart</dc:title>
          </cc:Agent>
        </dc:publisher>
        <dc:title></dc:title>
      </cc:Work>
      <cc:License
         rdf:about="http://creativecommons.org/licenses/publicdomain/">
        <cc:permits
           rdf:resource="http://creativecommons.org/ns#Reproduction" />
        <cc:permits
           rdf:resource="http://creativecommons.org/ns#Distribution" />
        <cc:permits
           rdf:resource="http://creativecommons.org/ns#DerivativeWorks" />
      </cc:License>
    </rdf:RDF>
  </metadata>
</svg>
