<?xml version="1.0" encoding="UTF-8" standalone="no"?>
<!-- Created with Inkscape (http://www.inkscape.org/) -->

<svg
   xmlns:dc="http://purl.org/dc/elements/1.1/"
   xmlns:cc="http://creativecommons.org/ns#"
   xmlns:rdf="http://www.w3.org/1999/02/22-rdf-syntax-ns#"
   xmlns:svg="http://www.w3.org/2000/svg"
   xmlns="http://www.w3.org/2000/svg"
   xmlns:xlink="http://www.w3.org/1999/xlink"
   xmlns:sodipodi="http://sodipodi.sourceforge.net/DTD/sodipodi-0.dtd"
   xmlns:inkscape="http://www.inkscape.org/namespaces/inkscape"
   id="svg2"
   sodipodi:modified="true"
   viewBox="0 0 388.32 388.33"
   inkscape:export-ydpi="2.7810678"
   inkscape:export-xdpi="2.7810678"
   version="1.0"
   inkscape:output_extension="org.inkscape.output.svg.inkscape"
   sodipodi:docname="help.svg"
   inkscape:export-filename="help.png"
   inkscape:version="0.48.2 r9819"
   sodipodi:version="0.32"
   width="100%"
   height="100%">
  <defs
     id="defs4">
    <radialGradient
       id="radialGradient4280"
       gradientUnits="userSpaceOnUse"
       cy="466.64"
       cx="377.15"
       gradientTransform="matrix(1.253,0.51901,-0.51901,1.253,137.78,-364.81)"
       r="143.16"
       inkscape:collect="always">
      <stop
         id="stop4239"
         style="stop-color:#aa0000"
         offset="0" />
      <stop
         id="stop4245"
         style="stop-color:#f96f6f"
         offset=".60714" />
      <stop
         id="stop4241"
         style="stop-color:#aa0000"
         offset="1" />
    </radialGradient>
    <radialGradient
       id="radialGradient4283"
       gradientUnits="userSpaceOnUse"
       cy="466.3"
       cx="377.14"
       gradientTransform="matrix(1.3562,0,0,1.3561,-143.35,-217.17)"
       r="133.06"
       inkscape:collect="always">
      <stop
         id="stop3715"
         style="stop-color:#c9c9c9"
         offset="0" />
      <stop
         id="stop4120"
         style="stop-color:#ffffff"
         offset="0.8" />
      <stop
         id="stop3711"
         style="stop-color:#c9c9c9"
         offset="1" />
    </radialGradient>
    <radialGradient
       id="radialGradient4299"
       gradientUnits="userSpaceOnUse"
       cy="414.61"
       cx="373.5"
       gradientTransform="matrix(4.5672,0,0,4.5906,-1332.3,-1489)"
       r="46.669"
       inkscape:collect="always">
      <stop
         id="stop3802"
         style="stop-color:#ffffff;stop-opacity:0"
         offset="0" />
      <stop
         id="stop3804"
         style="stop-color:#f3caca;stop-opacity:.18367"
         offset="1" />
    </radialGradient>
    <radialGradient
       inkscape:collect="always"
       xlink:href="#radialGradient4299"
       id="radialGradient3002"
       gradientUnits="userSpaceOnUse"
       gradientTransform="matrix(4.5672,0,0,4.5906,-1332.3,-1489)"
       cx="373.5"
       cy="414.61"
       r="46.669" />
    <radialGradient
       inkscape:collect="always"
       xlink:href="#radialGradient4280"
       id="radialGradient3007"
       gradientUnits="userSpaceOnUse"
       gradientTransform="matrix(1.253,0.51901,-0.51901,1.253,137.78,-364.81)"
       cx="377.15"
       cy="466.64"
       r="143.16" />
    <radialGradient
       inkscape:collect="always"
       xlink:href="#radialGradient4283"
       id="radialGradient3010"
       gradientUnits="userSpaceOnUse"
       gradientTransform="matrix(1.3562,0,0,1.3561,-143.35,-217.17)"
       cx="377.14"
       cy="466.3"
       r="133.06" />
  </defs>
  <sodipodi:namedview
     id="base"
     bordercolor="#666666"
     inkscape:pageshadow="2"
     guidetolerance="10"
     pagecolor="#ffffff"
     gridtolerance="10000"
     inkscape:window-height="1036"
     inkscape:zoom="2.1553276"
     objecttolerance="10"
     borderopacity="1.0"
     inkscape:current-layer="layer2"
     inkscape:cx="194.16792"
     inkscape:cy="194.16003"
     showguides="true"
     inkscape:window-y="24"
     inkscape:window-x="0"
     inkscape:window-width="1600"
     inkscape:guide-bbox="true"
     inkscape:pageopacity="0.0"
     inkscape:document-units="px"
     showgrid="false"
     inkscape:window-maximized="0" />
  <g
     id="layer2"
     inkscape:label="layer2"
     inkscape:groupmode="layer"
     transform="translate(-173.96 -221.48)">
    <path
       inkscape:connector-curvature="0"
       d="m 368.14,234.73 c -99.61,0 -180.46,80.81 -180.46,180.42 0,99.62 80.85,180.47 180.46,180.47 99.61,0 180.46,-80.85 180.46,-180.47 0,-99.61 -80.85,-180.42 -180.46,-180.42 z m 0,93.79 c 47.82,0 86.63,38.81 86.63,86.63 0,47.82 -38.81,86.67 -86.63,86.67 -47.82,0 -86.63,-38.85 -86.63,-86.67 0,-47.82 38.81,-86.63 86.63,-86.63 z"
       style="color:#000000;fill:url(#radialGradient3010)"
       id="path6932" />
    <path
       inkscape:connector-curvature="0"
       d="m 405.7,487.29 c -2.51,-0.99 -5.31,-0.97 -7.81,0.06 -2.24,0.92 -4.51,1.72 -6.8,2.42 -2.37,0.73 -4.8,1.34 -7.27,1.84 -2.45,0.51 -4.89,0.87 -7.39,1.14 -2.5,0.26 -5.06,0.42 -7.59,0.44 -2.53,0.02 -5.02,-0.07 -7.56,-0.31 -2.58,-0.23 -5.16,-0.61 -7.65,-1.09 -2.52,-0.49 -5.02,-1.1 -7.57,-1.87 -2.57,-0.77 -5.14,-1.65 -7.57,-2.66 -5.34,-2.21 -11.45,0.32 -13.66,5.66 l -36.64,88.44 c -2.2,5.33 0.33,11.45 5.66,13.66 4.11,1.7 8.03,2.92 11.58,4.13 1.52,0.52 3.57,1.39 6.21,2.2 3.87,1.18 7.45,1.98 10.64,2.76 2.18,0.53 4.82,1.3 7.97,1.93 3.76,0.75 7.15,1.13 10.15,1.56 2.51,0.37 5.44,0.91 8.78,1.23 3.28,0.33 6.21,0.39 8.78,0.53 3.15,0.17 6.65,0.44 10.48,0.43 2.95,0 5.36,-0.27 7.26,-0.34 0.01,0 0.02,0.01 0.04,0.02 3.63,-0.15 7.57,-0.24 11.82,-0.67 2.99,-0.3 5.39,-0.78 7.27,-1.04 3.35,-0.47 7.09,-0.91 11.13,-1.71 3.4,-0.68 6.36,-1.53 8.96,-2.18 2.86,-0.71 6.15,-1.4 9.7,-2.49 2.46,-0.75 4.32,-1.56 5.7,-2.02 3.81,-1.29 7.9,-2.61 12.13,-4.36 2.57,-1.06 4.62,-3.09 5.69,-5.66 1.06,-2.56 1.04,-5.45 -0.03,-8.02 L 411.53,493 c -1.09,-2.61 -3.19,-4.68 -5.83,-5.71 z M 442.45,236.26 C 393,215.77 339.77,217.33 293.88,236.33 c -5.32,2.21 -7.85,8.31 -5.65,13.64 l 36.33,87.79 c 1.07,2.56 3.1,4.59 5.67,5.65 2.57,1.05 5.47,1.05 8.03,-0.03 0.16,-0.06 0.11,-0.07 0.24,-0.13 0.6,-0.25 0.72,-0.3 0.86,-0.35 0.05,-0.03 0.31,-0.1 0.32,-0.11 1.9,-0.74 3.87,-1.42 5.89,-2.03 2.43,-0.75 4.82,-1.37 7.23,-1.87 2.4,-0.49 4.9,-0.88 7.45,-1.15 2.5,-0.26 5,-0.4 7.53,-0.42 2.53,-0.02 5.06,0.09 7.6,0.32 2.61,0.24 5.16,0.56 7.63,1.04 2.5,0.48 5.05,1.11 7.61,1.88 2.58,0.77 5.08,1.68 7.52,2.69 5.33,2.21 11.44,-0.33 13.65,-5.66 l 36.32,-87.68 c 2.21,-5.33 -0.32,-11.44 -5.66,-13.65 z m 99.26,99.42 c -2.54,-1.02 -5.37,-1.01 -7.89,0.03 l -87.75,36.35 c -5.32,2.21 -7.85,8.31 -5.65,13.64 0.92,2.24 1.72,4.52 2.42,6.8 0.74,2.44 1.37,4.82 1.86,7.23 0.49,2.4 0.85,4.89 1.11,7.44 0.27,2.49 0.44,5.01 0.46,7.54 0.02,2.54 -0.09,5.06 -0.32,7.6 -0.23,2.61 -0.56,5.16 -1.04,7.63 -0.48,2.5 -1.15,5.04 -1.92,7.6 -0.68,2.29 -1.5,4.59 -2.43,6.91 -0.11,0.22 -0.19,0.34 -0.45,0.95 -1.07,2.56 -1.07,5.43 -0.01,8 1.06,2.57 3.09,4.63 5.66,5.69 l 88.12,36.51 c 5.33,2.2 11.44,-0.33 13.65,-5.66 2.45,-5.91 4.52,-11.85 6.33,-17.79 1.16,-3.79 1.92,-7.25 2.67,-10.31 0.59,-2.37 1.36,-5.16 2,-8.36 0.72,-3.59 1.11,-6.85 1.54,-9.73 0.39,-2.65 0.91,-5.66 1.25,-9.06 0.35,-3.56 0.43,-6.85 0.57,-9.8 0.01,-0.01 0.01,-0.03 0.02,-0.04 0.12,-2.69 0.38,-5.75 0.38,-9.22 0,-3.28 -0.21,-6.16 -0.33,-8.67 -0.14,-3.19 -0.27,-6.72 -0.64,-10.5 -0.3,-2.99 -0.76,-5.59 -1.07,-7.79 -0.48,-3.38 -0.94,-7.09 -1.74,-11.05 -0.59,-2.97 -1.3,-5.37 -1.77,-7.33 -0.82,-3.39 -1.65,-7.13 -2.86,-11.09 -0.75,-2.46 -1.56,-4.31 -2.02,-5.69 -1.29,-3.81 -2.61,-7.9 -4.36,-12.13 -1.08,-2.6 -3.17,-4.66 -5.79,-5.7 z m -339.28,0 c -5.33,-2.21 -11.45,0.32 -13.66,5.65 -20.48,49.46 -18.99,102.7 0.02,148.6 1.06,2.57 3.09,4.63 5.66,5.69 2.56,1.06 5.45,1.05 8.02,-0.02 l 88.32,-36.58 c 2.56,-1.07 4.59,-3.11 5.65,-5.68 1.05,-2.57 1.05,-5.46 -0.03,-8.02 -0.02,-0.05 -0.05,-0.12 -0.09,-0.23 -0.94,-2.26 -1.75,-4.63 -2.5,-7.07 -0.74,-2.43 -1.36,-4.82 -1.86,-7.23 -0.5,-2.48 -0.89,-4.99 -1.15,-7.45 -0.26,-2.41 -0.38,-4.95 -0.4,-7.57 -0.02,-2.62 0.04,-5.12 0.26,-7.57 0.23,-2.52 0.6,-5.09 1.1,-7.66 0.48,-2.49 1.13,-4.99 1.9,-7.55 0.71,-2.36 1.57,-4.79 2.55,-7.19 2.18,-5.33 -0.35,-11.42 -5.67,-13.62 l -88.12,-36.5 z"
       style="color:#000000;fill:url(#radialGradient3007)"
       id="path3421" />
    <path
       inkscape:connector-curvature="0"
       d="m 368.14,609.77 v 0.05 c 4.15,0 8.2,-0.38 12.29,-0.64 -4.1,0.26 -8.19,0.59 -12.29,0.59 z"
       style="color:#000000;fill:#cccccc"
       id="path6920" />
    <path
       inkscape:connector-curvature="0"
       d="m 174.03,415.62 c 0,-4.11 0.33,-8.19 0.59,-12.29 -0.26,4.08 -0.63,8.14 -0.63,12.29 h 0.04 z"
       style="color:#000000;fill:#cccccc"
       id="path6899" />
    <path
       inkscape:connector-curvature="0"
       d="m 209.1,355.09 c -4.04,-1.67 -8.67,0.24 -10.34,4.28 -15.51,37.45 -14.38,77.77 0.01,112.53 0.81,1.94 2.34,3.5 4.29,4.31 1.94,0.8 4.13,0.79 6.07,-0.02 l 66.88,-27.7 c 1.94,-0.81 3.48,-2.35 4.28,-4.3 0.8,-1.95 0.8,-4.14 -0.02,-6.08 -0.01,-0.03 -0.04,-0.09 -0.07,-0.17 -0.71,-1.71 -1.32,-3.5 -1.89,-5.35 -0.56,-1.84 -1.04,-3.65 -1.41,-5.47 -0.38,-1.88 -0.68,-3.78 -0.87,-5.65 -0.19,-1.82 -0.29,-3.75 -0.31,-5.73 -0.01,-1.99 0.03,-3.88 0.2,-5.74 0.18,-1.9 0.46,-3.85 0.83,-5.79 0.37,-1.89 0.86,-3.78 1.44,-5.72 0.54,-1.79 1.2,-3.63 1.94,-5.45 1.65,-4.03 -0.27,-8.64 -4.3,-10.31 L 209.1,355.09 z m 318.07,0 c 4.04,-1.67 8.67,0.24 10.34,4.28 15.51,37.45 14.39,77.77 -0.01,112.53 -0.8,1.94 -2.34,3.5 -4.29,4.31 -1.94,0.8 -4.13,0.79 -6.07,-0.02 l -66.88,-27.7 c -1.94,-0.81 -3.48,-2.35 -4.28,-4.3 -0.8,-1.95 -0.79,-4.14 0.02,-6.08 0.02,-0.03 0.04,-0.09 0.07,-0.17 0.71,-1.71 1.33,-3.5 1.89,-5.35 0.57,-1.84 1.04,-3.65 1.41,-5.47 0.38,-1.88 0.68,-3.78 0.87,-5.65 0.2,-1.82 0.29,-3.75 0.31,-5.73 0.01,-1.99 -0.03,-3.88 -0.2,-5.74 -0.17,-1.9 -0.46,-3.85 -0.83,-5.79 -0.37,-1.89 -0.86,-3.78 -1.44,-5.72 -0.54,-1.79 -1.19,-3.63 -1.94,-5.45 -1.65,-4.03 0.27,-8.64 4.3,-10.31 l 66.73,-27.64 z m -220.6,218.58 c -1.67,4.04 0.25,8.67 4.29,10.34 37.45,15.51 77.76,14.38 112.52,-0.01 1.95,-0.8 3.51,-2.34 4.31,-4.29 0.81,-1.94 0.79,-4.13 -0.02,-6.07 l -27.7,-66.88 c -0.81,-1.94 -2.35,-3.48 -4.29,-4.28 -1.95,-0.8 -4.14,-0.79 -6.08,0.02 -0.04,0.01 -0.09,0.04 -0.17,0.07 -1.71,0.71 -3.51,1.33 -5.35,1.89 -1.85,0.57 -3.66,1.04 -5.48,1.41 -1.88,0.38 -3.78,0.68 -5.64,0.87 -1.83,0.2 -3.75,0.29 -5.73,0.31 -1.99,0.01 -3.89,-0.03 -5.74,-0.2 -1.91,-0.17 -3.85,-0.46 -5.8,-0.83 -1.89,-0.37 -3.78,-0.86 -5.72,-1.44 -1.78,-0.54 -3.62,-1.19 -5.44,-1.94 -4.04,-1.65 -8.65,0.27 -10.32,4.3 l -27.64,66.73 z m 0,-318.76 c -1.67,-4.04 0.25,-8.67 4.29,-10.35 37.45,-15.51 77.76,-14.38 112.52,0.02 1.95,0.8 3.51,2.34 4.31,4.28 0.81,1.94 0.79,4.13 -0.02,6.08 l -27.7,66.87 c -0.81,1.95 -2.35,3.48 -4.29,4.28 -1.95,0.8 -4.14,0.8 -6.08,-0.02 -0.04,-0.01 -0.09,-0.03 -0.17,-0.07 -1.71,-0.71 -3.51,-1.32 -5.35,-1.89 -1.85,-0.56 -3.66,-1.03 -5.48,-1.41 -1.88,-0.38 -3.78,-0.67 -5.64,-0.87 -1.83,-0.19 -3.75,-0.29 -5.73,-0.3 -1.99,-0.02 -3.89,0.03 -5.74,0.2 -1.91,0.17 -3.85,0.45 -5.8,0.83 -1.89,0.36 -3.78,0.86 -5.72,1.44 -1.78,0.53 -3.62,1.19 -5.44,1.93 -4.04,1.65 -8.65,-0.27 -10.32,-4.29 l -27.64,-66.73 z"
       style="color:#000000;fill:url(#radialGradient3002)"
       id="path4400" />
  </g>
  <metadata
     id="metadata24">
    <rdf:RDF>
      <cc:Work>
        <dc:format>image/svg+xml</dc:format>
        <dc:type
           rdf:resource="http://purl.org/dc/dcmitype/StillImage" />
        <cc:license
           rdf:resource="http://creativecommons.org/licenses/publicdomain/" />
        <dc:publisher>
          <cc:Agent
             rdf:about="http://openclipart.org/">
            <dc:title>Openclipart</dc:title>
          </cc:Agent>
        </dc:publisher>
        <dc:title></dc:title>
        <dc:date>2007-02-26T11:07:20</dc:date>
        <dc:description>A lifesaver icon.</dc:description>
        <dc:source>https://openclipart.org/detail/3332/lifesaver-by-barretr-3332</dc:source>
        <dc:creator>
          <cc:Agent>
            <dc:title>barretr</dc:title>
          </cc:Agent>
        </dc:creator>
        <dc:subject>
          <rdf:Bag>
            <rdf:li>color</rdf:li>
            <rdf:li>computer</rdf:li>
            <rdf:li>help</rdf:li>
            <rdf:li>icon</rdf:li>
            <rdf:li>life belt</rdf:li>
            <rdf:li>life ring</rdf:li>
            <rdf:li>lifebuoy</rdf:li>
            <rdf:li>red</rdf:li>
            <rdf:li>software</rdf:li>
            <rdf:li>white</rdf:li>
          </rdf:Bag>
        </dc:subject>
      </cc:Work>
      <cc:License
         rdf:about="http://creativecommons.org/licenses/publicdomain/">
        <cc:permits
           rdf:resource="http://creativecommons.org/ns#Reproduction" />
        <cc:permits
           rdf:resource="http://creativecommons.org/ns#Distribution" />
        <cc:permits
           rdf:resource="http://creativecommons.org/ns#DerivativeWorks" />
      </cc:License>
    </rdf:RDF>
  </metadata>
</svg>
