<?xml version="1.0" encoding="UTF-8" standalone="no"?>
<!-- Created with Inkscape (http://www.inkscape.org/) -->

<svg
   xmlns:dc="http://purl.org/dc/elements/1.1/"
   xmlns:cc="http://creativecommons.org/ns#"
   xmlns:rdf="http://www.w3.org/1999/02/22-rdf-syntax-ns#"
   xmlns:svg="http://www.w3.org/2000/svg"
   xmlns="http://www.w3.org/2000/svg"
   xmlns:sodipodi="http://sodipodi.sourceforge.net/DTD/sodipodi-0.dtd"
   xmlns:inkscape="http://www.inkscape.org/namespaces/inkscape"
   id="svg2"
   sodipodi:docname="remove.svg"
   inkscape:export-filename="/Volumes/ramdisk/add.png"
   viewBox="0 0 35.001507 35.000014"
   sodipodi:version="0.32"
   inkscape:export-xdpi="30.85713"
   inkscape:output_extension="org.inkscape.output.svg.inkscape"
   inkscape:export-ydpi="30.85713"
   inkscape:version="0.48.2 r9819"
   version="1.1"
   width="100%"
   height="100%">
  <defs
     id="defs4">
    <linearGradient
       id="linearGradient1375"
       y2="57.588001"
       gradientUnits="userSpaceOnUse"
       x2="27.493999"
       gradientTransform="matrix(0.58147,-0.58147,0.58147,0.58147,-5.2146,32.001)"
       y1="6.2061"
       x1="36.304001"
       inkscape:collect="always">
      <stop
         id="stop1354"
         style="stop-color:#179807"
         offset="0" />
      <stop
         id="stop1356"
         style="stop-color:#0b5102"
         offset="1" />
    </linearGradient>
    <linearGradient
       id="linearGradient1377"
       y2="57.789001"
       gradientUnits="userSpaceOnUse"
       x2="27.573999"
       gradientTransform="matrix(0.58147,-0.58147,0.58147,0.58147,-5.2092,32)"
       y1="6.1829"
       x1="36.464001"
       inkscape:collect="always">
      <stop
         id="stop1367"
         style="stop-color:#24f00a"
         offset="0" />
      <stop
         id="stop1370"
         style="stop-color:#0b6400"
         offset="1" />
    </linearGradient>
    <linearGradient
       id="linearGradient1379"
       y2="49.282001"
       gradientUnits="userSpaceOnUse"
       x2="27.469"
       gradientTransform="matrix(0.58147,-0.58147,0.58147,0.58147,-5.2141,32)"
       y1="19.205999"
       x1="32.682999"
       inkscape:collect="always">
      <stop
         id="stop1380"
         style="stop-color:#b0ffa5"
         offset="0" />
      <stop
         id="stop1382"
         style="stop-color:#26bc14;stop-opacity:.44706"
         offset="1" />
    </linearGradient>
    <linearGradient
       inkscape:collect="always"
       x1="36.304001"
       y1="6.2061"
       gradientTransform="matrix(0.58147,-0.58147,0.58147,0.58147,-19.262361,4.3135846)"
       x2="27.493999"
       gradientUnits="userSpaceOnUse"
       y2="57.588001"
       id="linearGradient3006">
      <stop
         offset="0"
         style="stop-color:#980707"
         id="stop1354-4" />
      <stop
         offset="1"
         style="stop-color:#510202"
         id="stop1356-8" />
    </linearGradient>
    <linearGradient
       inkscape:collect="always"
       x1="36.464001"
       y1="6.1829"
       gradientTransform="matrix(0.58147,-0.58147,0.58147,0.58147,-19.256361,4.3125846)"
       x2="27.573999"
       gradientUnits="userSpaceOnUse"
       y2="57.789001"
       id="linearGradient3003">
      <stop
         offset="0"
         style="stop-color:#f00a0a"
         id="stop1367-3" />
      <stop
         offset="1"
         style="stop-color:#640000"
         id="stop1370-0" />
    </linearGradient>
    <linearGradient
       inkscape:collect="always"
       x1="32.682999"
       y1="19.205999"
       gradientTransform="matrix(0.58147,-0.58147,0.58147,0.58147,-19.261361,4.3125846)"
       x2="27.469"
       gradientUnits="userSpaceOnUse"
       y2="49.282001"
       id="linearGradient3000">
      <stop
         offset="0"
         style="stop-color:#ffa5a5"
         id="stop3778" />
      <stop
         offset="1"
         style="stop-color:#bc1414;stop-opacity:0"
         id="stop3780" />
    </linearGradient>
  </defs>
  <sodipodi:namedview
     id="base"
     bordercolor="#666666"
     inkscape:grid-points="true"
     inkscape:pageshadow="2"
     inkscape:window-y="69"
     pagecolor="#ffffff"
     inkscape:window-height="693"
     inkscape:grid-bbox="true"
     inkscape:zoom="14.11428"
     inkscape:window-x="683"
     showgrid="false"
     borderopacity="1.0"
     inkscape:current-layer="layer1"
     inkscape:cx="17.500753"
     inkscape:cy="17.500007"
     showguides="false"
     inkscape:window-width="1156"
     inkscape:pageopacity="0.0"
     inkscape:document-units="px"
     inkscape:window-maximized="0"
     fit-margin-top="0"
     fit-margin-left="0"
     fit-margin-right="0"
     fit-margin-bottom="0">
    <inkscape:grid
       id="GridFromPre046Settings"
       opacity=".2"
       color="#0000ff"
       originy="0px"
       originx="0px"
       empspacing="4"
       spacingy="1px"
       spacingx="1px"
       empopacity="0.4"
       type="xygrid"
       empcolor="#0000ff"
       visible="true"
       enabled="true"
       snapvisiblegridlinesonly="true" />
  </sodipodi:namedview>
  <g
     id="layer1"
     inkscape:label="Calque 1"
     inkscape:groupmode="layer"
     transform="translate(-0.4995,-0.49999324)">
    <g
       transform="translate(0.04717584,13.687489)"
       inkscape:label="Calque 1"
       id="layer1-5">
      <path
         d="m 0.4532087,7.7045846 c 0.05084,0.54254 0.50871,0.95574 1.0536,0.95081 H 13.610809 l 8.6858,1e-6 12.104,-1e-6 c 0.27983,0.0013 0.54858,-0.10927 0.74646,-0.30714 0.19787,-0.19787 0.30846,-0.46662 0.30714,-0.74646 v -6.5786 c 0.0013,-0.27983003 -0.10927,-0.54858003 -0.30714,-0.74646003 -0.19787,-0.19787 -0.46662,-0.30846 -0.74646,-0.30714 l -12.104,-1e-6 -8.6858,1e-6 H 1.5068087 c -0.27983,-0.0013 -0.54858,0.10927 -0.74646,0.30714 -0.19787,0.19787 -0.30846,0.46662 -0.30714,0.74646003 v 6.5786 c -0.0017,0.03424 -0.0017,0.06855 10e-7,0.10279 z"
         inkscape:connector-curvature="0"
         sodipodi:nodetypes="cccccsccsccccsccc"
         style="fill:url(#linearGradient3006)"
         id="path1349-4" />
      <path
         d="m 1.3824387,1.1865846 c -0.0867,0.14846 -0.12923,0.31858 -0.12259,0.49038 v 5.2715 c 0.0023,0.49554 0.40348,0.89668 0.89902,0.89902 h 12.2590003 7.0696 12.259 c 0.49554,-0.0023 0.89668,-0.40348 0.89902,-0.89902 v -5.2715 c -0.0023,-0.49554 -0.40348,-0.89668003 -0.89902,-0.89902003 h -12.259 -7.0696 -12.2590003 c -0.31203,-0.0071 -0.6056,0.14744 -0.77643,0.40865003 z"
         inkscape:connector-curvature="0"
         sodipodi:nodetypes="cccccccccccccc"
         style="fill:url(#linearGradient3003)"
         id="path1468-2" />
      <path
         d="m 1.9337387,1.5745846 c -0.01422,0.03214 -0.0212,0.06702 -0.02043,0.10216 v 5.2715 c 0.0021,0.04384 0.01627,0.08624 0.04087,0.12259 0.02273,0.04375 0.05841,0.07943 0.10216,0.10216 0.03214,0.01422 0.06702,0.0212 0.10216,0.02043 l 31.5880003,-8e-6 c 0.04384,-0.0021 0.08624,-0.01627 0.12259,-0.04087 0.04375,-0.02273 0.07943,-0.05841 0.10216,-0.10216 0.01422,-0.03214 0.0212,-0.06702 0.02043,-0.10216 v -5.2715 c -0.0021,-0.04384 -0.01627,-0.08624 -0.04087,-0.12259 -0.02273,-0.04375 -0.05841,-0.07943 -0.10216,-0.10216 -0.03214,-0.01422 -0.06702,-0.0212 -0.10216,-0.02043 h -12.505 l -0.41722,0.01251 -5.7619,8e-6 -0.40007,-0.01251 H 2.1572987 c -0.04384,0.0021 -0.08624,0.01627 -0.12259,0.04087 -0.04376,0.02273 -0.07943,0.05841 -0.10216,0.10216 z"
         inkscape:connector-curvature="0"
         sodipodi:nodetypes="ccccccccccccccccccccc"
         style="fill:url(#linearGradient3000)"
         id="path1472-1" />
    </g>
  </g>
  <metadata
     id="metadata20">
    <rdf:RDF>
      <cc:Work>
        <dc:format>image/svg+xml</dc:format>
        <dc:type
           rdf:resource="http://purl.org/dc/dcmitype/StillImage" />
        <cc:license
           rdf:resource="http://creativecommons.org/licenses/publicdomain/" />
        <dc:publisher>
          <cc:Agent
             rdf:about="http://openclipart.org/">
            <dc:title>Openclipart</dc:title>
          </cc:Agent>
        </dc:publisher>
        <dc:title></dc:title>
      </cc:Work>
      <cc:License
         rdf:about="http://creativecommons.org/licenses/publicdomain/">
        <cc:permits
           rdf:resource="http://creativecommons.org/ns#Reproduction" />
        <cc:permits
           rdf:resource="http://creativecommons.org/ns#Distribution" />
        <cc:permits
           rdf:resource="http://creativecommons.org/ns#DerivativeWorks" />
      </cc:License>
    </rdf:RDF>
  </metadata>
</svg>
