<?xml version="1.0" encoding="UTF-8" standalone="no"?>
<svg
   xmlns:dc="http://purl.org/dc/elements/1.1/"
   xmlns:cc="http://creativecommons.org/ns#"
   xmlns:rdf="http://www.w3.org/1999/02/22-rdf-syntax-ns#"
   xmlns:svg="http://www.w3.org/2000/svg"
   xmlns="http://www.w3.org/2000/svg"
   xmlns:sodipodi="http://sodipodi.sourceforge.net/DTD/sodipodi-0.dtd"
   xmlns:inkscape="http://www.inkscape.org/namespaces/inkscape"
   id="svg6142"
   viewBox="0 0 828.13796 658.21771"
   version="1.1"
   inkscape:version="0.48.2 r9819"
   width="100%"
   height="100%"
   sodipodi:docname="yellow.svg"
   inkscape:export-filename="/Users/thorsten/workspace/4.3.1/ahtutils/doc/src/main/resources/svg.aht-utils/icon/bubble/yellow.png"
   inkscape:export-xdpi="1.6407945"
   inkscape:export-ydpi="1.6407945">
  <sodipodi:namedview
     pagecolor="#ffffff"
     bordercolor="#666666"
     borderopacity="1"
     objecttolerance="10"
     gridtolerance="10"
     guidetolerance="10"
     inkscape:pageopacity="0"
     inkscape:pageshadow="2"
     inkscape:window-width="640"
     inkscape:window-height="480"
     id="namedview28"
     showgrid="false"
     inkscape:zoom="0.33677241"
     inkscape:cx="452.74893"
     inkscape:cy="340.90513"
     inkscape:window-x="0"
     inkscape:window-y="0"
     inkscape:window-maximized="0"
     inkscape:current-layer="svg6142"
     fit-margin-top="0"
     fit-margin-left="0"
     fit-margin-right="0"
     fit-margin-bottom="0" />
  <defs
     id="defs3">
    <linearGradient
       id="linearGradient5949"
       y2="945.71997"
       gradientUnits="userSpaceOnUse"
       x2="-1094.8"
       gradientTransform="translate(-1286.3,-1239.2)"
       y1="1196.7"
       x1="-1098.7">
      <stop
         id="stop5902"
         stop-color="#803300"
         offset="0" />
      <stop
         id="stop5904"
         stop-color="#803300"
         stop-opacity="0"
         offset="1" />
    </linearGradient>
    <clipPath
       id="clipPath5930">
      <path
         id="path5932"
         d="m -2753.6,-520.95 c 0,0 117.65,223.53 329.41,223.53 211.76,0 458.82,-235.29 458.82,-235.29 l -560.78,-270.59 z"
         inkscape:connector-curvature="0"
         style="fill:none;stroke:#000000;stroke-width:1px" />
    </clipPath>
    <linearGradient
       id="linearGradient7390"
       y2="31.992001"
       gradientUnits="userSpaceOnUse"
       x2="-2349.7"
       y1="-540.56"
       x1="-2404.6001">
      <stop
         id="stop5937"
         stop-color="#f9f9f9"
         offset="0" />
      <stop
         id="stop5939"
         stop-color="#f9f9f9"
         stop-opacity="0"
         offset="1" />
    </linearGradient>
    <filter
       id="filter7463"
       color-interpolation-filters="sRGB">
      <feGaussianBlur
         id="feGaussianBlur7465"
         stdDeviation="3.4939342" />
    </filter>
  </defs>
  <g
     id="layer1"
     transform="translate(99.138931,-361.09242)">
    <g
       id="g7467">
      <g
         id="g7429"
         transform="matrix(1.0386,0,0,1.0386,2650,1088.2)"
         style="filter:url(#filter7463)">
        <path
           id="path7431"
           d="m -1898.2,-683.38 c 0,4.5944 -5.5867,8.3189 -12.478,8.3189 -6.8916,0 -12.478,-3.7245 -12.478,-8.3189 0,-4.5944 5.5867,-8.3189 12.478,-8.3189 6.8916,0 12.478,3.7245 12.478,8.3189 z m 30.503,52.686 c 0,6.8916 -6.8282,12.478 -15.251,12.478 -8.423,0 -15.251,-5.5867 -15.251,-12.478 0,-6.8916 6.8283,-12.478 15.251,-12.478 8.4231,0 15.251,5.5867 15.251,12.478 z m 9.7054,70.017 c 0,10.337 -8.6905,18.718 -19.411,18.718 -10.7205,0 -19.411,-8.3801 -19.411,-18.718 0,-10.337 8.6905,-18.718 19.411,-18.718 10.7205,0 19.411,8.3801 19.411,18.718 z m -29.116,84.575 c 0,11.869 -11.174,21.49 -24.957,21.49 -13.783,0 -24.957,-9.6216 -24.957,-21.49 0,-11.869 11.174,-21.49 24.957,-21.49 13.783,0 24.957,9.6216 24.957,21.49 z m -59.619,59.619 c 0,17.995 -15.208,32.582 -33.969,32.582 -18.76,0 -33.969,-14.588 -33.969,-32.582 0,-17.995 15.208,-32.582 33.969,-32.582 18.76,0 33.969,14.588 33.969,32.582 z m -496.36,73.484 c 0,53.218 -43.763,96.36 -97.747,96.36 -53.984,0 -97.747,-43.142 -97.747,-96.36 0,-53.218 43.763,-96.36 97.747,-96.36 53.984,0 97.747,43.142 97.747,96.36 z m 142.81,-96.361 c 0,44.413 -54.936,80.416 -122.7,80.416 -67.767,0 -122.7,-36.003 -122.7,-80.416 0,-44.412 54.936,-80.416 122.7,-80.416 67.767,0 122.7,36.003 122.7,80.416 z m -83.189,124.09 c 0,33.309 -47.177,60.312 -105.37,60.312 -58.196,0 -105.37,-27.003 -105.37,-60.312 0,-33.309 47.177,-60.312 105.37,-60.312 58.196,0 105.37,27.003 105.37,60.312 z m 42.981,65.858 c 0,35.989 -57.73,65.165 -128.94,65.165 -71.213,0 -128.94,-29.175 -128.94,-65.165 0,-35.989 57.73,-65.165 128.94,-65.165 71.213,0 128.94,29.175 128.94,65.165 z m 102.6,72.097 c 0,45.178 -58.04,81.802 -129.64,81.802 -71.596,0 -129.64,-36.624 -129.64,-81.802 0,-45.178 58.04,-81.802 129.64,-81.802 71.596,0 129.64,36.624 129.64,81.802 z m 47.14,23.57 c 0,43.647 -28.865,79.03 -64.471,79.03 -35.607,0 -64.472,-35.383 -64.472,-79.03 0,-43.647 28.865,-79.029 64.471,-79.029 35.607,0 64.472,35.383 64.472,79.029 z m 90.121,-47.14 c 0,41.35 -32.279,74.87 -72.097,74.87 -39.818,0 -72.097,-33.52 -72.097,-74.87 0,-41.35 32.279,-74.87 72.097,-74.87 39.818,0 72.097,33.52 72.097,74.87 z m 79.029,-55.459 c 0,47.475 -35.072,85.962 -78.336,85.962 -43.264,0 -78.336,-38.486 -78.336,-85.962 0,-47.475 35.072,-85.962 78.336,-85.962 43.264,0 78.336,38.486 78.336,85.962 z m 4.1595,-101.91 c 0,53.218 -47.177,96.36 -105.37,96.36 -58.196,0 -105.37,-43.142 -105.37,-96.36 0,-53.218 47.177,-96.36 105.37,-96.36 58.196,0 105.37,43.142 105.37,96.36 z m -133.1,-81.109 c 0,44.413 -46.246,80.416 -103.29,80.416 -57.047,0 -103.29,-36.003 -103.29,-80.416 0,-44.412 46.246,-80.416 103.29,-80.416 57.047,0 103.29,36.003 103.29,80.416 z m 79.029,140.73 c 0,96.865 -100.25,175.39 -223.92,175.39 -123.67,0 -223.92,-78.525 -223.92,-175.39 0,-96.865 100.25,-175.39 223.92,-175.39 123.67,0 223.92,78.525 223.92,175.39 z"
           inkscape:connector-curvature="0" />
        <path
           id="path7433"
           d="m -1877.5,-563.75 c -3.9673,-0.66553 -4.7869,6.9441 -0.2188,6.1562 5.1827,-0.14476 5.6347,-5.7927 0.2188,-6.1562 z m -380.22,59.656 c -27.099,0.6997 -54.17,11.753 -72.375,32.062 -35.928,-31.582 -88,-38.136 -133.19,-27.122 -25.704,6.5054 -52.732,20.221 -63.9,45.56 -3.9435,9.7492 -3.3465,20.629 -1.2813,30.719 -42.423,-7.5962 -87.452,24.46 -93.505,67.242 -5.4369,32.07 11.283,65.655 38.786,82.196 5.7878,5.7407 3.3106,14.412 0.75,20.969 -1.5531,14.341 11.216,24.786 22.344,31.375 20.498,12.645 44.439,17.364 68,19.906 8.4358,2.1387 13.761,11.594 10.75,19.875 -1.7771,23.022 16.765,41.811 35.969,51.563 41.882,22.779 93.524,23.55 137.97,8.3781 4.8808,-1.7421 10.634,-5.6549 11.372,1.9969 8.5758,19.77 32.398,35.081 53.844,26.594 22.498,-8.6048 34.095,-33.098 36.274,-55.911 0.1984,-5.4518 6.6632,1.9792 10.179,2.3615 23.596,10.517 53.86,2.557 68.297,-19.169 4.9496,-6.8428 8.2374,-14.742 10.438,-22.875 30.552,10.023 65.233,-10.91 74.875,-40.719 9.6566,-25.281 4.9005,-55.73 -12.75,-76.219 26.861,-26.118 29.276,-73.073 4.0312,-101.19 -24.653,-29.605 -68.078,-39.67 -103.91,-27.469 -7.3308,1.2979 -13.283,-6.3718 -11.969,-13.188 -5.2187,-27.233 -30.666,-46.189 -56.337,-52.742 -11.232,-3.1179 -22.858,-4.549 -34.663,-4.1959 z m 344.44,22.062 c -3.8045,-0.30908 -10.05,4.31 -7.125,8.2812 4.4083,5.3028 16.058,4.782 17.625,-2.6875 -0.9817,-4.3005 -6.6879,-5.6867 -10.5,-5.5938 z m -68.312,48.625 c -13.265,-0.74831 -23.377,17.776 -13.281,27.688 8.8462,10.023 28.627,7.3604 31.906,-6.5 3.354,-11.673 -7.2543,-22.032 -18.625,-21.188 z"
           inkscape:connector-curvature="0" />
        <path
           id="path7435"
           d="m -1877.5,-563.75 c -3.9673,-0.66553 -4.7869,6.9441 -0.2188,6.1562 5.1827,-0.14476 5.6347,-5.7927 0.2188,-6.1562 z m -380.22,59.656 c -27.099,0.6997 -54.17,11.753 -72.375,32.062 -35.928,-31.582 -88,-38.136 -133.19,-27.122 -25.704,6.5054 -52.732,20.221 -63.9,45.56 -3.9435,9.7492 -3.3465,20.629 -1.2813,30.719 -42.423,-7.5962 -87.452,24.46 -93.505,67.242 -5.4369,32.07 11.283,65.655 38.786,82.196 5.7878,5.7407 3.3106,14.412 0.75,20.969 -1.5531,14.341 11.216,24.786 22.344,31.375 20.498,12.645 44.439,17.364 68,19.906 8.4358,2.1387 13.761,11.594 10.75,19.875 -1.7771,23.022 16.765,41.811 35.969,51.563 41.882,22.779 93.524,23.55 137.97,8.3781 4.8808,-1.7421 10.634,-5.6549 11.372,1.9969 8.5758,19.77 32.398,35.081 53.844,26.594 22.498,-8.6048 34.095,-33.098 36.274,-55.911 0.1984,-5.4518 6.6632,1.9792 10.179,2.3615 23.596,10.517 53.86,2.557 68.297,-19.169 4.9496,-6.8428 8.2374,-14.742 10.438,-22.875 30.552,10.023 65.233,-10.91 74.875,-40.719 9.6566,-25.281 4.9005,-55.73 -12.75,-76.219 26.861,-26.118 29.276,-73.073 4.0312,-101.19 -24.653,-29.605 -68.078,-39.67 -103.91,-27.469 -7.3308,1.2979 -13.283,-6.3718 -11.969,-13.188 -5.2187,-27.233 -30.666,-46.189 -56.337,-52.742 -11.232,-3.1179 -22.858,-4.549 -34.663,-4.1959 z m 344.44,22.062 c -3.8045,-0.30908 -10.05,4.31 -7.125,8.2812 4.4083,5.3028 16.058,4.782 17.625,-2.6875 -0.9817,-4.3005 -6.6879,-5.6867 -10.5,-5.5938 z m -68.312,48.625 c -13.265,-0.74831 -23.377,17.776 -13.281,27.688 8.8462,10.023 28.627,7.3604 31.906,-6.5 3.354,-11.673 -7.2543,-22.032 -18.625,-21.188 z"
           inkscape:connector-curvature="0" />
        <path
           id="path7437"
           d="m -1877.5,-563.75 c -3.9673,-0.66553 -4.7869,6.9441 -0.2188,6.1562 5.1827,-0.14476 5.6347,-5.7927 0.2188,-6.1562 z m -380.22,59.656 c -27.099,0.6997 -54.17,11.753 -72.375,32.062 -35.928,-31.582 -88,-38.136 -133.19,-27.122 -25.704,6.5054 -52.732,20.221 -63.9,45.56 -3.9435,9.7492 -3.3465,20.629 -1.2813,30.719 -42.423,-7.5962 -87.452,24.46 -93.505,67.242 -5.4369,32.07 11.283,65.655 38.786,82.196 5.7878,5.7407 3.3106,14.412 0.75,20.969 -1.5531,14.341 11.216,24.786 22.344,31.375 20.498,12.645 44.439,17.364 68,19.906 8.4358,2.1387 13.761,11.594 10.75,19.875 -1.7771,23.022 16.765,41.811 35.969,51.563 41.882,22.779 93.524,23.55 137.97,8.3781 4.8808,-1.7421 10.634,-5.6549 11.372,1.9969 8.5758,19.77 32.398,35.081 53.844,26.594 22.498,-8.6048 34.095,-33.098 36.274,-55.911 0.1984,-5.4518 6.6632,1.9792 10.179,2.3615 23.596,10.517 53.86,2.557 68.297,-19.169 4.9496,-6.8428 8.2374,-14.742 10.438,-22.875 30.552,10.023 65.233,-10.91 74.875,-40.719 9.6566,-25.281 4.9005,-55.73 -12.75,-76.219 26.861,-26.118 29.276,-73.073 4.0312,-101.19 -24.653,-29.605 -68.078,-39.67 -103.91,-27.469 -7.3308,1.2979 -13.283,-6.3718 -11.969,-13.188 -5.2187,-27.233 -30.666,-46.189 -56.337,-52.742 -11.232,-3.1179 -22.858,-4.549 -34.663,-4.1959 z m 344.44,22.062 c -3.8045,-0.30908 -10.05,4.31 -7.125,8.2812 4.4083,5.3028 16.058,4.782 17.625,-2.6875 -0.9817,-4.3005 -6.6879,-5.6867 -10.5,-5.5938 z m -68.312,48.625 c -13.265,-0.74831 -23.377,17.776 -13.281,27.688 8.8462,10.023 28.627,7.3604 31.906,-6.5 3.354,-11.673 -7.2543,-22.032 -18.625,-21.188 z"
           clip-path="url(#clipPath5930)"
           inkscape:connector-curvature="0" />
      </g>
      <g
         id="g5943"
         transform="matrix(1.0292,0,0,1.0292,2627.2,1089.7)">
        <path
           id="path5336"
           d="m -1898.2,-683.38 c 0,4.5944 -5.5867,8.3189 -12.478,8.3189 -6.8916,0 -12.478,-3.7245 -12.478,-8.3189 0,-4.5944 5.5867,-8.3189 12.478,-8.3189 6.8916,0 12.478,3.7245 12.478,8.3189 z m 30.503,52.686 c 0,6.8916 -6.8282,12.478 -15.251,12.478 -8.423,0 -15.251,-5.5867 -15.251,-12.478 0,-6.8916 6.8283,-12.478 15.251,-12.478 8.4231,0 15.251,5.5867 15.251,12.478 z m 9.7054,70.017 c 0,10.337 -8.6905,18.718 -19.411,18.718 -10.7205,0 -19.411,-8.3801 -19.411,-18.718 0,-10.337 8.6905,-18.718 19.411,-18.718 10.7205,0 19.411,8.3801 19.411,18.718 z m -29.116,84.575 c 0,11.869 -11.174,21.49 -24.957,21.49 -13.783,0 -24.957,-9.6216 -24.957,-21.49 0,-11.869 11.174,-21.49 24.957,-21.49 13.783,0 24.957,9.6216 24.957,21.49 z m -59.619,59.619 c 0,17.995 -15.208,32.582 -33.969,32.582 -18.76,0 -33.969,-14.588 -33.969,-32.582 0,-17.995 15.208,-32.582 33.969,-32.582 18.76,0 33.969,14.588 33.969,32.582 z m -496.36,73.484 c 0,53.218 -43.763,96.36 -97.747,96.36 -53.984,0 -97.747,-43.142 -97.747,-96.36 0,-53.218 43.763,-96.36 97.747,-96.36 53.984,0 97.747,43.142 97.747,96.36 z m 142.81,-96.361 c 0,44.413 -54.936,80.416 -122.7,80.416 -67.767,0 -122.7,-36.003 -122.7,-80.416 0,-44.412 54.936,-80.416 122.7,-80.416 67.767,0 122.7,36.003 122.7,80.416 z m -83.189,124.09 c 0,33.309 -47.177,60.312 -105.37,60.312 -58.196,0 -105.37,-27.003 -105.37,-60.312 0,-33.309 47.177,-60.312 105.37,-60.312 58.196,0 105.37,27.003 105.37,60.312 z m 42.981,65.858 c 0,35.989 -57.73,65.165 -128.94,65.165 -71.213,0 -128.94,-29.175 -128.94,-65.165 0,-35.989 57.73,-65.165 128.94,-65.165 71.213,0 128.94,29.175 128.94,65.165 z m 102.6,72.097 c 0,45.178 -58.04,81.802 -129.64,81.802 -71.596,0 -129.64,-36.624 -129.64,-81.802 0,-45.178 58.04,-81.802 129.64,-81.802 71.596,0 129.64,36.624 129.64,81.802 z m 47.14,23.57 c 0,43.647 -28.865,79.03 -64.471,79.03 -35.607,0 -64.472,-35.383 -64.472,-79.03 0,-43.647 28.865,-79.029 64.471,-79.029 35.607,0 64.472,35.383 64.472,79.029 z m 90.121,-47.14 c 0,41.35 -32.279,74.87 -72.097,74.87 -39.818,0 -72.097,-33.52 -72.097,-74.87 0,-41.35 32.279,-74.87 72.097,-74.87 39.818,0 72.097,33.52 72.097,74.87 z m 79.029,-55.459 c 0,47.475 -35.072,85.962 -78.336,85.962 -43.264,0 -78.336,-38.486 -78.336,-85.962 0,-47.475 35.072,-85.962 78.336,-85.962 43.264,0 78.336,38.486 78.336,85.962 z m 4.1595,-101.91 c 0,53.218 -47.177,96.36 -105.37,96.36 -58.196,0 -105.37,-43.142 -105.37,-96.36 0,-53.218 47.177,-96.36 105.37,-96.36 58.196,0 105.37,43.142 105.37,96.36 z m -133.1,-81.109 c 0,44.413 -46.246,80.416 -103.29,80.416 -57.047,0 -103.29,-36.003 -103.29,-80.416 0,-44.412 46.246,-80.416 103.29,-80.416 57.047,0 103.29,36.003 103.29,80.416 z m 79.029,140.73 c 0,96.865 -100.25,175.39 -223.92,175.39 -123.67,0 -223.92,-78.525 -223.92,-175.39 0,-96.865 100.25,-175.39 223.92,-175.39 123.67,0 223.92,78.525 223.92,175.39 z"
           inkscape:connector-curvature="0"
           style="fill:#554400" />
        <path
           id="path5709"
           d="m -1877.5,-563.75 c -3.9673,-0.66553 -4.7869,6.9441 -0.2188,6.1562 5.1827,-0.14476 5.6347,-5.7927 0.2188,-6.1562 z m -380.22,59.656 c -27.099,0.6997 -54.17,11.753 -72.375,32.062 -35.928,-31.582 -88,-38.136 -133.19,-27.122 -25.704,6.5054 -52.732,20.221 -63.9,45.56 -3.9435,9.7492 -3.3465,20.629 -1.2813,30.719 -42.423,-7.5962 -87.452,24.46 -93.505,67.242 -5.4369,32.07 11.283,65.655 38.786,82.196 5.7878,5.7407 3.3106,14.412 0.75,20.969 -1.5531,14.341 11.216,24.786 22.344,31.375 20.498,12.645 44.439,17.364 68,19.906 8.4358,2.1387 13.761,11.594 10.75,19.875 -1.7771,23.022 16.765,41.811 35.969,51.563 41.882,22.779 93.524,23.55 137.97,8.3781 4.8808,-1.7421 10.634,-5.6549 11.372,1.9969 8.5758,19.77 32.398,35.081 53.844,26.594 22.498,-8.6048 34.095,-33.098 36.274,-55.911 0.1984,-5.4518 6.6632,1.9792 10.179,2.3615 23.596,10.517 53.86,2.557 68.297,-19.169 4.9496,-6.8428 8.2374,-14.742 10.438,-22.875 30.552,10.023 65.233,-10.91 74.875,-40.719 9.6566,-25.281 4.9005,-55.73 -12.75,-76.219 26.861,-26.118 29.276,-73.073 4.0312,-101.19 -24.653,-29.605 -68.078,-39.67 -103.91,-27.469 -7.3308,1.2979 -13.283,-6.3718 -11.969,-13.188 -5.2187,-27.233 -30.666,-46.189 -56.337,-52.742 -11.232,-3.1179 -22.858,-4.549 -34.663,-4.1959 z m 344.44,22.062 c -3.8045,-0.30908 -10.05,4.31 -7.125,8.2812 4.4083,5.3028 16.058,4.782 17.625,-2.6875 -0.9817,-4.3005 -6.6879,-5.6867 -10.5,-5.5938 z m -68.312,48.625 c -13.265,-0.74831 -23.377,17.776 -13.281,27.688 8.8462,10.023 28.627,7.3604 31.906,-6.5 3.354,-11.673 -7.2543,-22.032 -18.625,-21.188 z"
           inkscape:connector-curvature="0"
           style="fill:#ffcc00" />
        <path
           id="path5898"
           d="m -1877.5,-563.75 c -3.9673,-0.66553 -4.7869,6.9441 -0.2188,6.1562 5.1827,-0.14476 5.6347,-5.7927 0.2188,-6.1562 z m -380.22,59.656 c -27.099,0.6997 -54.17,11.753 -72.375,32.062 -35.928,-31.582 -88,-38.136 -133.19,-27.122 -25.704,6.5054 -52.732,20.221 -63.9,45.56 -3.9435,9.7492 -3.3465,20.629 -1.2813,30.719 -42.423,-7.5962 -87.452,24.46 -93.505,67.242 -5.4369,32.07 11.283,65.655 38.786,82.196 5.7878,5.7407 3.3106,14.412 0.75,20.969 -1.5531,14.341 11.216,24.786 22.344,31.375 20.498,12.645 44.439,17.364 68,19.906 8.4358,2.1387 13.761,11.594 10.75,19.875 -1.7771,23.022 16.765,41.811 35.969,51.563 41.882,22.779 93.524,23.55 137.97,8.3781 4.8808,-1.7421 10.634,-5.6549 11.372,1.9969 8.5758,19.77 32.398,35.081 53.844,26.594 22.498,-8.6048 34.095,-33.098 36.274,-55.911 0.1984,-5.4518 6.6632,1.9792 10.179,2.3615 23.596,10.517 53.86,2.557 68.297,-19.169 4.9496,-6.8428 8.2374,-14.742 10.438,-22.875 30.552,10.023 65.233,-10.91 74.875,-40.719 9.6566,-25.281 4.9005,-55.73 -12.75,-76.219 26.861,-26.118 29.276,-73.073 4.0312,-101.19 -24.653,-29.605 -68.078,-39.67 -103.91,-27.469 -7.3308,1.2979 -13.283,-6.3718 -11.969,-13.188 -5.2187,-27.233 -30.666,-46.189 -56.337,-52.742 -11.232,-3.1179 -22.858,-4.549 -34.663,-4.1959 z m 344.44,22.062 c -3.8045,-0.30908 -10.05,4.31 -7.125,8.2812 4.4083,5.3028 16.058,4.782 17.625,-2.6875 -0.9817,-4.3005 -6.6879,-5.6867 -10.5,-5.5938 z m -68.312,48.625 c -13.265,-0.74831 -23.377,17.776 -13.281,27.688 8.8462,10.023 28.627,7.3604 31.906,-6.5 3.354,-11.673 -7.2543,-22.032 -18.625,-21.188 z"
           inkscape:connector-curvature="0"
           style="fill:url(#linearGradient5949)" />
        <path
           id="path5910"
           d="m -1877.5,-563.75 c -3.9673,-0.66553 -4.7869,6.9441 -0.2188,6.1562 5.1827,-0.14476 5.6347,-5.7927 0.2188,-6.1562 z m -380.22,59.656 c -27.099,0.6997 -54.17,11.753 -72.375,32.062 -35.928,-31.582 -88,-38.136 -133.19,-27.122 -25.704,6.5054 -52.732,20.221 -63.9,45.56 -3.9435,9.7492 -3.3465,20.629 -1.2813,30.719 -42.423,-7.5962 -87.452,24.46 -93.505,67.242 -5.4369,32.07 11.283,65.655 38.786,82.196 5.7878,5.7407 3.3106,14.412 0.75,20.969 -1.5531,14.341 11.216,24.786 22.344,31.375 20.498,12.645 44.439,17.364 68,19.906 8.4358,2.1387 13.761,11.594 10.75,19.875 -1.7771,23.022 16.765,41.811 35.969,51.563 41.882,22.779 93.524,23.55 137.97,8.3781 4.8808,-1.7421 10.634,-5.6549 11.372,1.9969 8.5758,19.77 32.398,35.081 53.844,26.594 22.498,-8.6048 34.095,-33.098 36.274,-55.911 0.1984,-5.4518 6.6632,1.9792 10.179,2.3615 23.596,10.517 53.86,2.557 68.297,-19.169 4.9496,-6.8428 8.2374,-14.742 10.438,-22.875 30.552,10.023 65.233,-10.91 74.875,-40.719 9.6566,-25.281 4.9005,-55.73 -12.75,-76.219 26.861,-26.118 29.276,-73.073 4.0312,-101.19 -24.653,-29.605 -68.078,-39.67 -103.91,-27.469 -7.3308,1.2979 -13.283,-6.3718 -11.969,-13.188 -5.2187,-27.233 -30.666,-46.189 -56.337,-52.742 -11.232,-3.1179 -22.858,-4.549 -34.663,-4.1959 z m 344.44,22.062 c -3.8045,-0.30908 -10.05,4.31 -7.125,8.2812 4.4083,5.3028 16.058,4.782 17.625,-2.6875 -0.9817,-4.3005 -6.6879,-5.6867 -10.5,-5.5938 z m -68.312,48.625 c -13.265,-0.74831 -23.377,17.776 -13.281,27.688 8.8462,10.023 28.627,7.3604 31.906,-6.5 3.354,-11.673 -7.2543,-22.032 -18.625,-21.188 z"
           clip-path="url(#clipPath5930)"
           inkscape:connector-curvature="0"
           style="fill:url(#linearGradient7390)" />
      </g>
    </g>
  </g>
  <metadata
     id="metadata26">
    <rdf:RDF>
      <cc:Work>
        <dc:format>image/svg+xml</dc:format>
        <dc:type
           rdf:resource="http://purl.org/dc/dcmitype/StillImage" />
        <cc:license
           rdf:resource="http://creativecommons.org/licenses/publicdomain/" />
        <dc:publisher>
          <cc:Agent
             rdf:about="http://openclipart.org/">
            <dc:title>Openclipart</dc:title>
          </cc:Agent>
        </dc:publisher>
        <dc:title>Speach Bubble</dc:title>
        <dc:date>2010-08-02T14:30:00</dc:date>
        <dc:description>Speach Bubble</dc:description>
        <dc:source>http://openclipart.org/detail/76081/speach-bubble-by-inky2010-76081</dc:source>
        <dc:creator>
          <cc:Agent>
            <dc:title>inky2010</dc:title>
          </cc:Agent>
        </dc:creator>
        <dc:subject>
          <rdf:Bag>
            <rdf:li>Inky2010</rdf:li>
            <rdf:li>Speach Bubble</rdf:li>
            <rdf:li>bubble</rdf:li>
            <rdf:li>clip art</rdf:li>
            <rdf:li>clipart</rdf:li>
            <rdf:li>gloss</rdf:li>
            <rdf:li>glossy</rdf:li>
            <rdf:li>speach</rdf:li>
            <rdf:li>vector</rdf:li>
          </rdf:Bag>
        </dc:subject>
      </cc:Work>
      <cc:License
         rdf:about="http://creativecommons.org/licenses/publicdomain/">
        <cc:permits
           rdf:resource="http://creativecommons.org/ns#Reproduction" />
        <cc:permits
           rdf:resource="http://creativecommons.org/ns#Distribution" />
        <cc:permits
           rdf:resource="http://creativecommons.org/ns#DerivativeWorks" />
      </cc:License>
    </rdf:RDF>
  </metadata>
</svg>
