<?xml version="1.0" encoding="UTF-8" standalone="no"?>
<!-- Created with Inkscape (http://www.inkscape.org/) -->

<svg
   xmlns:dc="http://purl.org/dc/elements/1.1/"
   xmlns:cc="http://creativecommons.org/ns#"
   xmlns:rdf="http://www.w3.org/1999/02/22-rdf-syntax-ns#"
   xmlns:svg="http://www.w3.org/2000/svg"
   xmlns="http://www.w3.org/2000/svg"
   xmlns:xlink="http://www.w3.org/1999/xlink"
   xmlns:sodipodi="http://sodipodi.sourceforge.net/DTD/sodipodi-0.dtd"
   xmlns:inkscape="http://www.inkscape.org/namespaces/inkscape"
   id="svg2"
   sodipodi:docname="board.svg"
   viewBox="0 0 498.97541 679.58525"
   version="1.1"
   inkscape:version="0.48.2 r9819"
   width="100%"
   height="100%">
  <defs
     id="defs4">
    <linearGradient
       id="linearGradient3731"
       inkscape:collect="always">
      <stop
         id="stop3733"
         style="stop-color:#555753"
         offset="0" />
      <stop
         id="stop3735"
         style="stop-color:#babdb6"
         offset="1" />
    </linearGradient>
    <linearGradient
       id="linearGradient3647"
       inkscape:collect="always">
      <stop
         id="stop3649"
         style="stop-color:#2e3436"
         offset="0" />
      <stop
         id="stop3657"
         style="stop-color:#888a85"
         offset=".58776" />
      <stop
         id="stop3655"
         style="stop-color:#babdb6"
         offset=".79379" />
      <stop
         id="stop3651"
         style="stop-color:#2e3436"
         offset="1" />
    </linearGradient>
    <linearGradient
       id="linearGradient2829"
       inkscape:collect="always">
      <stop
         id="stop2831"
         style="stop-color:#babdb6"
         offset="0" />
      <stop
         id="stop3609"
         style="stop-color:#eeeeec"
         offset=".19272" />
      <stop
         id="stop2833"
         style="stop-color:#888a85"
         offset="1" />
    </linearGradient>
    <linearGradient
       id="linearGradient2835"
       y2="157.82001"
       xlink:href="#linearGradient2829"
       gradientUnits="userSpaceOnUse"
       x2="160.55"
       gradientTransform="matrix(2.943,0,0,0.99684,-23.486,-24.631)"
       y1="157.82001"
       x1="155.7"
       inkscape:collect="always" />
    <linearGradient
       id="linearGradient3631"
       y2="157.82001"
       xlink:href="#linearGradient2829"
       gradientUnits="userSpaceOnUse"
       x2="160.55"
       gradientTransform="matrix(2.943,0,0,1.0859,-40.788,-161.81)"
       y1="157.82001"
       x1="155.7"
       inkscape:collect="always" />
    <linearGradient
       id="linearGradient3635"
       y2="157.82001"
       xlink:href="#linearGradient2829"
       gradientUnits="userSpaceOnUse"
       x2="160.55"
       gradientTransform="matrix(2.943,0,0,1.0859,-49.733,111.15)"
       y1="157.82001"
       x1="155.7"
       inkscape:collect="always" />
    <linearGradient
       id="linearGradient3668"
       y2="687.35999"
       xlink:href="#linearGradient3647"
       gradientUnits="userSpaceOnUse"
       x2="209"
       gradientTransform="matrix(-0.95106,0.30902,0.30902,0.95106,645.5,-42.696)"
       y1="687.35999"
       x1="221"
       inkscape:collect="always" />
    <linearGradient
       id="linearGradient3670"
       y2="687.35999"
       xlink:href="#linearGradient3647"
       gradientUnits="userSpaceOnUse"
       x2="209"
       gradientTransform="matrix(0.95106,0.30902,-0.30902,0.95106,230.53,-42.696)"
       y1="687.35999"
       x1="221"
       inkscape:collect="always" />
    <linearGradient
       id="linearGradient3674"
       y2="687.35999"
       xlink:href="#linearGradient3647"
       gradientUnits="userSpaceOnUse"
       x2="209"
       gradientTransform="translate(223.79,-35.211)"
       y1="687.35999"
       x1="221"
       inkscape:collect="always" />
    <filter
       id="filter3711"
       inkscape:collect="always"
       color-interpolation-filters="sRGB">
      <feGaussianBlur
         id="feGaussianBlur3713"
         stdDeviation="2.4432187"
         inkscape:collect="always" />
    </filter>
    <linearGradient
       id="linearGradient3717"
       y2="687.35999"
       xlink:href="#linearGradient3647"
       gradientUnits="userSpaceOnUse"
       x2="209"
       gradientTransform="translate(205.99,-333.52)"
       y1="687.35999"
       x1="221"
       inkscape:collect="always" />
    <linearGradient
       id="linearGradient3721"
       y2="687.35999"
       xlink:href="#linearGradient3647"
       gradientUnits="userSpaceOnUse"
       x2="209"
       gradientTransform="translate(197.69,-62.638)"
       y1="687.35999"
       x1="221"
       inkscape:collect="always" />
    <linearGradient
       id="linearGradient3737"
       y2="632.35999"
       xlink:href="#linearGradient3731"
       gradientUnits="userSpaceOnUse"
       x2="930.37"
       gradientTransform="translate(-379.63,-724.01)"
       y1="632.35999"
       x1="912.87"
       inkscape:collect="always" />
    <linearGradient
       id="linearGradient3745"
       y2="632.35999"
       xlink:href="#linearGradient3731"
       gradientUnits="userSpaceOnUse"
       x2="930.37"
       gradientTransform="translate(-801.42,45.168)"
       y1="632.35999"
       x1="912.87"
       inkscape:collect="always" />
    <linearGradient
       id="linearGradient3800"
       y2="356.35999"
       gradientUnits="userSpaceOnUse"
       x2="534"
       y1="61.032001"
       x1="256"
       inkscape:collect="always">
      <stop
         id="stop3796"
         style="stop-color:#eeeeec"
         offset="0" />
      <stop
         id="stop3798"
         style="stop-color:#faf7f6"
         offset="1" />
    </linearGradient>
    <linearGradient
       id="linearGradient3831"
       y2="57.032001"
       gradientUnits="userSpaceOnUse"
       x2="726.23999"
       gradientTransform="translate(-528.25,5)"
       y1="406.84"
       x1="1208.9"
       inkscape:collect="always">
      <stop
         id="stop3814"
         style="stop-color:#2e3436"
         offset="0" />
      <stop
         id="stop3816"
         style="stop-color:#eeeeec"
         offset="1" />
    </linearGradient>
    <filter
       id="filter5593"
       inkscape:collect="always"
       color-interpolation-filters="sRGB">
      <feGaussianBlur
         id="feGaussianBlur5595"
         stdDeviation="2.2809029"
         inkscape:collect="always" />
    </filter>
  </defs>
  <sodipodi:namedview
     id="base"
     bordercolor="#666666"
     inkscape:pageshadow="2"
     inkscape:window-y="0"
     pagecolor="#ffffff"
     inkscape:window-height="752"
     inkscape:window-maximized="1"
     inkscape:zoom="0.81078865"
     inkscape:window-x="0"
     showgrid="false"
     borderopacity="1.0"
     inkscape:current-layer="layer1"
     inkscape:cx="249.4877"
     inkscape:cy="339.79262"
     showguides="true"
     inkscape:guide-bbox="true"
     inkscape:window-width="1280"
     inkscape:pageopacity="0.0"
     inkscape:document-units="px"
     fit-margin-top="0"
     fit-margin-left="0"
     fit-margin-right="0"
     fit-margin-bottom="0" />
  <g
     id="layer1"
     inkscape:label="Capa 1"
     inkscape:groupmode="layer"
     transform="translate(-197.24001,-7.3747508)">
    <path
       id="rect3833"
       sodipodi:nodetypes="cccccccccccccccccccccccccccccccccccccccccccccccccsccccccccccccccccccccccccccccccccc"
       style="fill:#eeeeec;filter:url(#filter5593)"
       transform="matrix(1,0,-0.35983,0.82008,232.29,125.14)"
       d="m 434.78,545.41 -6,3.3904 h 2.9063 l -12.156,7.3458 h -95 v -0.0553 c -12.96,-0.2 -22.13,1.09 -24.53,3.65 l -100,61.567 c 0,1.9774 8.2202,3.593 18.281,3.593 h 87.594 l -13.469,8.1442 -1.2188,-0.0798 -7.7188,4.674 1.2188,0.0798 -60.781,36.759 -1.1562,-0.0737 -7.5312,4.5696 h 12.594 l 6.3438,-3.8387 -0.71875,-0.0491 60.781,-36.759 0.65625,0.043 2.875,-1.732 108.06,-11.737 h 29.75 v 44.775 h -0.7813 v 4.9136 h 12 v -4.9136 h -1.2187 v -44.775 h 25.312 l 112.78,12.241 2.0313,1.2284 0.625,-0.043 60.719,36.735 -1.1562,0.0737 6.3438,3.8387 h 12.594 l -7.5313,-4.5696 -0.75,0.0491 -60.719,-36.729 1.3125,-0.086 -7.75,-4.674 -1.2812,0.0798 -13.031,-8.1442 h 89.312 c 8.2856,0 15.306,-1.0946 17.531,-2.5858 0.089,-0.0559 0.1437,-0.11493 0.2188,-0.17197 0.046,-0.0373 0.1168,-0.0728 0.1562,-0.11056 l -99.51,-62.35 c 0,-1.9774 -8.2202,-3.593 -18.281,-3.593 l -103.5,0.0553 -12.125,-7.3273 3.4687,-0.006 -0.031,-0.0123 h 0.5 l -6,-3.3904 -12,-1e-5 v 3e-5 z m 0.7813,7.3949 v 3.3412 H 430.03 l 5.5313,-3.3412 z m 10,0.39308 4.875,2.9481 h -4.875 v -2.9481 z m -128.62,71.701 h 68.219 l -82.844,8.9918 0.3125,-0.19655 -0.6875,-0.043 15,-8.7523 v -2e-5 z m 174.59,0 h 72.563 l 14.5,8.7584 -0.625,0.0368 1.1562,0.70632 -87.594,-9.5016 v 2e-5 z"
       inkscape:connector-curvature="0" />
    <rect
       id="rect3743"
       style="fill:url(#linearGradient3745)"
       transform="matrix(-0.48331,0.87545,0.87545,0.48331,0,0)"
       height="178.08"
       width="10"
       y="562.84003"
       x="123.95" />
    <rect
       id="rect3727"
       style="fill:url(#linearGradient3737)"
       transform="matrix(0.48331294,0.87544766,-0.87544766,0.48331294,0,0)"
       height="178.08"
       width="10"
       y="-206.33"
       x="545.73999" />
    <rect
       id="rect2827"
       style="fill:url(#linearGradient2835)"
       height="632.39001"
       width="10"
       y="15.904"
       x="433.57001" />
    <rect
       id="rect3637"
       style="opacity:0.3;fill:#555753"
       height="647.67999"
       width="10"
       y="16.611"
       x="433.57001" />
    <rect
       id="rect3629"
       style="fill:url(#linearGradient3631)"
       transform="matrix(0.95105652,0.30901699,-0.30901699,0.95105652,0,0)"
       height="688.87"
       width="10"
       y="-117.65"
       x="416.26999" />
    <rect
       id="rect3633"
       style="fill:url(#linearGradient3635)"
       transform="matrix(0.95105652,-0.30901699,0.30901699,0.95105652,0,0)"
       height="688.87"
       width="10"
       y="155.3"
       x="407.32999" />
    <rect
       id="rect3689"
       style="fill:url(#linearGradient3800);stroke:#888a85;stroke-width:8;stroke-linejoin:round"
       ry="14.286"
       height="341.79999"
       width="474.66"
       y="65.031998"
       x="201.24001" />
    <rect
       id="rect2834"
       style="fill:none;stroke:#888a85;stroke-width:8;stroke-linejoin:round"
       ry="14.286"
       height="341.79999"
       width="474.66"
       y="65.031998"
       x="201.24001" />
    <path
       id="rect3684"
       style="fill:#d3d7cf;filter:url(#filter3711)"
       d="m 217.53,67.031 c -7.9143,0 -14.281,6.367 -14.281,14.281 v 313.25 c 0,6.0409 3.7231,11.154 9,13.25 -0.6412,-1.6269 -1,-3.39 -1,-5.25 V 89.312 c 0,-7.9143 6.367,-14.281 14.281,-14.281 h 446.09 c 1.8629,0 3.621,0.38817 5.25,1.0312 -2.0889,-5.2914 -7.1986,-9.0312 -13.25,-9.0312 H 217.53 z"
       inkscape:connector-curvature="0" />
    <path
       id="rect3659"
       style="fill:url(#linearGradient3670)"
       d="m 220.76,663.71 -7.5312,23.25 h 12.594 l 6.3438,-19.531 -11.406,-3.7188 z"
       inkscape:connector-curvature="0" />
    <path
       id="path3666"
       style="fill:url(#linearGradient3668)"
       d="m 655.27,663.71 7.5312,23.25 h -12.594 l -6.3438,-19.531 11.406,-3.7188 z"
       inkscape:connector-curvature="0" />
    <rect
       id="rect3672"
       style="fill:url(#linearGradient3674)"
       height="25"
       width="12"
       y="639.65002"
       x="432.79001" />
    <path
       id="path3676"
       sodipodi:nodetypes="ccccc"
       style="opacity:0.25;fill:#555753"
       d="m 304.25,411.11 11,-0.25 -6.5,19.5 -10.75,0.25 6.25,-19.5 z"
       inkscape:connector-curvature="0" />
    <path
       id="path3678"
       sodipodi:nodetypes="ccccc"
       style="opacity:0.25;fill:#555753"
       d="m 572.75,410.86 -11,-0.25 6.5,19.5 10.75,0.25 -6.25,-19.5 z"
       inkscape:connector-curvature="0" />
    <rect
       id="rect3680"
       style="opacity:0.25;fill:#555753"
       height="23.25"
       width="9.5"
       y="410.85999"
       x="433.75" />
    <rect
       id="rect3715"
       style="fill:url(#linearGradient3717)"
       transform="matrix(0.95105652,0.30901699,-0.30901699,0.95105652,0,0)"
       height="25"
       width="12"
       y="341.34"
       x="414.98999" />
    <rect
       id="rect3719"
       style="fill:url(#linearGradient3721)"
       transform="matrix(0.95105652,-0.30901699,0.30901699,0.95105652,0,0)"
       height="25"
       width="12"
       y="612.21997"
       x="406.69" />
    <path
       id="rect3749"
       sodipodi:nodetypes="ccccc"
       style="fill:#555753"
       d="m 432.79,7.4017 h 12 l 6,17.25 h -24 l 6,-17.25 z"
       inkscape:connector-curvature="0" />
    <path
       id="path3772"
       style="fill:#eeeeec"
       d="m 433.56,7.375 -6,17.25 h 0.65625 l 6,-17.219 h 1.3438 V 7.37475 h -2 z"
       inkscape:connector-curvature="0" />
    <path
       id="path3787"
       style="fill:#2e3436"
       d="m 444.32,7.4532 6,17.25 h -2 l -6,-17.25 h 2 z"
       inkscape:connector-curvature="0" />
    <path
       id="path3790"
       sodipodi:nodetypes="ccccc"
       style="opacity:0.7;fill:#2e3436"
       d="m 442.46,7.4532 6,17.25 -3.0607,0.08839 -4.9393,-17.338 h 2 z"
       inkscape:connector-curvature="0" />
    <path
       id="path3792"
       sodipodi:nodetypes="ccccc"
       style="opacity:0.4;fill:#2e3436"
       d="m 440.43,7.4532 5.0277,17.338 -3.2374,0.08839 -3.1716,-17.338 1.3813,-0.088388 z"
       inkscape:connector-curvature="0" />
    <path
       id="rect3802"
       style="text-indent:0;text-transform:none;block-progression:tb;opacity:0.62782;color:#000000;fill:url(#linearGradient3831)"
       d="m 216.28,62.031 c -10.06,0 -18.28,8.22 -18.28,18.281 v 313.25 c 0,10.061 8.2202,18.281 18.281,18.281 h 446.09 c 10.061,0 18.281,-8.2202 18.281,-18.281 V 80.312 c 0,-10.061 -8.2201,-18.281 -18.281,-18.281 h -446.09 z m 2.7812,2.1875 h 440.53 c 9.9359,0 18.062,8.0952 18.062,18.031 v 309.38 c 0,9.936 -8.1265,18.031 -18.062,18.031 h -440.53 c -9.93,0 -18.06,-8.1 -18.06,-18.04 v -309.37 c 0,-9.936 8.1265,-18.031 18.062,-18.031 z"
       inkscape:connector-curvature="0" />
    <path
       id="rect3610"
       style="text-indent:0;text-transform:none;block-progression:tb;color:#000000;fill:#000000"
       d="m 216.37,61.754 c -10.061,0 -18.281,8.2202 -18.281,18.281 v 6.625 h 8 v -6.625 c 0,-5.7675 4.5138,-10.281 10.281,-10.281 h 6.1562 v -8 H 216.37 z m 439.94,0 v 8 h 6.1562 c 5.7675,0 10.281,4.5138 10.281,10.281 v 6.625 h 8 v -6.625 c 0,-10.061 -8.2202,-18.281 -18.281,-18.281 H 656.31 z m -458.22,324.91 v 6.5938 c 0,10.061 8.2202,18.281 18.281,18.281 h 6.1562 v -8 h -6.1562 c -5.7675,0 -10.281,-4.5138 -10.281,-10.281 v -6.5938 h -8 z m 474.66,0 v 6.5938 c 0,5.7675 -4.5138,10.281 -10.281,10.281 h -6.1562 v 8 h 6.1562 c 10.061,0 18.281,-8.2202 18.281,-18.281 v -6.5938 h -8 z"
       inkscape:connector-curvature="0" />
    <text
       xml:space="preserve"
       style="font-size:18.00000026000000020px;font-style:normal;font-variant:normal;font-weight:normal;font-stretch:normal;line-height:125%;letter-spacing:0px;word-spacing:0px;fill:#ffffff;fill-opacity:0;stroke:none;font-family:Trebuchet MS;-inkscape-font-specification:Trebuchet MS"
       x="139.37048"
       y="240.50661"
       id="text3040"
       sodipodi:linespacing="125%"
       transform="translate(197.24001,7.3747379)"><tspan
         sodipodi:role="line"
         id="tspan3042"
         x="139.37048"
         y="240.50661">Boa</tspan></text>
    <text
       xml:space="preserve"
       style="font-size:64px;font-style:normal;font-variant:normal;font-weight:normal;font-stretch:normal;line-height:125%;letter-spacing:0px;word-spacing:0px;fill:#dc0000;fill-opacity:1;stroke:none;font-family:Trebuchet MS;-inkscape-font-specification:Trebuchet MS"
       x="313.17648"
       y="199.78003"
       id="text3044"
       sodipodi:linespacing="125%"><tspan
         sodipodi:role="line"
         id="tspan3046"
         x="313.17648"
         y="199.78003">Board</tspan><tspan
         sodipodi:role="line"
         x="313.17648"
         y="279.78006"
         id="tspan3048">Flipchart</tspan></text>
  </g>
  <metadata
     id="metadata63">
    <rdf:RDF>
      <cc:Work>
        <dc:format>image/svg+xml</dc:format>
        <dc:type
           rdf:resource="http://purl.org/dc/dcmitype/StillImage" />
        <cc:license
           rdf:resource="http://creativecommons.org/licenses/publicdomain/" />
        <dc:publisher>
          <cc:Agent
             rdf:about="http://openclipart.org/">
            <dc:title>Openclipart</dc:title>
          </cc:Agent>
        </dc:publisher>
        <dc:title>white board</dc:title>
        <dc:date>2010-03-18T20:53:20</dc:date>
        <dc:description />
        <dc:source>https://openclipart.org/detail/32389/white-board-by-rg1024</dc:source>
        <dc:creator>
          <cc:Agent>
            <dc:title>rg1024</dc:title>
          </cc:Agent>
        </dc:creator>
        <dc:subject>
          <rdf:Bag>
            <rdf:li>board</rdf:li>
            <rdf:li>classroom</rdf:li>
            <rdf:li>education</rdf:li>
            <rdf:li>school</rdf:li>
            <rdf:li>white board</rdf:li>
          </rdf:Bag>
        </dc:subject>
      </cc:Work>
      <cc:License
         rdf:about="http://creativecommons.org/licenses/publicdomain/">
        <cc:permits
           rdf:resource="http://creativecommons.org/ns#Reproduction" />
        <cc:permits
           rdf:resource="http://creativecommons.org/ns#Distribution" />
        <cc:permits
           rdf:resource="http://creativecommons.org/ns#DerivativeWorks" />
      </cc:License>
    </rdf:RDF>
  </metadata>
</svg>
