<?xml version="1.0" encoding="UTF-8" standalone="no"?>
<!-- Created with Inkscape (http://www.inkscape.org/) -->

<svg
   xmlns:dc="http://purl.org/dc/elements/1.1/"
   xmlns:cc="http://creativecommons.org/ns#"
   xmlns:rdf="http://www.w3.org/1999/02/22-rdf-syntax-ns#"
   xmlns:svg="http://www.w3.org/2000/svg"
   xmlns="http://www.w3.org/2000/svg"
   xmlns:xlink="http://www.w3.org/1999/xlink"
   xmlns:sodipodi="http://sodipodi.sourceforge.net/DTD/sodipodi-0.dtd"
   xmlns:inkscape="http://www.inkscape.org/namespaces/inkscape"
   id="svg1"
   sodipodi:docname="presentation.svg"
   viewBox="0 0 158.76221 106.57316"
   sodipodi:version="0.32"
   version="1.0"
   inkscape:output_extension="org.inkscape.output.svg.inkscape"
   inkscape:version="0.48.2 r9819"
   width="100%"
   height="100%">
  <defs
     id="defs3">
    <linearGradient
       id="linearGradient5204"
       inkscape:collect="always">
      <stop
         id="stop5206"
         style="stop-color:#d3d7cf"
         offset="0" />
      <stop
         id="stop5208"
         style="stop-color:#d3d7cf;stop-opacity:0"
         offset="1" />
    </linearGradient>
    <linearGradient
       id="linearGradient4717"
       inkscape:collect="always">
      <stop
         id="stop4719"
         style="stop-color:#d9886c"
         offset="0" />
      <stop
         id="stop4721"
         style="stop-color:#d9886c;stop-opacity:0"
         offset="1" />
    </linearGradient>
    <linearGradient
       id="linearGradient4693"
       inkscape:collect="always">
      <stop
         id="stop4695"
         style="stop-color:#eda890"
         offset="0" />
      <stop
         id="stop4697"
         style="stop-color:#eda890;stop-opacity:0"
         offset="1" />
    </linearGradient>
    <linearGradient
       id="linearGradient4683"
       inkscape:collect="always">
      <stop
         id="stop4685"
         style="stop-color:#e69d83"
         offset="0" />
      <stop
         id="stop4687"
         style="stop-color:#e69d83;stop-opacity:0"
         offset="1" />
    </linearGradient>
    <linearGradient
       id="linearGradient4667">
      <stop
         id="stop4669"
         style="stop-color:#d9886c"
         offset="0" />
      <stop
         id="stop4671"
         style="stop-color:#f1b6a1;stop-opacity:0"
         offset="1" />
    </linearGradient>
    <linearGradient
       id="linearGradient4636"
       inkscape:collect="always">
      <stop
         id="stop4638"
         style="stop-color:#eeeeec"
         offset="0" />
      <stop
         id="stop4640"
         style="stop-color:#eeeeec;stop-opacity:0"
         offset="1" />
    </linearGradient>
    <linearGradient
       id="linearGradient4415"
       inkscape:collect="always">
      <stop
         id="stop4417"
         style="stop-color:#babdb6"
         offset="0" />
      <stop
         id="stop4419"
         style="stop-color:#babdb6;stop-opacity:0"
         offset="1" />
    </linearGradient>
    <linearGradient
       id="linearGradient3517"
       inkscape:collect="always">
      <stop
         id="stop3519"
         style="stop-color:#d29c89"
         offset="0" />
      <stop
         id="stop3521"
         style="stop-color:#d29c89;stop-opacity:0"
         offset="1" />
    </linearGradient>
    <radialGradient
       id="radialGradient4946"
       xlink:href="#linearGradient3517"
       gradientUnits="userSpaceOnUse"
       cy="99.101997"
       cx="303.20001"
       gradientTransform="matrix(1.424,0.15319,-0.43096,4.0062,-79.347,-344.54)"
       r="3.8592"
       inkscape:collect="always" />
    <radialGradient
       id="radialGradient5056"
       xlink:href="#linearGradient3517"
       gradientUnits="userSpaceOnUse"
       cy="99.101997"
       cx="303.20001"
       gradientTransform="matrix(1.6537,0.1779,-0.50048,4.6525,-240.13,-122.49)"
       r="3.8592"
       inkscape:collect="always" />
    <linearGradient
       id="linearGradient5058"
       y2="331.70999"
       xlink:href="#linearGradient4717"
       gradientUnits="userSpaceOnUse"
       x2="397.29999"
       gradientTransform="translate(-100,-1)"
       y1="327.95999"
       x1="396.42001"
       inkscape:collect="always" />
    <linearGradient
       id="linearGradient5060"
       y2="367.97"
       xlink:href="#linearGradient4415"
       gradientUnits="userSpaceOnUse"
       x2="399"
       gradientTransform="translate(-100,-1)"
       y1="356.47"
       x1="397.38"
       inkscape:collect="always" />
    <linearGradient
       id="linearGradient5062"
       y2="327.92001"
       xlink:href="#linearGradient4683"
       gradientUnits="userSpaceOnUse"
       x2="610.38"
       gradientTransform="translate(-312.56,5.25)"
       y1="324"
       x1="610.38"
       inkscape:collect="always" />
    <linearGradient
       id="linearGradient5064"
       y2="322.28"
       xlink:href="#linearGradient4693"
       gradientUnits="userSpaceOnUse"
       x2="606.12"
       gradientTransform="translate(-312.69,5)"
       y1="322.28"
       x1="603"
       inkscape:collect="always" />
    <linearGradient
       id="linearGradient5066"
       y2="322.28"
       xlink:href="#linearGradient4693"
       gradientUnits="userSpaceOnUse"
       x2="606.12"
       gradientTransform="matrix(-1,0,0,1,907.19,4.9375)"
       y1="322.28"
       x1="603"
       inkscape:collect="always" />
    <linearGradient
       id="linearGradient5068"
       y2="308.47"
       xlink:href="#linearGradient4636"
       gradientUnits="userSpaceOnUse"
       x2="531.79999"
       gradientTransform="translate(0.37498,-0.125)"
       y1="300.78"
       x1="528.25"
       inkscape:collect="always" />
    <linearGradient
       id="linearGradient5070"
       y2="308.47"
       xlink:href="#linearGradient4636"
       gradientUnits="userSpaceOnUse"
       x2="531.79999"
       gradientTransform="matrix(-1,0,0,1,1079.6,-0.125)"
       y1="300.78"
       x1="528.25"
       inkscape:collect="always" />
    <radialGradient
       id="radialGradient5072"
       xlink:href="#linearGradient4667"
       gradientUnits="userSpaceOnUse"
       cy="323.89001"
       cx="596.71002"
       gradientTransform="matrix(0.75258,-0.6585,1.5806,1.8065,-462.38,129.62)"
       r="2.74"
       inkscape:collect="always" />
    <radialGradient
       id="radialGradient5074"
       xlink:href="#linearGradient4667"
       gradientUnits="userSpaceOnUse"
       cy="323.89001"
       cx="596.71002"
       gradientTransform="matrix(-0.75258,-0.6585,-1.5806,1.8065,1483.4,129.62)"
       r="2.74"
       inkscape:collect="always" />
    <linearGradient
       id="linearGradient5322"
       y2="152.72"
       xlink:href="#linearGradient5204"
       gradientUnits="userSpaceOnUse"
       x2="467.04001"
       gradientTransform="translate(6.3536,230.06)"
       y1="146.00999"
       x1="479.06"
       inkscape:collect="always" />
    <linearGradient
       id="linearGradient5324"
       y2="152.72"
       xlink:href="#linearGradient5204"
       gradientUnits="userSpaceOnUse"
       x2="467.04001"
       gradientTransform="matrix(-1,0,0,1,1019.6,225.82)"
       y1="146.00999"
       x1="479.06"
       inkscape:collect="always" />
    <linearGradient
       id="linearGradient5326"
       y2="152.72"
       xlink:href="#linearGradient5204"
       gradientUnits="userSpaceOnUse"
       x2="467.04001"
       gradientTransform="matrix(0.9802,-0.19803,0.19803,0.9802,6.6259,303.24)"
       y1="146.00999"
       x1="479.06"
       inkscape:collect="always" />
    <linearGradient
       id="linearGradient5328"
       y2="152.72"
       xlink:href="#linearGradient5204"
       gradientUnits="userSpaceOnUse"
       x2="467.04001"
       gradientTransform="matrix(-0.9802,-0.19803,-0.19803,0.9802,1013.2,303.64)"
       y1="146.00999"
       x1="479.06"
       inkscape:collect="always" />
    <filter
       id="filter5675"
       inkscape:collect="always"
       color-interpolation-filters="sRGB">
      <feGaussianBlur
         id="feGaussianBlur5677"
         stdDeviation="2.0579345"
         inkscape:collect="always" />
    </filter>
  </defs>
  <sodipodi:namedview
     id="base"
     bordercolor="#666666"
     inkscape:pageshadow="2"
     inkscape:guide-bbox="true"
     pagecolor="#ffffff"
     inkscape:zoom="2.5086957"
     inkscape:window-width="1272"
     showgrid="false"
     borderopacity="1.0"
     inkscape:current-layer="svg1"
     inkscape:cx="116.321"
     inkscape:cy="14.615163"
     inkscape:window-y="0"
     inkscape:window-x="0"
     inkscape:window-height="778"
     inkscape:pageopacity="0.0000000"
     showguides="true"
     fit-margin-top="0"
     fit-margin-left="0"
     fit-margin-right="0"
     fit-margin-bottom="0"
     inkscape:window-maximized="0">
    <sodipodi:guide
       id="guide4257"
       position="-330.679,441.61516"
       orientation="1,0" />
    <sodipodi:guide
       id="guide5234"
       position="13.320999,575.61516"
       orientation="-0.70710678,0.70710678" />
  </sodipodi:namedview>
  <path
     id="rect5334"
     style="fill:#eeeeec;filter:url(#filter5675)"
     d="m 117.45317,17.234118 c -4.29,-0.11 -9.88,2.81 -9.88,7.22 0,1.63 0.09,3.94 0.59,5.78 h -0.97 c -0.13,0 -0.24,0.11 -0.24,0.25 v 0.62 c 0.21,0.12 0.45,0.22 0.71,0.28 -0.29,1.09 -0.27,2.59 0.19,4.16 0.47,1.58 1.25,2.87 2.1,3.62 0.27,1.01 0.61,1.95 1.03,2.82 l -0.16,4.93 v -1.5 h -1.53 l -0.22,2.13 c -3.3,0.9 -6.39,2.49 -9.560001,3.69 -2.28,0.68 -2.04,4.11 -2.19,6.9 -0.01,0.03 0.01,0.04 0,0.06 l -0.19,-0.12 -4.18,9.69 -0.85,1.69 -0.09,-0.04 0.06,0.07 -0.06,0.12 -8.06,-3 -0.1,1.22 c -0.07,-0.01 -0.15,-0.02 -0.22,-0.03 l -1,-0.31 c -0.02,-0.02 -0.07,-0.04 -0.09,-0.07 -0.01,-0.01 0.01,-0.01 0,-0.03 l -0.19,-0.25 c -0.51,-0.93 -0.54,-2.66 -1.25,-3.47 -0.78,-0.9 -2.67,-1.53 -3,-2.12 -0.35,-0.63 0.09,-2.39 -0.03,-2.5 -0.13,-0.12 -0.26,-0.2 -0.41,-0.22 -0.06,-0.01 -0.12,-0.01 -0.18,0 -0.97,0.14 -2.03,2.2 -1.57,3.94 -0.85,0 -1.84,0.11 -2.03,0.87 -0.15,0.63 -0.04,0.91 0.41,1.13 0.07,0.1 0.15,0.2 0.25,0.28 -0.64,0.15 -0.87,0.47 -0.94,1.12 v 0.19 c -0.04,0.41 0.14,0.83 0.44,1.13 -0.31,0.17 -0.47,0.47 -0.44,0.84 0.03,0.4 0.17,0.62 0.41,0.72 -0.06,0.16 -0.08,0.33 -0.06,0.5 -0.16,0.15 -0.28,0.37 -0.29,0.75 0,0.68 1.27,0.64 1.75,0.97 0.43,0.28 0.88,0.58 1.1,0.62 l 6.22,1.19 0.03,-0.06 c 0.02,0.01 0.04,0.05 0.06,0.06 l 0.66,0.34 -0.19,2.69 15.19,4.500002 5.810001,-14.650002 0.22,-0.38 c 1.85,8.73 1.54,10.58 -0.94,22.030002 -0.42,1.08 -0.69,2.19 -0.69,3.41 0,1.77 0.34,3.48 0.97,5.06 3.6,3.11 8.94,5.12 14.91,5.31 0.24,0.01 0.47,0.03 0.72,0.03 v 0.22 c 0,0 0.03,-0.2 0.03,-0.22 0.14,0.01 0.26,0 0.4,0 0.32,0 0.63,-0.01 0.94,-0.03 5.97,-0.19 11.27,-2.2 14.88,-5.31 0.63,-1.58 1,-3.29 1,-5.06 0,-0.51 -0.07,-0.99 -0.16,-1.47 0.33,-0.41 0.69,-0.83 1.03,-1.25 l 0.53,0.81 15.69,-14.690002 -4,-6.15 -7.78,-13.31 c -0.01,-0.06 -1.36,-2.42 -1.38,-2.47 -1.38,-4.12 -8.95,-4.1 -13.4,-4.79 l -0.19,-2.09 h -1.5 v 1.5 l -0.06,0.03 -0.13,-4.37 c 0.72,-1.23 1.31,-2.64 1.72,-4.19 0.66,-0.77 1.25,-1.87 1.63,-3.16 0.44,-1.51 0.51,-2.95 0.25,-4.03 0.29,-0.06 0.55,-0.16 0.78,-0.28 v -0.62 c 0,-0.14 -0.11,-0.25 -0.25,-0.25 h -1.06 c -0.02,-0.03 -0.05,-0.04 -0.07,-0.07 0.72,-1.68 0.94,-3.92 0.94,-5.71 0,-5.88 -2.63,-8.87 -8.28,-6.04 -0.88,-0.76 -2.17,-1.15 -3.59,-1.18 z m -7.97,12.28 c -0.01,0.06 -0.03,0.12 -0.03,0.18 -0.02,0 -0.02,0.01 -0.04,0 0.02,-0.06 0.05,-0.12 0.07,-0.18 z m 25.9,34.62 2.72,4.78 v -0.06 l 2.22,3.91 -6.19,9.220002 c -1.16,-5.530002 0.72,-8.790002 1.25,-17.850002 z"
     inkscape:connector-curvature="0" />
  <rect
     id="rect1540"
     style="fill:#e8e8e8;fill-rule:evenodd"
     rx="3.6387999"
     ry="4.5044999"
     height="75.601997"
     width="81.362"
     y="0"
     x="0" />
  <g
     id="g3643"
     transform="matrix(0.47156,0,0,0.47156,-103.533,74.251)">
    <path
       id="path3309"
       sodipodi:rx="4.25"
       sodipodi:ry="4.25"
       style="fill:#729fcf"
       sodipodi:type="arc"
       d="m 335.625,32.875 c 0,2.34721 -1.90279,4.25 -4.25,4.25 -2.34721,0 -4.25,-1.90279 -4.25,-4.25 0,-2.34721 1.90279,-4.25 4.25,-4.25 2.34721,0 4.25,1.90279 4.25,4.25 z"
       transform="matrix(1.1176,0,0,1.1176,-12.235,-111.37)"
       sodipodi:cy="32.875"
       sodipodi:cx="331.375" />
    <path
       id="path3637"
       sodipodi:rx="56.25"
       sodipodi:ry="56.25"
       style="fill:#729fcf"
       sodipodi:type="arc"
       sodipodi:start="0"
       sodipodi:cy="-76.75"
       sodipodi:cx="307.25"
       sodipodi:end="1.3565628"
       d="m 363.5,-76.75 c 0,26.457776 -18.43839,49.33922 -44.29133,54.964104 L 307.25,-76.75 z" />
    <path
       id="path3639"
       sodipodi:rx="56.25"
       sodipodi:ry="56.25"
       style="fill:#73d216"
       sodipodi:type="arc"
       d="m 324.77766,-23.300551 c -29.51931,9.68026 -61.29685,-6.402472 -70.97711,-35.921787 -9.6627,-29.465764 6.34381,-61.193672 35.78468,-70.931952"
       sodipodi:open="true"
       sodipodi:cy="-76.75"
       sodipodi:cx="307.25"
       sodipodi:end="4.3929433"
       sodipodi:start="1.2539169" />
    <path
       id="path3641"
       sodipodi:rx="56.25"
       sodipodi:ry="56.25"
       style="fill:#f57900"
       sodipodi:type="arc"
       sodipodi:start="4.0168594"
       sodipodi:cy="-76.75"
       sodipodi:cx="307.25"
       sodipodi:end="6.4344716"
       d="m 271.20544,-119.93394 c 23.84984,-19.90686 59.32164,-16.71045 79.2285,7.13938 10.32914,12.37505 14.85292,28.586768 12.42357,44.521989 L 307.25,-76.75 z" />
  </g>
  <path
     id="path3649"
     sodipodi:nodetypes="ccccc"
     style="fill:#000000;fill-rule:evenodd"
     d="m 52.714999,44.616 -0.324,0.325 19.75,20.335 2.97,1.975 -22.396,-22.635 z"
     inkscape:connector-curvature="0" />
  <g
     id="g4950"
     transform="matrix(0.47156,0,0,0.47156,-125.11649,-111.05165)">
    <rect
       id="rect4952"
       ry="8.2804003"
       style="fill:#eeeeec"
       transform="translate(213,-6)"
       height="91.924004"
       width="38.536999"
       y="353.60001"
       x="279.72" />
    <path
       id="path4954"
       sodipodi:rx="11.136931"
       sodipodi:ry="5.6126599"
       style="fill:#f1b6a1"
       sodipodi:type="arc"
       d="m 144.07301,320.26266 c 0,3.09979 -4.98617,5.61266 -11.13693,5.61266 -6.15076,0 -11.13693,-2.51287 -11.13693,-5.61266 0,-3.09978 4.98617,-5.61266 11.13693,-5.61266 6.15076,0 11.13693,2.51288 11.13693,5.61266 z"
       inkscape:transform-center-x="1.3575176"
       inkscape:transform-center-y="-11.532937"
       transform="matrix(0.28081,-0.95976,-0.95976,-0.28081,796.64,531.9)"
       sodipodi:cy="320.26266"
       sodipodi:cx="132.93608" />
    <path
       id="path4956"
       sodipodi:rx="11.136931"
       sodipodi:ry="5.6126599"
       style="fill:#f1b6a1"
       sodipodi:type="arc"
       d="m 144.07301,320.26266 c 0,3.09979 -4.98617,5.61266 -11.13693,5.61266 -6.15076,0 -11.13693,-2.51287 -11.13693,-5.61266 0,-3.09978 4.98617,-5.61266 11.13693,-5.61266 6.15076,0 11.13693,2.51288 11.13693,5.61266 z"
       inkscape:transform-center-x="-1.3575181"
       inkscape:transform-center-y="-11.532937"
       transform="matrix(-0.28081,-0.95976,0.95976,-0.28081,223.04,532.15)"
       sodipodi:cy="320.26266"
       sodipodi:cx="132.93608" />
    <path
       id="path4958"
       d="m 265.02,367.24 c -3.27,-0.08 -7.31,1.24 -9.54,2.65 -5.95,3.77 -9.18,13.89 -11.11,20.66 -0.77,2.66 -0.46,8.51 -3.08,5.92 -5.31,-3.02 -11.73,-4.86 -17.93,-5.89 l -2.15,-0.61 c -0.04,-0.04 -0.11,-0.08 -0.16,-0.12 -0.02,-0.03 0,-0.07 -0.03,-0.1 l -0.38,-0.54 c -1.08,-1.99 -1.13,-5.65 -2.63,-7.37 -1.67,-1.91 -5.67,-3.23 -6.37,-4.48 -0.75,-1.34 0.18,-5.08 -0.07,-5.32 -0.27,-0.26 -0.56,-0.44 -0.86,-0.48 -0.13,-0.02 -0.28,-0.02 -0.42,0 -2.04,0.29 -4.28,4.68 -3.3,8.36 -1.82,0.01 -3.95,0.23 -4.35,1.86 -0.38,1.52 -0.01,2.16 1.31,2.62 0.04,0.01 0.06,0.02 0.1,0.03 0.12,0.08 0.25,0.16 0.41,0.23 -1.69,0.25 -2.25,1 -2.4,2.53 -0.11,1.14 0.53,2.04 1.67,2.4 -0.06,0.04 -0.11,0.11 -0.16,0.16 -0.01,0 -0.03,-0.01 -0.03,0 -1,0.26 -1.55,1.04 -1.48,2.02 0.08,1.12 0.64,1.48 1.48,1.63 -0.11,0.16 -0.21,0.34 -0.26,0.58 0,0 -0.03,-0.01 -0.03,0 -0.57,0.31 -1.01,0.81 -1.03,1.95 -0.02,1.45 2.65,1.32 3.69,2.02 0.9,0.6 1.87,1.22 2.33,1.31 l 13.17,2.53 0.06,-0.1 c 0.04,0.03 0.08,0.07 0.13,0.1 l 7.71,4 c 7.08,4.44 15.1,9.07 22.52,12.46 1.73,0.93 6.16,-9.67 6.72,-11.56 3.6,-12.1 18.12,-27.09 11.02,-37.53 -0.89,-1.31 -2.58,-1.88 -4.55,-1.92 z m -43.42,34.55 h -0.19 l -0.1,0.1 0.29,-0.1 z"
       sodipodi:nodetypes="csscccsccssssscssscscssscssssccccccssccccc"
       style="fill:#ffc2ad;fill-rule:evenodd"
       transform="translate(213,-6)"
       inkscape:connector-curvature="0" />
    <path
       id="path4960"
       style="fill:#ffc2ad;fill-rule:evenodd"
       sodipodi:nodetypes="cssssssssss"
       transform="translate(213,-6)"
       d="m 340.08,366.4 c 12.6,-0.91 15.17,20.28 23.83,29.47 1.35,1.43 7.31,7.93 5.64,8.96 -15.85,9.83 -26.39,22.56 -35.06,33.24 -1.84,2.27 -7.65,-2.86 -8.75,-5.57 -1.1,-2.68 3.39,-5.87 5.12,-8.2 3.9,-5.24 7.65,-16.84 12.9,-20.74 2.24,-1.66 -0.51,1.75 2.18,1.02 3.55,-0.97 -1.66,-1.83 -3.59,-3.83 -4.88,-5.07 -8.39,-14.76 -8.67,-21.79 -0.17,-4.23 2.19,-12.25 6.4,-12.56 z"
       inkscape:connector-curvature="0" />
    <path
       id="path4962"
       d="m 289.65,325.35 h 14.73 c 4.58,0 7.26,4.23 7.39,8.81 l 0.53,18.44 c -8.42,1.47 -21.14,2.59 -31.46,-1.59 l 0.53,-16.32 c 0.18,-4.23 3.7,-9.34 8.28,-9.34 z"
       sodipodi:nodetypes="ccscccc"
       style="fill:#f1b6a1"
       transform="translate(213,-6)"
       inkscape:connector-curvature="0" />
    <path
       id="path4964"
       style="fill:#010301"
       sodipodi:nodetypes="ccccccccccccsccsccscccccccccccccc"
       transform="translate(213,-6)"
       d="m 281.19,348.34 c -8.58,1.53 -16.31,5.71 -24.33,8.73 -4.83,1.46 -4.36,8.73 -4.67,14.65 -0.02,0.05 -0.02,0.1 -0.03,0.16 l -0.38,-0.26 -8.84,20.5 -2,3.91 -17.1,-6.37 -1.4,20.15 32.18,9.57 12.72,-32.13 c 3.99,18.77 3.41,22.52 -1.87,46.94 -0.89,2.28 -1.47,4.7 -1.47,7.28 0,3.75 0.72,7.34 2.06,10.69 7.64,6.59 18.92,10.87 31.56,11.28 0.83,0.03 1.66,0.06 2.5,0.06 0.67,-0.01 1.31,-0.04 1.97,-0.06 12.65,-0.41 23.93,-4.69 31.57,-11.28 1.34,-3.35 2.06,-6.94 2.06,-10.69 0,-2.58 -0.58,-5 -1.47,-7.28 -1.42,-3.25 -2.47,-6.08 -3.22,-8.66 l 7.72,11.88 L 372,406.28 363.5,393.19 347.03,365 c -0.03,-0.11 -2.86,-5.19 -2.89,-5.29 -3.18,-9.45 -21.8,-8.6 -30.67,-10.52 -2.96,7.65 -1.88,64.52 -15.88,69.47 -9.63,-4.63 -13.41,-62.87 -16.4,-70.32 z m 51.72,35.91 10.43,18.5 -13.12,19.53 c -2.47,-11.76 1.57,-18.65 2.69,-38.03 z"
       inkscape:connector-curvature="0" />
    <path
       id="path4966"
       d="m 297.25,285.5 c -9.8,0 -19.75,14 -19.75,31.25 0,0.54 0.03,1.06 0.06,1.56 0.42,16.1 7.11,28.04 19.69,29.69 10.99,-0.77 19.27,-13.59 19.69,-29.69 0.03,-0.5 0.06,-1.02 0.06,-1.56 0,-17.25 -9.95,-31.25 -19.75,-31.25 z"
       sodipodi:nodetypes="cscccsc"
       style="fill:#ffc2ad"
       transform="translate(213,-6)"
       inkscape:connector-curvature="0" />
    <g
       id="g4968"
       transform="translate(372.33,-13.947)">
      <path
         id="path4970"
         sodipodi:nodetypes="csssc"
         style="fill:#eeeeec"
         d="m 135.26,323.33 c -2.02,0.19 -2.69,1.58 -6.27,1.58 -3.57,0 -6.48,-1.24 -6.48,-2.78 0,-1.53 2.91,-2.78 6.48,-2.78 3.58,0 4.89,2.52 6.27,3.98 z"
         inkscape:connector-curvature="0" />
      <path
         id="path4972"
         style="fill:#729fcf"
         d="m 129.08,319.38 c -1.34,0 -2.58,0.18 -3.61,0.49 -0.01,0 -0.02,0.01 -0.03,0.02 -0.5,0.49 -0.82,1.08 -0.82,1.73 0,1.62 1.81,2.94 4.04,2.94 2.23,0 4.03,-1.32 4.03,-2.94 0,-0.49 -0.17,-0.96 -0.47,-1.37 -0.82,-0.51 -1.83,-0.87 -3.14,-0.87 z"
         inkscape:connector-curvature="0" />
      <path
         id="path4974"
         sodipodi:rx="1.25"
         sodipodi:ry="1.25"
         style="fill:#010301"
         sodipodi:type="arc"
         d="m 337,33 c 0,0.690356 -0.55964,1.25 -1.25,1.25 -0.69036,0 -1.25,-0.559644 -1.25,-1.25 0,-0.690356 0.55964,-1.25 1.25,-1.25 0.69036,0 1.25,0.559644 1.25,1.25 z"
         transform="matrix(1.1479,0,0,1.1479,-256.85,283.81)"
         sodipodi:cy="33"
         sodipodi:cx="335.75" />
      <path
         id="path4976"
         sodipodi:rx="3.5"
         sodipodi:ry="1.875"
         style="opacity:0.34507003;fill:#f8fbfd"
         sodipodi:type="arc"
         d="m 386.625,16.5 c 0,1.035534 -1.567,1.875 -3.5,1.875 -1.933,0 -3.5,-0.839466 -3.5,-1.875 0,-1.035534 1.567,-1.875 3.5,-1.875 1.933,0 3.5,0.839466 3.5,1.875 z"
         transform="matrix(1,0,0,0.62288,-254.62,310.42)"
         sodipodi:cy="16.5"
         sodipodi:cx="383.125" />
    </g>
    <path
       id="path4978"
       style="fill:#2e3436"
       sodipodi:nodetypes="csccc"
       transform="translate(213,-6)"
       d="m 289.54,332.34 c 0,0.76 4.26,5.74 7.54,5.74 3.27,0 7.8,-5.49 7.8,-6.25 -2.09,0.07 -5.88,2.29 -7.66,2.11 -2.87,-0.15 -5.73,-1.3 -7.68,-1.6 z"
       inkscape:connector-curvature="0" />
    <path
       id="path4980"
       d="m 209.1,380.41 c -0.98,0.51 -1.27,1.66 -2.08,2.65 -0.72,0.88 -0.85,2.92 -0.7,3.8 0.17,1.07 0.14,2.15 0.51,3.2 0.05,0.14 0.05,0.19 0.09,0.3 -0.12,0.76 -0.12,1.54 -0.05,1.99 0.17,1.08 0.15,2.16 0.52,3.2 0.31,0.88 0.28,0.86 0.6,2.21 0.54,0.43 1.91,-0.59 2.87,0 1.06,0.64 2.27,0.86 2.88,0.54 0.85,-0.45 1.91,-0.88 2.28,-2.05 0.36,-1.15 0.72,-2.31 1.08,-3.46 0.25,-0.79 -0.53,-2.34 -0.78,-3.06 -0.11,-0.31 -0.94,-1.03 -1.7,-1.69 -0.75,-2.48 -3.99,-3.71 -4.37,-6.02 l -1.15,-1.61 z"
       sodipodi:nodetypes="cssscsscsssssccc"
       style="fill:url(#radialGradient5056);fill-rule:evenodd"
       transform="translate(213,-6)"
       inkscape:connector-curvature="0" />
    <path
       id="path4982"
       d="m 208.1,381.23 c -0.56,-0.17 -1.15,0.43 -1.63,0.75 -0.41,0.28 -0.76,0.82 -0.96,1.47 -0.25,0.78 -0.25,1.19 -0.5,1.99 -0.25,0.8 -0.1,2.25 0.12,2.82 0.3,0.76 -0.09,2.03 0.36,2.9 0.34,0.66 0.41,1.55 0.54,2.32 0.21,1.33 2.07,1.7 2.98,2.58 0.62,0.6 1.45,0.2 1.75,0.04 0.53,-0.27 0.94,-0.5 1.47,-1.06 0.64,-0.65 1.28,-1.47 1.95,-2.17 0.67,-0.7 1.08,-1.84 1.4,-2.84 0.2,-0.64 -0.14,-1.58 -0.19,-2.21 -0.06,-0.77 -0.43,-1.65 -0.39,-2.4 0.02,-0.36 -0.54,-0.85 -0.67,-1.09 -0.18,-0.35 -0.6,-0.7 -1.12,-0.86 -0.58,-0.18 -0.91,-0.42 -1.57,-0.62 -0.58,-0.18 -1.15,-0.36 -1.73,-0.54 -0.47,-0.15 -0.86,-0.53 -1.42,-0.7 -0.17,-0.06 -0.26,-0.25 -0.39,-0.38 z"
       style="fill:none"
       transform="translate(213,-6)"
       inkscape:connector-curvature="0" />
    <path
       id="path4984"
       d="m 204.94,380.63 c -0.63,-0.24 -1.4,0.09 -1.65,0.72 -0.7,1.3 -0.09,3.04 1.15,3.77 1.61,1.2 3.23,2.57 5.27,2.92 0.67,0.12 1.36,0.09 2.04,0.01 0.77,-0.15 1.35,-0.92 1.26,-1.71 -1.67,-2.63 -5.25,-4.32 -8.07,-5.71 z"
       sodipodi:nodetypes="cccsccc"
       style="fill:#ffc2ad;fill-rule:evenodd"
       transform="translate(213,-6)"
       inkscape:connector-curvature="0" />
    <path
       id="path4986"
       style="fill:#ffc2ad;fill-rule:evenodd"
       sodipodi:nodetypes="cccsccc"
       transform="translate(213,-6)"
       d="m 204.04,385.91 c -0.63,-0.24 -1.39,0.09 -1.65,0.72 -0.7,1.3 -0.09,3.04 1.15,3.77 1.61,1.2 3.23,2.57 5.27,2.92 0.67,0.12 1.36,0.09 2.04,0.02 0.78,-0.16 1.35,-0.93 1.27,-1.72 -1.68,-2.63 -5.26,-4.32 -8.08,-5.71 z"
       inkscape:connector-curvature="0" />
    <path
       id="path4988"
       d="m 204.44,392.26 c -0.66,-0.15 -1.37,0.29 -1.52,0.95 -0.51,1.39 0.35,3.02 1.68,3.56 1.77,0.95 3.58,2.07 5.64,2.12 0.68,0.01 1.36,-0.12 2.02,-0.29 0.75,-0.27 1.2,-1.11 1,-1.88 -2.04,-2.35 -5.83,-3.5 -8.82,-4.46 z"
       sodipodi:nodetypes="cccsccc"
       style="fill:#ffc2ad;fill-rule:evenodd"
       transform="translate(213,-6)"
       inkscape:connector-curvature="0" />
    <path
       id="path4990"
       d="m 280.69,309.96 c 2.76,-0.34 5.67,-0.16 8.26,-1.35 1.44,-0.34 2.68,1.16 4.03,1.23 0.61,0.04 0.99,1.22 -0.22,1.22 -1.52,0.09 -2.68,-0.66 -4.08,-0.88 -1.47,0.41 -3.62,0.17 -5.17,0.23 -1.41,0.14 -1.68,-0.43 -3.09,-0.25 l 0.13,-0.1 0.14,-0.1 z"
       sodipodi:nodetypes="ccsccccccc"
       style="fill:#010301"
       transform="translate(213,-6)"
       inkscape:connector-curvature="0" />
    <path
       id="path4992"
       style="fill:#010301"
       sodipodi:nodetypes="ccsccccccc"
       transform="translate(213,-6)"
       d="m 314.14,309.96 c -2.76,-0.34 -5.67,-0.16 -8.26,-1.35 -1.44,-0.34 -2.67,1.16 -4.03,1.23 -0.61,0.04 -0.98,1.22 0.22,1.22 1.52,0.09 2.68,-0.66 4.08,-0.88 1.47,0.41 3.63,0.17 5.17,0.23 1.41,0.14 1.68,-0.43 3.09,-0.25 l -0.13,-0.1 -0.14,-0.1 z"
       inkscape:connector-curvature="0" />
    <g
       id="g4994"
       transform="matrix(-1,0,0,1,648.31,-13.77)">
      <path
         id="path4996"
         sodipodi:nodetypes="csssc"
         style="fill:#eeeeec"
         d="m 135.26,323.33 c -2.02,0.19 -2.69,1.58 -6.27,1.58 -3.57,0 -6.48,-1.24 -6.48,-2.78 0,-1.53 2.91,-2.78 6.48,-2.78 3.58,0 4.89,2.52 6.27,3.98 z"
         inkscape:connector-curvature="0" />
      <path
         id="path4998"
         style="fill:#729fcf"
         d="m 129.08,319.38 c -1.34,0 -2.58,0.18 -3.61,0.49 -0.01,0 -0.02,0.01 -0.03,0.02 -0.5,0.49 -0.82,1.08 -0.82,1.73 0,1.62 1.81,2.94 4.04,2.94 2.23,0 4.03,-1.32 4.03,-2.94 0,-0.49 -0.17,-0.96 -0.47,-1.37 -0.82,-0.51 -1.83,-0.87 -3.14,-0.87 z"
         inkscape:connector-curvature="0" />
      <path
         id="path5000"
         sodipodi:rx="1.25"
         sodipodi:ry="1.25"
         style="fill:#010301"
         sodipodi:type="arc"
         d="m 337,33 c 0,0.690356 -0.55964,1.25 -1.25,1.25 -0.69036,0 -1.25,-0.559644 -1.25,-1.25 0,-0.690356 0.55964,-1.25 1.25,-1.25 0.69036,0 1.25,0.559644 1.25,1.25 z"
         transform="matrix(1.1479,0,0,1.1479,-256.85,283.81)"
         sodipodi:cy="33"
         sodipodi:cx="335.75" />
      <path
         id="path5002"
         sodipodi:rx="3.5"
         sodipodi:ry="1.875"
         style="opacity:0.34507003;fill:#f8fbfd"
         sodipodi:type="arc"
         d="m 386.625,16.5 c 0,1.035534 -1.567,1.875 -3.5,1.875 -1.933,0 -3.5,-0.839466 -3.5,-1.875 0,-1.035534 1.567,-1.875 3.5,-1.875 1.933,0 3.5,0.839466 3.5,1.875 z"
         transform="matrix(1,0,0,0.62288,-254.62,310.42)"
         sodipodi:cy="16.5"
         sodipodi:cx="383.125" />
    </g>
    <path
       id="path5004"
       d="m 302.69,285.88 c -7.48,-6.5 -28.57,0.35 -28.57,12.81 0,4.95 0.4,12.78 3.16,16.5 0.28,-14.22 11.77,-19.08 19.72,-16.19 8.53,-2 17.42,1.15 20.09,14.03 2.48,-3.59 3.16,-9.69 3.16,-14.34 0,-12.46 -5.58,-18.81 -17.56,-12.81 z"
       sodipodi:nodetypes="cscccsc"
       style="fill:#010301"
       transform="translate(213,-6)"
       inkscape:connector-curvature="0" />
    <path
       id="path5006"
       style="fill:url(#linearGradient5058);fill-rule:evenodd"
       sodipodi:nodetypes="cscccccccccccscccscccsccc"
       transform="translate(213,-6)"
       d="m 294.8,326.96 c -0.49,0 -0.92,0.17 -1.25,0.31 -0.17,0.07 -0.31,0.15 -0.41,0.19 l -0.22,1 3.04,0.84 c 0.07,0.04 0.11,0.09 0.18,0.12 0.36,0.28 0.83,0.22 1.25,0.29 h 0.03 l 1.1,-0.35 v -0.03 h 0.03 l 3.12,-0.87 c -0.11,-0.3 -0.21,-0.98 -0.21,-1 -0.1,-0.04 -0.24,-0.12 -0.41,-0.19 -0.33,-0.14 -0.77,-0.31 -1.25,-0.31 h -0.06 l -0.07,0.03 c -0.49,0.11 -0.93,1.04 -1.16,1.34 -0.21,0.28 -0.37,0.52 -0.53,0.69 l -0.75,0.22 -1,-0.38 c -0.13,-0.16 -0.25,-0.31 -0.41,-0.53 -0.22,-0.3 -0.4,-1.23 -0.9,-1.34 l -0.06,-0.03 h -0.06 z"
       inkscape:connector-curvature="0" />
    <path
       id="path5008"
       d="m 293.5,340.5 c 2.44,-0.95 4.8,-0.88 6.88,-0.12"
       sodipodi:nodetypes="cc"
       style="fill:none;stroke:#000000;stroke-width:0.5"
       transform="translate(213,-6)"
       inkscape:connector-curvature="0" />
    <path
       id="path5010"
       style="fill:url(#linearGradient5060)"
       sodipodi:nodetypes="ccssscssc"
       transform="translate(213,-6)"
       d="m 305,354 c -3.4,0 -6.25,2.1 -7.03,4.94 -0.88,-2.71 -3.67,-4.69 -6.97,-4.69 -4,0 -7.25,2.91 -7.25,6.5 0,3.59 5.23,6.39 8,3.5 2.15,-2.25 3.75,-2.1 4.53,-4.94 5.63,2.46 5.92,5.94 9.22,5.94 4,0 5.5,-1.66 5.5,-5.25 0,-3.59 -2,-6 -6,-6 z"
       inkscape:connector-curvature="0" />
    <path
       id="path5012"
       style="fill:#eeeeec;fill-rule:evenodd"
       transform="translate(213,-6)"
       d="m 296.69,354.66 16.26,-8.13 v -3.18 h 3.18 l 0.71,7.07 -10.25,12.73 -9.9,-8.49 z"
       inkscape:connector-curvature="0" />
    <path
       id="path5014"
       d="m 297.75,354.66 -16.27,-8.13 v -3.18 h -3.18 l -0.7,7.07 10.25,12.73 9.9,-8.49 z"
       style="fill:#eeeeec;fill-rule:evenodd"
       transform="translate(213,-6)"
       inkscape:connector-curvature="0" />
    <path
       id="path5016"
       style="fill:none;stroke:#ffffff;stroke-width:0.5"
       transform="translate(213,-6)"
       d="m 272.25,351.25 -3,18.75 8.5,3.25 12,35.75"
       inkscape:connector-curvature="0" />
    <path
       id="path5018"
       d="m 323.75,350.75 3,18.75 -8.5,3.25 -12,35.75"
       style="fill:none;stroke:#ffffff;stroke-width:0.5"
       transform="translate(213,-6)"
       inkscape:connector-curvature="0" />
    <path
       id="path5020"
       style="fill:#a40000;fill-rule:evenodd;stroke:#000000;stroke-width:1px"
       transform="translate(213,-6)"
       d="m 295.25,356.25 -4,6.25 2.75,3 -3.5,36 3.5,13 2.25,7.25 6,-0.25 4.5,-19.75 -7.75,-37 2.5,-5.5 -2.25,-3 h -4 z"
       inkscape:connector-curvature="0" />
    <path
       id="path5022"
       style="fill:none;stroke:#ffffff;stroke-width:1px"
       transform="translate(213,-6)"
       d="m 240.75,396 5.75,1.5 2.25,6.25"
       inkscape:connector-curvature="0" />
    <path
       id="path5024"
       style="fill:none;stroke:#ffffff;stroke-width:1px"
       transform="translate(213,-6)"
       d="m 343,402 11,-0.75 4.25,4"
       inkscape:connector-curvature="0" />
    <path
       id="path5026"
       style="fill:none;stroke:#ffffff;stroke-width:1px"
       transform="translate(213,-6)"
       d="m 343,402.5 4.25,1.5 1.75,2"
       inkscape:connector-curvature="0" />
    <path
       id="path5028"
       style="fill:none;stroke:#ffffff;stroke-width:0.5"
       transform="translate(213,-6)"
       d="m 298.25,421.75 c 0,0 1.5,22.25 2,23.25 0.5,1 -1.75,18.5 -1.75,18.5"
       inkscape:connector-curvature="0" />
    <path
       id="path5030"
       style="fill:none;stroke:#ffffff;stroke-width:0.5"
       transform="translate(213,-6)"
       d="m 271.75,441.75 16,0.5 0.25,2.5"
       inkscape:connector-curvature="0" />
    <path
       id="path5032"
       d="m 324.75,441 -16,0.5 -0.25,2.5"
       style="fill:none;stroke:#ffffff;stroke-width:0.5"
       transform="translate(213,-6)"
       inkscape:connector-curvature="0" />
    <path
       id="path5034"
       sodipodi:rx="1.625"
       sodipodi:ry="1.625"
       style="fill:#babdb6"
       sodipodi:type="arc"
       d="m 396.75,431.375 c 0,0.89746 -0.72754,1.625 -1.625,1.625 -0.89746,0 -1.625,-0.72754 -1.625,-1.625 0,-0.89746 0.72754,-1.625 1.625,-1.625 0.89746,0 1.625,0.72754 1.625,1.625 z"
       transform="translate(113,-10.25)"
       sodipodi:cy="431.375"
       sodipodi:cx="395.125" />
    <path
       id="path5036"
       sodipodi:rx="1.625"
       sodipodi:ry="1.625"
       style="fill:#babdb6"
       sodipodi:type="arc"
       d="m 396.75,431.375 c 0,0.89746 -0.72754,1.625 -1.625,1.625 -0.89746,0 -1.625,-0.72754 -1.625,-1.625 0,-0.89746 0.72754,-1.625 1.625,-1.625 0.89746,0 1.625,0.72754 1.625,1.625 z"
       transform="translate(115,9.25)"
       sodipodi:cy="431.375"
       sodipodi:cx="395.125" />
    <path
       id="path5038"
       style="fill:url(#linearGradient5062);fill-rule:evenodd"
       sodipodi:nodetypes="ccscc"
       transform="translate(213,-6)"
       d="m 296.44,330.12 -0.88,3.76 h 5 c -0.87,0 -1.87,-4 -1.87,-4 l -2.25,0.24 z"
       inkscape:connector-curvature="0" />
    <path
       id="path5040"
       style="fill:url(#linearGradient5064);fill-rule:evenodd"
       transform="translate(213,-6)"
       d="m 290.31,329.75 2.69,-0.25 -0.62,-0.69 0.06,-2.12 1,-1.88 -2.13,1.31 -1,3.63 z"
       inkscape:connector-curvature="0" />
    <path
       id="path5042"
       d="m 304.19,329.69 -2.69,-0.25 0.62,-0.69 -0.06,-2.13 -1,-1.87 2.13,1.31 1,3.63 z"
       style="fill:url(#linearGradient5066);fill-rule:evenodd"
       transform="translate(213,-6)"
       inkscape:connector-curvature="0" />
    <g
       id="g5044"
       transform="translate(-29.996,4.4801)">
      <path
         id="path5046"
         style="fill:#000000"
         d="m 523.97,298.06 c -1.54,0 -2.78,1.17 -2.94,2.66 -0.1,-0.13 -0.23,-0.22 -0.41,-0.22 h -4.34 c -0.29,0 -0.53,0.24 -0.53,0.53 v 1.31 c 1.26,0.69 3.12,0.92 4.87,0.78 0.15,0 0.28,-0.06 0.38,-0.15 v 5.09 c 0,0.83 0.35,1.46 0.91,1.85 0.55,0.38 1.27,0.56 2.06,0.56 h 0.06 l 9.06,-1.25 h 0.07 c 1.77,-0.58 2.65,-1.88 3.22,-3.38 0.5,-1.35 0.81,-2.86 1.31,-4.25 0.64,-0.68 1.47,-1.12 2.37,-1.12 0.79,0 1.5,0.34 2.1,0.87 0.56,1.45 0.86,3.07 1.4,4.5 0.57,1.5 1.45,2.8 3.22,3.38 h 0.06 l 9.07,1.25 h 0.06 c 0.79,0 1.51,-0.18 2.06,-0.56 0.55,-0.39 0.91,-1.02 0.91,-1.85 v -5.09 c 0.09,0.09 0.23,0.15 0.37,0.15 1.76,0.14 3.61,-0.09 4.88,-0.78 v -1.31 c 0,-0.29 -0.24,-0.53 -0.53,-0.53 h -4.35 c -0.17,0 -0.31,0.09 -0.4,0.22 -0.16,-1.49 -1.4,-2.66 -2.94,-2.66 h -10.94 c -1.28,0 -2.36,0.81 -2.78,1.94 h -4.56 c -0.42,-1.13 -1.5,-1.94 -2.78,-1.94 h -10.94 z m 0,0.5 h 10.94 c 0.99,0 1.83,0.6 2.21,1.44 h -1.59 c -0.19,0 -0.34,0.18 -0.34,0.38 v 1.96 c 0,0.2 0.15,0.35 0.34,0.35 h 1.25 c -0.29,1.03 -0.53,2.06 -0.87,2.97 -0.54,1.42 -1.29,2.56 -2.88,3.09 H 533 l -9.03,1.22 h -0.03 c -0.71,-0.01 -1.33,-0.17 -1.75,-0.47 -0.44,-0.3 -0.69,-0.75 -0.69,-1.44 v -7.03 c 0,-1.38 1.09,-2.47 2.47,-2.47 z m 21.06,0 h 10.94 c 1.38,0 2.47,1.09 2.47,2.47 v 7.03 c 0,0.69 -0.26,1.14 -0.69,1.44 -0.43,0.3 -1.04,0.46 -1.75,0.47 h -0.03 l -9.03,-1.22 h -0.03 c -1.6,-0.53 -2.34,-1.67 -2.88,-3.09 -0.36,-0.95 -0.63,-2.02 -0.94,-3.1 0.03,0.05 0.07,0.08 0.1,0.13 h 1.31 c 0.19,0 0.34,-0.15 0.34,-0.35 v -1.96 c 0,-0.2 -0.15,-0.38 -0.34,-0.38 h -1.69 c 0.38,-0.84 1.22,-1.44 2.22,-1.44 z"
         inkscape:connector-curvature="0" />
      <path
         id="path5048"
         sodipodi:nodetypes="cccccccc"
         style="opacity:0.67000002;fill:url(#linearGradient5068)"
         d="m 524.19,298.54 h 10.91 c 1.51,0 2.73,1.22 2.73,2.73 -1.27,3.07 -1.16,6.85 -4.55,7.96 l -9.09,1.23 c -1.51,0 -2.72,-0.63 -2.72,-2.14 v -7.05 c 0,-1.51 1.21,-2.73 2.72,-2.73 z"
         inkscape:connector-curvature="0" />
      <path
         id="path5050"
         sodipodi:nodetypes="cccccccc"
         style="opacity:0.67000002;fill:url(#linearGradient5070)"
         d="m 555.79,298.54 h -10.91 c -1.51,0 -2.73,1.22 -2.73,2.73 1.27,3.07 1.16,6.85 4.55,7.96 l 9.09,1.23 c 1.51,0 2.73,-0.63 2.73,-2.14 v -7.05 c 0,-1.51 -1.22,-2.73 -2.73,-2.73 z"
         inkscape:connector-curvature="0" />
    </g>
    <path
       id="path5052"
       style="fill:url(#radialGradient5072);fill-rule:evenodd"
       d="m 494.32,318.07 5.48,2.65 -0.53,10.43 -4.95,-13.08 z"
       inkscape:connector-curvature="0" />
    <path
       id="path5054"
       style="fill:url(#radialGradient5074);fill-rule:evenodd"
       d="m 526.67,318.07 -5.48,2.65 0.53,10.43 4.95,-13.08 z"
       inkscape:connector-curvature="0" />
  </g>
  <metadata
     id="metadata297">
    <rdf:RDF>
      <cc:Work>
        <dc:format>image/svg+xml</dc:format>
        <dc:type
           rdf:resource="http://purl.org/dc/dcmitype/StillImage" />
        <cc:license
           rdf:resource="http://creativecommons.org/licenses/publicdomain/" />
        <dc:publisher>
          <cc:Agent
             rdf:about="http://openclipart.org/">
            <dc:title>Openclipart</dc:title>
          </cc:Agent>
        </dc:publisher>
        <dc:title>presentation</dc:title>
        <dc:date>2008-11-02T17:24:22</dc:date>
        <dc:description>A presentation with five figures.</dc:description>
        <dc:source>https://openclipart.org/detail/19901/presentation-by-rg1024</dc:source>
        <dc:creator>
          <cc:Agent>
            <dc:title>rg1024</dc:title>
          </cc:Agent>
        </dc:creator>
        <dc:subject>
          <rdf:Bag>
            <rdf:li>cartoon</rdf:li>
            <rdf:li>color</rdf:li>
            <rdf:li>female</rdf:li>
            <rdf:li>male</rdf:li>
            <rdf:li>presentation</rdf:li>
          </rdf:Bag>
        </dc:subject>
      </cc:Work>
      <cc:License
         rdf:about="http://creativecommons.org/licenses/publicdomain/">
        <cc:permits
           rdf:resource="http://creativecommons.org/ns#Reproduction" />
        <cc:permits
           rdf:resource="http://creativecommons.org/ns#Distribution" />
        <cc:permits
           rdf:resource="http://creativecommons.org/ns#DerivativeWorks" />
      </cc:License>
    </rdf:RDF>
  </metadata>
</svg>
