<?xml version="1.0" encoding="UTF-8" standalone="no"?>
<!-- Created with Inkscape (http://www.inkscape.org/) -->

<svg
   xmlns:dc="http://purl.org/dc/elements/1.1/"
   xmlns:cc="http://creativecommons.org/ns#"
   xmlns:rdf="http://www.w3.org/1999/02/22-rdf-syntax-ns#"
   xmlns:svg="http://www.w3.org/2000/svg"
   xmlns="http://www.w3.org/2000/svg"
   xmlns:sodipodi="http://sodipodi.sourceforge.net/DTD/sodipodi-0.dtd"
   xmlns:inkscape="http://www.inkscape.org/namespaces/inkscape"
   id="svg2"
   sodipodi:docname="rejected.svg"
   viewBox="0 0 126.3493 122.86256"
   sodipodi:version="0.32"
   version="1.0"
   inkscape:output_extension="org.inkscape.output.svg.inkscape"
   inkscape:version="0.91 r13725"
   width="126.3493"
   height="122.86257"
   inkscape:export-filename="C:\Users\roblick\WorkspaceIntelliJ\meis\web\src\main\webapp\resources\gfx\12\ui\system\approval\button\accepted.png"
   inkscape:export-xdpi="8.790309"
   inkscape:export-ydpi="8.790309">
  <defs
     id="defs5">
    <linearGradient
       id="linearGradient2349">
      <stop
         id="stop2351"
         style="stop-color:#dad5d5"
         offset="0" />
      <stop
         id="stop2353"
         style="stop-color:#000000"
         offset="1" />
    </linearGradient>
    <clipPath
       id="clipPath2440"
       clipPathUnits="userSpaceOnUse">
      <path
         id="path2442"
         style="color:#000000;fill:#ffcc00"
         d="m 114.67,142.23 c 0,12.53 -9.31,22.7 -20.772,22.7 -11.463,0 -20.767,-10.17 -20.767,-22.7 0,-12.53 9.304,-22.7 20.767,-22.7 11.462,0 20.772,10.17 20.772,22.7 z"
         inkscape:connector-curvature="0" />
    </clipPath>
    <clipPath
       id="clipPath2504"
       clipPathUnits="userSpaceOnUse">
      <circle
         id="path2506"
         style="opacity:0.70999995;color:#000000;fill:#808080"
         transform="matrix(0.61891,0,0,0.67647,-54.14,90.47)"
         cx="240.80678"
         cy="88.14814"
         r="33.555042"
         sodipodi:cx="240.80678"
         sodipodi:cy="88.14814"
         sodipodi:rx="33.555042"
         sodipodi:ry="33.555042" />
    </clipPath>
    <filter
       style="color-interpolation-filters:sRGB;"
       inkscape:label="Greyscale"
       id="filter4504">
      <feColorMatrix
         values="2.55 0.16 3.28 0.57 0 2.55 0.16 3.28 0.57 0 2.55 0.16 3.28 0.57 0 0 0 0 1 0 "
         id="feColorMatrix4506" />
    </filter>
  </defs>
  <sodipodi:namedview
     id="base"
     bordercolor="#666666"
     inkscape:pageshadow="2"
     guidetolerance="10.0"
     pagecolor="#ffffff"
     gridtolerance="10.0"
     inkscape:zoom="4.2486492"
     objecttolerance="10.0"
     borderopacity="1.0"
     inkscape:current-layer="svg2"
     inkscape:cx="25.162567"
     inkscape:guide-bbox="true"
     inkscape:cy="63.196552"
     inkscape:window-y="-9"
     inkscape:window-x="1911"
     inkscape:window-height="975"
     inkscape:pageopacity="0.0"
     inkscape:window-width="1680"
     showguides="false"
     showgrid="false"
     fit-margin-top="0"
     fit-margin-left="0"
     fit-margin-right="0"
     fit-margin-bottom="0"
     inkscape:window-maximized="1" />
  <g
     id="layer1"
     style="fill:#00ff00;stroke:#000000;stroke-width:3;filter:url(#filter4504)"
     inkscape:label="Ebene 1"
     transform="translate(-31.442779,-4.3401992)">
    <path
       id="path3128"
       sodipodi:nodetypes="cccccssccscsccsssssscsssccssc"
       style="fill:#00ff00;stroke:#000000;stroke-width:3"
       d="m 41.171,110.94 c 0.961,2.34 0.886,2.07 1.726,3.25 -0.928,1.78 2.001,4.78 5.487,5.57 1.123,0.81 1.519,0.54 3.916,1.51 6.057,1.51 13.785,0.67 18.524,0.55 4.301,-0.3 8.591,-1.64 10.457,-2.37 3.38,-1.32 5.501,-2.63 7.055,-5.2 2.71,-4.47 1.777,-8.07 -0.63,-10.07 2.677,-2.67 3.963,-7.027 2.998,-10.282 3.805,-2.688 4.836,-9.627 4.16,-15.813 C 94.523,74.962 93.037,72.781 92.072,71.444 92.783,65.901 91.6,60.273 89.121,56.268 87.413,53.51 83.94,50.111 80.52,50.024 77.1,49.938 69.415,52.354 68.403,47.245 67.392,42.135 72.372,35.083 73.534,27.675 74.249,23.12 70.474,17.74 67.981,14.216 65.494,10.702 62.042,8.7951 57.684,6.7659 54.096,5.0952 48.415,5.5675 45.925,9.157 c -2.664,3.841 -1.835,10.082 -0.833,14.702 0.906,4.176 2.604,8.111 3.196,12.414 0.581,4.222 1.877,11.973 0.819,15.777 -3.225,3.006 -6.507,3.05 -10.12,5.043 -3.393,1.871 -5.163,6.084 -4.439,9.827 0.514,2.65 3.41,4.43 1.191,7.171 -2.647,3.271 -4.257,8.207 -0.902,11.12 3.355,2.913 2.851,4.174 3.351,4.64 0.501,0.466 0.6,1.603 -0.602,4.759 -1.94,5.096 -2.616,5.51 1.337,9.12 1.468,1.34 -1.526,6.44 2.248,7.21 z"
       inkscape:connector-curvature="0" />
    <path
       id="path8092"
       sodipodi:nodetypes="ccssccsccsccsccscscsccsscccssscsssssscssscsscscscsssssscsscccccccscsscccccsccssccccccsscssccccccc"
       style="fill:#00ff00;stroke:#000000;stroke-width:3"
       d="m 70.824,121.82 c -4.739,0.12 -12.467,0.96 -18.524,-0.55 3.356,0.21 6.249,-0.22 7.786,-0.38 3.377,-0.36 7.106,-1.32 9.859,-2.29 3.119,-1.11 3.728,-1.56 5.725,-2.74 -0.256,1.31 -0.879,2.67 -1.866,3.58 3.394,-0.93 10.696,-3.34 12.688,-6.26 1.938,-2.84 2.109,-5.89 -0.996,-8.39 -1.123,-0.85 -1.472,-2.59 0.311,-1.78 0.576,-0.74 1.972,-3.281 2.304,-5.03 0.694,-3.659 -0.848,-9.863 -3.928,-12.404 1.989,0.784 4.777,3.781 5.863,5.456 C 92.927,88.06 93.78,82.897 93.114,77.978 92.249,71.59 90.015,69.8 84.739,66.65 c 3.142,0.518 4.621,1.609 5.904,2.846 0.431,-4.193 -1.113,-8.59 -3.073,-12.263 -1.423,-2.667 -4.12,-5.365 -7.05,-7.209 3.42,0.087 6.893,3.486 8.601,6.244 2.479,4.005 3.662,9.633 2.951,15.176 0.965,1.337 2.451,3.518 2.792,6.641 0.676,6.186 -0.355,13.125 -4.16,15.813 0.965,3.255 -0.321,7.612 -2.998,10.282 2.407,2 3.34,5.6 0.63,10.07 -1.554,2.57 -3.675,3.88 -7.055,5.2 -1.866,0.73 -6.156,2.07 -10.457,2.37 z M 38.188,89.851 c -0.5,-0.466 0.004,-1.727 -3.351,-4.64 -3.355,-2.913 -1.745,-7.849 0.902,-11.12 C 37.958,71.35 35.062,69.57 34.548,66.92 33.824,63.177 35.594,58.964 38.987,57.093 42.6,55.1 45.882,55.056 49.107,52.05 50.165,48.246 48.869,40.495 48.288,36.273 47.696,31.97 45.998,28.035 45.092,23.859 44.09,19.239 43.261,12.998 45.925,9.157 c 2.49,-3.5895 8.171,-4.0618 11.759,-2.3911 4.358,2.0292 7.81,3.9361 10.297,7.4501 2.493,3.524 6.268,8.904 5.553,13.459 -1.162,7.408 -6.142,14.46 -5.131,19.57 -2.436,-4.155 2.874,-13.562 3.339,-19.222 0.432,-5.32 -2.765,-9.516 -5.229,-12.827 -1.583,-2.127 -5.23,-5.008 -8.706,-6.3762 -2.844,-1.1192 -6.694,-2.3493 -9.822,1.1715 -2.848,3.0187 -1.941,9.8127 -1.011,13.396 1.29,4.969 2.821,9.767 3.537,15.686 0.462,3.817 0.653,8.934 0.262,12.977 1.615,0.719 7.072,-1.564 10.205,-2.229 4.261,-0.905 9.448,-3.012 13.71,-0.377 -6.161,-0.516 -10.818,0.939 -16.228,2.496 -4.033,1.162 -7.989,2.67 -11.963,3.955 -3.046,1.263 -6.57,2.462 -8.715,4.884 -1.927,2.176 -2.673,4.557 -0.136,7.034 3.384,3.303 -0.626,7.164 -2.611,9.784 -2.667,3.521 1.878,6.31 3.763,8.776 2.059,2.692 0.509,7.172 -0.836,10.305 -1.394,3.246 1.028,3.255 3.014,7.082 1.145,2.2 -1.101,5.02 0.195,7.18 -3.774,-0.77 -0.78,-5.87 -2.248,-7.21 -3.953,-3.61 -3.277,-4.024 -1.337,-9.12 1.202,-3.156 1.103,-4.293 0.602,-4.759 z m 10.196,29.909 c -2.08,-0.37 -6.484,-3.01 -5.487,-5.57 0.84,1.72 6.06,2.62 5.487,5.57 z m 13.56,-13.68 c -1.874,-0.37 -7.028,-4.33 -4.451,-4.79 3.795,1.04 7.977,3.07 12.095,1.99 4.112,-1.07 9.125,-1.97 12.92,-0.28 -4.008,0.54 -6.745,1.51 -10.618,2.23 -3.129,0.59 -6.681,1.5 -9.946,0.85 z m 20.655,-9.028 c 1.211,-3.059 -2.302,-8.626 -0.408,-9.562 0.932,2.985 4.857,6.087 1.887,8.764 -0.155,0.4 -0.985,1.857 -1.479,0.798 z M 53.45,87.359 c -3.949,-3.103 -2.924,-3.887 -0.58,-3.317 2.492,0.607 8.632,0.925 10.415,0.503 3.994,-0.944 12.143,-2.644 15.468,0.365 -3.495,-0.577 -10.108,1.105 -14.464,1.816 -2.431,0.396 -8.906,2.151 -10.839,0.633 z m 27.146,-5.905 c 3.424,-2.289 -0.183,-9.87 3.068,-10.78 1.237,3.449 2.214,10.591 -2.851,11.02 l -0.217,-0.24 z M 51.358,70.368 c -3.607,-1.551 -3.523,-3.565 1.143,-3.132 5.769,0.537 11.856,-0.893 17.358,-1.598 3.574,-0.458 9.748,-1.178 12.221,0.348 -4.446,0.788 -9.099,0.873 -13.341,2.179 -4.909,1.511 -16.631,2.526 -17.381,2.203 z M 79.145,52.11 c 2.212,2.104 4.955,5.651 2.587,8.74 0.315,-3.394 -2.926,-5.808 -2.587,-8.74 z M 53.233,38.288 c 1.554,-3.737 8.072,-2.045 11.917,-2.185 3.08,2.875 -2.694,1.498 -4.388,1.841 -2.269,-0.448 -5.926,2.825 -7.529,0.344 z"
       inkscape:connector-curvature="0" />
  </g>
  <g
     id="g2250"
     style="fill:#ff0000;stroke:#000000;stroke-width:3"
     inkscape:label="Ebene 1"
     transform="matrix(-1,0,0,-1,157.79208,127.20277)">
    <path
       id="path2252"
       sodipodi:nodetypes="cccccssccscsccsssssscsssccssc"
       style="fill:#ff0000;stroke:#000000;stroke-width:3"
       d="m 41.171,110.94 c 0.961,2.34 0.886,2.07 1.726,3.25 -0.928,1.78 2.001,4.78 5.487,5.57 1.123,0.81 1.519,0.54 3.916,1.51 6.057,1.51 13.785,0.67 18.524,0.55 4.301,-0.3 8.591,-1.64 10.457,-2.37 3.38,-1.32 5.501,-2.63 7.055,-5.2 2.71,-4.47 1.777,-8.07 -0.63,-10.07 2.677,-2.67 3.963,-7.027 2.998,-10.282 3.805,-2.688 4.836,-9.627 4.16,-15.813 C 94.523,74.962 93.037,72.781 92.072,71.444 92.783,65.901 91.6,60.273 89.121,56.268 87.413,53.51 83.94,50.111 80.52,50.024 77.1,49.938 69.415,52.354 68.403,47.245 67.392,42.135 72.372,35.083 73.534,27.675 74.249,23.12 70.474,17.74 67.981,14.216 65.494,10.702 62.042,8.7951 57.684,6.7659 54.096,5.0952 48.415,5.5675 45.925,9.157 c -2.664,3.841 -1.835,10.082 -0.833,14.702 0.906,4.176 2.604,8.111 3.196,12.414 0.581,4.222 1.877,11.973 0.819,15.777 -3.225,3.006 -6.507,3.05 -10.12,5.043 -3.393,1.871 -5.163,6.084 -4.439,9.827 0.514,2.65 3.41,4.43 1.191,7.171 -2.647,3.271 -4.257,8.207 -0.902,11.12 3.355,2.913 2.851,4.174 3.351,4.64 0.501,0.466 0.6,1.603 -0.602,4.759 -1.94,5.096 -2.616,5.51 1.337,9.12 1.468,1.34 -1.526,6.44 2.248,7.21 z"
       inkscape:connector-curvature="0" />
    <path
       id="path2254"
       sodipodi:nodetypes="ccssccsccsccsccscscsccsscccssscsssssscssscsscscscsssssscsscccccccscsscccccsccssccccccsscssccccccc"
       style="fill:#ff0000;stroke:#000000;stroke-width:3"
       d="m 70.824,121.82 c -4.739,0.12 -12.467,0.96 -18.524,-0.55 3.356,0.21 6.249,-0.22 7.786,-0.38 3.377,-0.36 7.106,-1.32 9.859,-2.29 3.119,-1.11 3.728,-1.56 5.725,-2.74 -0.256,1.31 -0.879,2.67 -1.866,3.58 3.394,-0.93 10.696,-3.34 12.688,-6.26 1.938,-2.84 2.109,-5.89 -0.996,-8.39 -1.123,-0.85 -1.472,-2.59 0.311,-1.78 0.576,-0.74 1.972,-3.281 2.304,-5.03 0.694,-3.659 -0.848,-9.863 -3.928,-12.404 1.989,0.784 4.777,3.781 5.863,5.456 C 92.927,88.06 93.78,82.897 93.114,77.978 92.249,71.59 90.015,69.8 84.739,66.65 c 3.142,0.518 4.621,1.609 5.904,2.846 0.431,-4.193 -1.113,-8.59 -3.073,-12.263 -1.423,-2.667 -4.12,-5.365 -7.05,-7.209 3.42,0.087 6.893,3.486 8.601,6.244 2.479,4.005 3.662,9.633 2.951,15.176 0.965,1.337 2.451,3.518 2.792,6.641 0.676,6.186 -0.355,13.125 -4.16,15.813 0.965,3.255 -0.321,7.612 -2.998,10.282 2.407,2 3.34,5.6 0.63,10.07 -1.554,2.57 -3.675,3.88 -7.055,5.2 -1.866,0.73 -6.156,2.07 -10.457,2.37 z M 38.188,89.851 c -0.5,-0.466 0.004,-1.727 -3.351,-4.64 -3.355,-2.913 -1.745,-7.849 0.902,-11.12 C 37.958,71.35 35.062,69.57 34.548,66.92 33.824,63.177 35.594,58.964 38.987,57.093 42.6,55.1 45.882,55.056 49.107,52.05 50.165,48.246 48.869,40.495 48.288,36.273 47.696,31.97 45.998,28.035 45.092,23.859 44.09,19.239 43.261,12.998 45.925,9.157 c 2.49,-3.5895 8.171,-4.0618 11.759,-2.3911 4.358,2.0292 7.81,3.9361 10.297,7.4501 2.493,3.524 6.268,8.904 5.553,13.459 -1.162,7.408 -6.142,14.46 -5.131,19.57 -2.436,-4.155 2.874,-13.562 3.339,-19.222 0.432,-5.32 -2.765,-9.516 -5.229,-12.827 -1.583,-2.127 -5.23,-5.008 -8.706,-6.3762 -2.844,-1.1192 -6.694,-2.3493 -9.822,1.1715 -2.848,3.0187 -1.941,9.8127 -1.011,13.396 1.29,4.969 2.821,9.767 3.537,15.686 0.462,3.817 0.653,8.934 0.262,12.977 1.615,0.719 7.072,-1.564 10.205,-2.229 4.261,-0.905 9.448,-3.012 13.71,-0.377 -6.161,-0.516 -10.818,0.939 -16.228,2.496 -4.033,1.162 -7.989,2.67 -11.963,3.955 -3.046,1.263 -6.57,2.462 -8.715,4.884 -1.927,2.176 -2.673,4.557 -0.136,7.034 3.384,3.303 -0.626,7.164 -2.611,9.784 -2.667,3.521 1.878,6.31 3.763,8.776 2.059,2.692 0.509,7.172 -0.836,10.305 -1.394,3.246 1.028,3.255 3.014,7.082 1.145,2.2 -1.101,5.02 0.195,7.18 -3.774,-0.77 -0.78,-5.87 -2.248,-7.21 -3.953,-3.61 -3.277,-4.024 -1.337,-9.12 1.202,-3.156 1.103,-4.293 0.602,-4.759 z m 10.196,29.909 c -2.08,-0.37 -6.484,-3.01 -5.487,-5.57 0.84,1.72 6.06,2.62 5.487,5.57 z m 13.56,-13.68 c -1.874,-0.37 -7.028,-4.33 -4.451,-4.79 3.795,1.04 7.977,3.07 12.095,1.99 4.112,-1.07 9.125,-1.97 12.92,-0.28 -4.008,0.54 -6.745,1.51 -10.618,2.23 -3.129,0.59 -6.681,1.5 -9.946,0.85 z m 20.655,-9.028 c 1.211,-3.059 -2.302,-8.626 -0.408,-9.562 0.932,2.985 4.857,6.087 1.887,8.764 -0.155,0.4 -0.985,1.857 -1.479,0.798 z M 53.45,87.359 c -3.949,-3.103 -2.924,-3.887 -0.58,-3.317 2.492,0.607 8.632,0.925 10.415,0.503 3.994,-0.944 12.143,-2.644 15.468,0.365 -3.495,-0.577 -10.108,1.105 -14.464,1.816 -2.431,0.396 -8.906,2.151 -10.839,0.633 z m 27.146,-5.905 c 3.424,-2.289 -0.183,-9.87 3.068,-10.78 1.237,3.449 2.214,10.591 -2.851,11.02 l -0.217,-0.24 z M 51.358,70.368 c -3.607,-1.551 -3.523,-3.565 1.143,-3.132 5.769,0.537 11.856,-0.893 17.358,-1.598 3.574,-0.458 9.748,-1.178 12.221,0.348 -4.446,0.788 -9.099,0.873 -13.341,2.179 -4.909,1.511 -16.631,2.526 -17.381,2.203 z M 79.145,52.11 c 2.212,2.104 4.955,5.651 2.587,8.74 0.315,-3.394 -2.926,-5.808 -2.587,-8.74 z M 53.233,38.288 c 1.554,-3.737 8.072,-2.045 11.917,-2.185 3.08,2.875 -2.694,1.498 -4.388,1.841 -2.269,-0.448 -5.926,2.825 -7.529,0.344 z"
       inkscape:connector-curvature="0" />
  </g>
  <metadata
     id="metadata81">
    <rdf:RDF>
      <cc:Work>
        <dc:format>image/svg+xml</dc:format>
        <dc:type
           rdf:resource="http://purl.org/dc/dcmitype/StillImage" />
        <cc:license
           rdf:resource="http://creativecommons.org/publicdomain/zero/1.0/" />
        <dc:publisher>
          <cc:Agent
             rdf:about="http://openclipart.org/">
            <dc:title>Openclipart</dc:title>
          </cc:Agent>
        </dc:publisher>
        <dc:title></dc:title>
        <dc:date>2008-01-12T17:15:15</dc:date>
        <dc:description>Some rather simple symbols to show whether an answer is right or wrong. Any more ideas?</dc:description>
        <dc:source>https://openclipart.org/detail/11012/right-or-wrong?-by-arnoud999</dc:source>
        <dc:creator>
          <cc:Agent>
            <dc:title>Arnoud999</dc:title>
          </cc:Agent>
        </dc:creator>
        <dc:subject>
          <rdf:Bag>
            <rdf:li>accept</rdf:li>
            <rdf:li>answer</rdf:li>
            <rdf:li>cancel</rdf:li>
            <rdf:li>correction</rdf:li>
            <rdf:li>cross</rdf:li>
            <rdf:li>icon</rdf:li>
            <rdf:li>okay</rdf:li>
            <rdf:li>question</rdf:li>
            <rdf:li>reject</rdf:li>
            <rdf:li>remix</rdf:li>
            <rdf:li>right</rdf:li>
            <rdf:li>sign</rdf:li>
            <rdf:li>smiley</rdf:li>
            <rdf:li>symbol</rdf:li>
            <rdf:li>tick</rdf:li>
            <rdf:li>traffic light</rdf:li>
            <rdf:li>wrong</rdf:li>
          </rdf:Bag>
        </dc:subject>
      </cc:Work>
      <cc:License
         rdf:about="http://creativecommons.org/publicdomain/zero/1.0/">
        <cc:permits
           rdf:resource="http://creativecommons.org/ns#Reproduction" />
        <cc:permits
           rdf:resource="http://creativecommons.org/ns#Distribution" />
        <cc:permits
           rdf:resource="http://creativecommons.org/ns#DerivativeWorks" />
      </cc:License>
    </rdf:RDF>
  </metadata>
</svg>
